<svg id="Pieces" xmlns="http://www.w3.org/2000/svg" viewBox="0 0 60 60"><defs><style>.cls-1{fill:none;}.cls-2{fill:#792f6c;}</style></defs><path class="cls-1" d="M7.23,32.64a4.06,4.06,0,0,0,1.39.13c.66,0,1.73-.08,2.73-.19l1.37-.21.86-.15a18.84,18.84,0,0,0,3.22-1.1c.74-.31,1.45-.65,2-.92L18.5,30l-1.22-.75a19.16,19.16,0,0,0-5.15-1.95,22.71,22.71,0,0,0-5-.55L7,27.11a16.53,16.53,0,0,0-.62,4.15,10.47,10.47,0,0,0,0,1.12,2,2,0,0,0,.42.11A3.18,3.18,0,0,0,7.23,32.64Z"/><path class="cls-1" d="M34,28.51c.6.79,1.15,1.61,1.67,2.44a6.77,6.77,0,0,0-.21-1.83,36.94,36.94,0,0,0-1.21-3.58c-.38-1-1.29-1.89-1.58-2.88a2.8,2.8,0,0,0-.27-.6,3,3,0,0,0-.48-.68,5.08,5.08,0,0,0-.83-.88A23.78,23.78,0,0,0,28,18.12c-.62-.34-1.19-.7-1.7-.91l-.65-.32-.44-.18A12.77,12.77,0,0,0,20.67,16a15.75,15.75,0,0,0-2.87.33c-.8.17-1.37.36-1.56.35l-.08,0a14.2,14.2,0,0,0-4.67,2.54,10.28,10.28,0,0,0-2.73,3.25l-.48,1.09a20.91,20.91,0,0,1,6.12,1c.68.25,1.37.47,2,.75s1.24.56,1.78.83a25.48,25.48,0,0,1,2.27,1.38,35.61,35.61,0,0,1,5.11,4,36.49,36.49,0,0,1,2.7,2.85c.75.87,1.26,1.62,1.55,2,1.12,1.39-1,2.13-1,2.13-.31.19-1.17.67-1.61.5l-1.32-1.93a3,3,0,0,0-.41-.66,20.06,20.06,0,0,0-1.63-1.92c-.43-.39-1-.91-1.56-1.49-.29-.27-.6-.54-.92-.8a3.55,3.55,0,0,1-.78.65,20.28,20.28,0,0,1-3.52,1.57,22.61,22.61,0,0,1-3.95,1,33.27,33.27,0,0,1-4,.57,17,17,0,0,1-1.75,0,7,7,0,0,0,.43.81l.37.71c.13.23.27.44.39.67s.16.27.31.48l.16,0a1.34,1.34,0,0,0,.32.13,3.14,3.14,0,0,0,1.11.15c.52,0,1.36,0,2.14,0s1.49-.09,1.73-.09a11.88,11.88,0,0,0,2.51-.64c1.11-.38,2.14-.89,2.32-.92.38,0,.9.85,1.32,1.65s.38.84-.47,1.43a12.32,12.32,0,0,1-2.91,1.11,15.52,15.52,0,0,1-3.24.53l-.94.09.69.39a13.29,13.29,0,0,0,3.45,1.09,6.2,6.2,0,0,0,1.6.56c2,.14,4.25.35,6.21-.54.47-.25,1-.54,1.62-.81s1.14-.71,1.71-1a9,9,0,0,0,1.43-1.08c.4-.33.72-.6.89-.77a22,22,0,0,1,1.83-1.83,9.4,9.4,0,0,0,1.45-1.95c.14-.4.49-.44.88-.31a18.27,18.27,0,0,0-1.77-3.47c-.37-.57-.85-1.07-1.17-1.67a14.93,14.93,0,0,0-1.09-1.31c-.57-.58-1.22-1.28-1.82-1.83A17.79,17.79,0,0,0,27,26.28c-.27-.24-.44-.57-.76-.77a18.55,18.55,0,0,0-3.46-2.05c-1.29-.43-3.44-1.34-4.06-1.41a12,12,0,0,1-1.52-.48,5.24,5.24,0,0,0-1.46-.31c-.46.06-.43-.64-.25-1.21a10.21,10.21,0,0,0,.29-1.43s.08-.86.87-.59S20.3,19.16,21,19.3a19.28,19.28,0,0,1,4.54,2c1.21.71,1.76.73,2.72,1.8.29.3.78.71,1.27,1.13s1,.82,1.33,1.1a14.22,14.22,0,0,1,1.16,1c.34.34.69.67,1,1S33.68,28.13,34,28.51Z"/><path class="cls-2" d="M57.17,26.49c-.29-.29-.88-.07-1.33.43a2.83,2.83,0,0,0-.51.8,3.36,3.36,0,0,0-.18.57c0,.2-.28.84-.42,1.48s-.26,1.26-.33,1.64a1.29,1.29,0,0,1-.45.9,2.39,2.39,0,0,1-.74.35,1.52,1.52,0,0,1-.8.2c-.15-.07-.3-.12-.48-.21a7,7,0,0,0-3.34-.88,5.11,5.11,0,0,0-2.48.82,5.17,5.17,0,0,0-1.71,1.9,19.13,19.13,0,0,0-1,3.55,1.53,1.53,0,0,1-.46.75c-.12.09-.12.09-.14.07l0,0s0,0,0,0h-.15A9.45,9.45,0,0,1,41,38.75a4.24,4.24,0,0,1-1.33-.45,2.35,2.35,0,0,1-.61-.53c-.08-.1-.09-.12-.09-.15l-.19-.5-.21-.61a3.34,3.34,0,0,0,.76-1,6.3,6.3,0,0,0,.45-1.3,5.29,5.29,0,0,0,.08-.89c0-.32.22-1.33.27-2.51a13.5,13.5,0,0,0-.32-3.41,26.52,26.52,0,0,0-2.42-6.69,15,15,0,0,0-2.15-2.54,9.65,9.65,0,0,0-.84-1.07,12.74,12.74,0,0,0-4.55-3.45,24.86,24.86,0,0,0-6.43-1.9A19.63,19.63,0,0,0,10.68,14,11.06,11.06,0,0,0,8.9,15.27L8,16.08,7.22,17a17.56,17.56,0,0,0-2.07,3.15A28,28,0,0,0,2,27.7,16.9,16.9,0,0,0,2.71,36a18.84,18.84,0,0,0,2.7,5.42A16.44,16.44,0,0,0,9.29,45c.39.26.78.52,1.18.76l1.25.63a27.46,27.46,0,0,0,2.87,1.19c1.12.32,2.21.71,3,.9a8.57,8.57,0,0,0,1.6.41,12.35,12.35,0,0,0,1.34,0,22.73,22.73,0,0,0,3-.34,24,24,0,0,0,2.46-.56,7.13,7.13,0,0,0,1.28-.43l1.25-.51a6.09,6.09,0,0,0,1.11-.57l1-.58A4.59,4.59,0,0,0,31.75,45a13.24,13.24,0,0,1,1.19-1.11c.26-.25.59-.47.86-.76l.87-.9a24.62,24.62,0,0,0,2.13-2.32l.06.06a5.65,5.65,0,0,0,.86.69,8.62,8.62,0,0,0,3.4,1.43,9.07,9.07,0,0,0,1.18.12c.2,0,.4,0,.6,0l.32,0c.16,0,.29,0,.44-.06l.42-.08.35-.23a7.54,7.54,0,0,0,.66-.46l.47-.46c.12-.17.25-.33.36-.49l.07,0a4.26,4.26,0,0,0,.65-1.43c.19-.71.25-1.5.35-2.09a2.67,2.67,0,0,1,.36-1.15,1.11,1.11,0,0,1,.41-.35,3.56,3.56,0,0,1,.38-.12,1.51,1.51,0,0,1,.57,0c.49.07,1.45.49,2.21.68a10.22,10.22,0,0,0,1.86.34c.45.05.69,0,.7,0a2.67,2.67,0,0,0,1.63-.45,7.72,7.72,0,0,0,1.29-1.07,4,4,0,0,0,1-1.7,7,7,0,0,0,.3-1.52,3.9,3.9,0,0,1,.46-2c.2-.23.37-.3.35-.7A5.94,5.94,0,0,0,57.17,26.49ZM6.38,31.26A16.53,16.53,0,0,1,7,27.11l.12-.37a22.71,22.71,0,0,1,5,.55,19.16,19.16,0,0,1,5.15,1.95L18.5,30l.3.21c-.55.27-1.26.61-2,.92a18.84,18.84,0,0,1-3.22,1.1l-.86.15-1.37.21c-1,.11-2.07.17-2.73.19a4.06,4.06,0,0,1-1.39-.13,3.18,3.18,0,0,1-.4-.15,2,2,0,0,1-.42-.11A10.47,10.47,0,0,1,6.38,31.26Zm24.5-5.92c-.32-.28-.82-.7-1.33-1.1s-1-.83-1.27-1.13c-1-1.07-1.51-1.09-2.72-1.8a19.28,19.28,0,0,0-4.54-2c-.72-.14-3.58-1-4.38-1.27s-.87.59-.87.59a10.21,10.21,0,0,1-.29,1.43c-.18.57-.21,1.27.25,1.21a5.24,5.24,0,0,1,1.46.31,12,12,0,0,0,1.52.48c.62.07,2.77,1,4.06,1.41a18.55,18.55,0,0,1,3.46,2.05c.32.2.49.53.76.77a17.79,17.79,0,0,1,1.85,1.34c.6.55,1.25,1.25,1.82,1.83a14.93,14.93,0,0,1,1.09,1.31c.32.6.8,1.1,1.17,1.67a18.27,18.27,0,0,1,1.77,3.47c-.39-.13-.74-.09-.88.31a9.4,9.4,0,0,1-1.45,1.95A22,22,0,0,0,30.53,40c-.17.17-.49.44-.89.77a9,9,0,0,1-1.43,1.08c-.57.32-1.12.76-1.71,1s-1.15.56-1.62.81c-2,.89-4.16.68-6.21.54a6.2,6.2,0,0,1-1.6-.56,13.29,13.29,0,0,1-3.45-1.09l-.69-.39.94-.09a15.52,15.52,0,0,0,3.24-.53A12.32,12.32,0,0,0,20,40.45c.85-.59.86-.62.47-1.43s-.94-1.68-1.32-1.65c-.18,0-1.21.54-2.32.92a11.88,11.88,0,0,1-2.51.64c-.24,0-1,.08-1.73.09S11,39,10.47,39a3.14,3.14,0,0,1-1.11-.15A1.34,1.34,0,0,1,9,38.74l-.16,0c-.15-.21-.25-.38-.31-.48s-.26-.44-.39-.67l-.37-.71A7,7,0,0,1,7.38,36a17,17,0,0,0,1.75,0,33.27,33.27,0,0,0,4-.57,22.61,22.61,0,0,0,3.95-1,20.28,20.28,0,0,0,3.52-1.57,3.55,3.55,0,0,0,.78-.65c.32.26.63.53.92.8.58.58,1.13,1.1,1.56,1.49a20.06,20.06,0,0,1,1.63,1.92,3,3,0,0,1,.41.66L27.25,39c.44.17,1.3-.31,1.61-.5,0,0,2.08-.74,1-2.13-.29-.33-.8-1.08-1.55-2a36.49,36.49,0,0,0-2.7-2.85,35.61,35.61,0,0,0-5.11-4,25.48,25.48,0,0,0-2.27-1.38c-.54-.27-1.15-.54-1.78-.83s-1.33-.5-2-.75a20.91,20.91,0,0,0-6.12-1l.48-1.09a10.28,10.28,0,0,1,2.73-3.25,14.2,14.2,0,0,1,4.67-2.54l.08,0c.19,0,.76-.18,1.56-.35A15.75,15.75,0,0,1,20.67,16a12.77,12.77,0,0,1,4.56.68l.44.18.65.32c.51.21,1.08.57,1.7.91a23.78,23.78,0,0,1,3.05,2.38,5.08,5.08,0,0,1,.83.88,3,3,0,0,1,.48.68,2.8,2.8,0,0,1,.27.6c.29,1,1.2,1.86,1.58,2.88a36.94,36.94,0,0,1,1.21,3.58A6.77,6.77,0,0,1,35.65,31c-.52-.83-1.07-1.65-1.67-2.44-.3-.38-.61-.75-.92-1.11s-.68-.69-1-1A14.22,14.22,0,0,0,30.88,25.34Z"/></svg>