<svg id="Layer_1" data-name="Layer 1" xmlns="http://www.w3.org/2000/svg" viewBox="0 0 60 60"><defs><style>.cls-1{fill:#97b5ff;}</style></defs><path class="cls-1" d="M3,24.61c.73.51,3.36.53,5.45.25,1.6-.22,1-2.41.75-2.84s.18-2.91.13-4.4.29-1.64,0-3.21a19.33,19.33,0,0,1,.06-6.12c.19-1.4-.43-2.91.06-4.28C9.71,3.23,9,2.59,8.1,2.59a28.57,28.57,0,0,0-4.24-.1c-.92.22-1,.64-.92,1.36.53,3.27-.16,7.37-.4,10.66-.2,2.79.6,4.89.06,7.66C2.44,23,2.26,24.11,3,24.61Z"/><path class="cls-1" d="M57.6,50.06v3.73c0,.93-.36,1.45-.79,1.45s-3,.18-4.08.18-5.11.21-5.84.11-4.26.23-6.87.2c-.82,0-3.24.41-3.72.41s-1-.1-.95-2.16a22.58,22.58,0,0,0,0-3s.22-1.13.77-1.13a11.76,11.76,0,0,0,2.74-.21c.49-.21,6.33-.41,7.37-.41s8,.2,9.13-.11S57.6,48.93,57.6,50.06Z"/><path class="cls-1" d="M29.15,7.5l4.67,2.69a.65.65,0,0,1,.31.92c-.3.66-5.32,8.34-6,10.44a44.52,44.52,0,0,1-4.46,7.73c-.61.76-5.27-2.4-5.27-2.4s-.52-.11.33-1.29a65,65,0,0,0,4.07-7.11,33.62,33.62,0,0,1,2.59-6C26.5,10.79,28,7.85,28,7.85S28.21,7,29.15,7.5Z"/><path class="cls-1" d="M50.92,27.45h0s-1.82-3.88-2.85-3a77,77,0,0,1-8.15,5.69,90.84,90.84,0,0,0-8.72,4.87C30,36.13,30,36.13,30.83,37.74S32.72,41.1,33.48,41s7.34-4.4,8.19-4.73A44.06,44.06,0,0,0,48,32.7a5.8,5.8,0,0,1,2.47-1.29l1.72-1A10.35,10.35,0,0,0,50.92,27.45Z"/></svg>