<svg id="Pieces" xmlns="http://www.w3.org/2000/svg" viewBox="0 0 60 60"><defs><style>.cls-1{fill:none;}.cls-2{fill:#792f6c;}</style></defs><path class="cls-1" d="M32.54,33l-.36-.63c-.1-.21-.23-.4-.34-.63s-.2-.52-.33-.86a4.45,4.45,0,0,0-1-1.45A10.67,10.67,0,0,0,29,28.21a10.81,10.81,0,0,0-1.37-.76,12.11,12.11,0,0,0-2.74-.92,10.19,10.19,0,0,0-3.26-.2,12.81,12.81,0,0,0-4.23,1.58c-.27.17-.57.3-.85.48l.82.81a13.64,13.64,0,0,0,2.12,2.21c1.62,1.44,5,4.93,5.61,5.68.47.55,3.89,3.83,5.9,5.83a7.27,7.27,0,0,0,1.37-1.85A5,5,0,0,0,33,38.85c0-.38.11-1.2.17-2.15a10.27,10.27,0,0,0-.31-2.84C32.77,33.53,32.65,33.26,32.54,33Z"/><path class="cls-1" d="M21.76,38.08c-1-1.13-6.44-6.07-7.84-7.25L13.8,31a11.28,11.28,0,0,0-.66,2c-.18.85-.32,1.74-.43,2.42A9.28,9.28,0,0,0,14,42.37,7.23,7.23,0,0,0,15.3,43.8,10.36,10.36,0,0,0,16.9,45c.85.52,1.84,1,2.72,1.45a4.13,4.13,0,0,0,.68.3c.6.09,1.22,0,1.8,0A9.17,9.17,0,0,0,26,46.5a8.6,8.6,0,0,0,2.71-1.32C26.87,43.4,22.66,39.06,21.76,38.08Z"/><path class="cls-2" d="M49.54,23.34c-.1-.65-.28-2.7-.41-4.76,0-.51-.07-1-.1-1.52,0-.25,0-.49,0-.72l0-.88c0-1.52-.05-2.71,0-3.34v-.66l-6.84-.14c-2,0-3.9,0-4.39.06-1.53.23-1.53.23-1.61,1.5s0,2.69.65,2.89a30.14,30.14,0,0,0,3.73.05,41.36,41.36,0,0,1-3.34,3.8c-.81.66-4.42,4.05-5.46,5.24l-.12-.08a12.35,12.35,0,0,0-3.71-2,11.74,11.74,0,0,0-1.68-.46l-1-.22A9.16,9.16,0,0,0,21.92,22a20.88,20.88,0,0,0-4.3.76,13.19,13.19,0,0,0-4,2l-1,.89c-.28.27-.53.52-.8.81s-.58.69-.85,1a11.29,11.29,0,0,0-.69,1.15,22.13,22.13,0,0,0-1.79,4.12,15.24,15.24,0,0,0-.54,5.56.32.32,0,0,0,0,.09A11.2,11.2,0,0,0,9.21,43,13.92,13.92,0,0,0,10,44.42c.3.44.62.84.89,1.2l1.18,1.32a8,8,0,0,0,.75.84,11.74,11.74,0,0,0,1.57,1.37A10.72,10.72,0,0,0,18.2,51l2.12.52a3.74,3.74,0,0,1,.69.2,3.45,3.45,0,0,0,1.69.19c.59-.08,1.16-.18,1.71-.22a10.57,10.57,0,0,0,3.82-1.08c1.13-.57,2.21-1.19,3.45-1.93a5.41,5.41,0,0,0,1.11-.84,5.81,5.81,0,0,0,1.53-1.61c.17-.34.83-1.11,1.43-2A9.33,9.33,0,0,0,37,41.9a11.93,11.93,0,0,1,.35-1.17,16.27,16.27,0,0,0,.39-1.84,10.88,10.88,0,0,0-.09-4c-.51-2.12-.91-4.43-2.32-6.22a.47.47,0,0,1-.06-.09c1.4-1.38,4-4.28,4.5-4.61a33.93,33.93,0,0,0,4.16-4.06c.24-.29.45-.53.64-.73,0,.06,0,.12,0,.16a7.77,7.77,0,0,1-.08,2.7V24a5.33,5.33,0,0,0,2.25.35S49.74,24.65,49.54,23.34ZM26,46.5a9.17,9.17,0,0,1-3.9.26c-.58,0-1.2.09-1.8,0a4.13,4.13,0,0,1-.68-.3c-.88-.46-1.87-.93-2.72-1.45a10.36,10.36,0,0,1-1.6-1.21A7.23,7.23,0,0,1,14,42.37a9.28,9.28,0,0,1-1.3-6.91c.11-.68.25-1.57.43-2.42a11.28,11.28,0,0,1,.66-2l.12-.21c1.4,1.18,6.81,6.12,7.84,7.25s5.11,5.32,7,7.1A8.6,8.6,0,0,1,26,46.5Zm7-7.65a5,5,0,0,1-.65,2.22A7.27,7.27,0,0,1,31,42.92c-2-2-5.43-5.28-5.9-5.83-.64-.75-4-4.24-5.61-5.68a13.64,13.64,0,0,1-2.12-2.21l-.82-.81c.28-.18.58-.31.85-.48a12.81,12.81,0,0,1,4.23-1.58,10.19,10.19,0,0,1,3.26.2,12.11,12.11,0,0,1,2.74.92,10.81,10.81,0,0,1,1.37.76,10.67,10.67,0,0,1,1.47,1.24,4.45,4.45,0,0,1,1,1.45c.13.34.23.62.33.86s.24.42.34.63l.36.63c.11.24.23.51.35.84a10.27,10.27,0,0,1,.31,2.84C33.14,37.65,33,38.47,33,38.85Z"/></svg>