<svg id="Pieces" xmlns="http://www.w3.org/2000/svg" viewBox="0 0 60 60"><defs><style>.cls-1{fill:#792f6c;}</style></defs><path class="cls-1" d="M40.87,2.8a.56.56,0,0,0-.27-.18,6.12,6.12,0,0,0-5.31.4,18.34,18.34,0,0,0-2,1.8A16.2,16.2,0,0,0,31,6.92a15.48,15.48,0,0,0-2.3,4.81c-.38,1.13-.77,2.25-1.15,3.38-.32.93-.64,1.87-.94,2.81C26,20,25.41,22.09,24.84,24.19a1,1,0,0,0,0,.29,5.09,5.09,0,0,0,1.43.31,3.18,3.18,0,0,0,2.08-.48q1.55-5.19,3.1-10.37a12.67,12.67,0,0,1,1.84-4.22c.61-.78,1.38-1.41,2-2.17s1.15-1.52,2-1.44A56.48,56.48,0,0,0,36,14a13.57,13.57,0,0,1-.55,3.82c-.1.28-.21.66,0,.84a.65.65,0,0,0,.55.05l2.28-.44a1.07,1.07,0,0,0,.46-.17,1.17,1.17,0,0,0,.25-.89,11.11,11.11,0,0,1,.28-2,104.74,104.74,0,0,0,1.67-12A.58.58,0,0,0,40.87,2.8Z"/><path class="cls-1" d="M56.91,15.62l-.42,0a12,12,0,0,0-1.84-.06c-.89.21-1.81.45-2.73.7l-1.06.29-.71.21c-.95.28-1.89.58-2.85.84l-4.13,1.1c-1.21.33-2.42.71-3.61,1.09l-1.91.63a26,26,0,0,1-4.32,1.14,19,19,0,0,0-4.09,1.07c-2.06.56-3.4.29-4.27.72a30.73,30.73,0,0,1-4.83,1.6c-1.09.2-.72,1-.72,1a7.78,7.78,0,0,1,.43,1.48c.09.63.44,1.28,1,.94s3.48-.86,4.3-1.17,1.13-.12,3-.82,3.84-.93,5.71-1.57c.53-.18,1.06-.11,1.58-.25s2.48-.91,3.2-1.1c2.29-.62,5.34-1.64,6-1.77a28.5,28.5,0,0,0,2.84-.79c1.24-.37,2.52-.64,3.81-.91l.48-.1.24,0,.16,0,.09,0a.1.1,0,0,1,0,.09s0,.05,0,.05.1,0,.1.15a.45.45,0,0,1-.07.2l-.47.7a15.83,15.83,0,0,1-1.41,1.65,27.41,27.41,0,0,1-3.61,3h-.07a10.06,10.06,0,0,0-1.21.77c-.31.23-.65.39-1,.61s-.72.45-1.14.63a22.91,22.91,0,0,1-3.79,1.44c-.4,0-1.5.35-2.76.55s-2.64.45-3.49.64A28.21,28.21,0,0,1,28,30.8c-2.48,0-4.36.45-6.82.08a31.26,31.26,0,0,0-5.56.89c-.52.08-1.34.17-1.19.78a3.35,3.35,0,0,1-.23,2,4,4,0,0,1-2.43,2.23,4.18,4.18,0,0,1-3.48-.41,3.84,3.84,0,0,1-1.57-1.78,4.6,4.6,0,0,1-.28-2.41,4.34,4.34,0,0,1,2-3,4.38,4.38,0,0,1,3.44-.54,5.47,5.47,0,0,1,1.89,1,9.46,9.46,0,0,1,1.13,1,10.4,10.4,0,0,0,1.71-.49c1.12-.4,3.42-.33,2.47-2.28a8.58,8.58,0,0,0-3-3.24,9.71,9.71,0,0,0-3.5-1.42,9.48,9.48,0,0,0-4.23.16,9.77,9.77,0,0,0-3.75,2,9.59,9.59,0,0,0-2.37,3,10.3,10.3,0,0,0-1.08,4.51,9,9,0,0,0,.52,3.26,9.6,9.6,0,0,0,3.1,4.35,9.72,9.72,0,0,0,5.52,2,9.16,9.16,0,0,0,4.81-1.12,10.85,10.85,0,0,0,4.07-3.93A12.62,12.62,0,0,0,20,35.88a6.72,6.72,0,0,0,.36-1.42,4,4,0,0,0,.87-.11c.4-.09,2.69.16,4.08.11,1.69-.07,3.55.09,5.3-.06.8,0,1.58-.33,2.37-.46l1,0c.67,0,1.38-.14,2.08-.25s1.41-.31,2.06-.48c.83-.24,1.61-.53,2.39-.75s1.56-.56,2.4-.82,1.51-.61,2.29-.92,1.54-.79,2.25-1.22a36.1,36.1,0,0,0,4.06-2.84A14.18,14.18,0,0,0,53.85,24a16.87,16.87,0,0,0,.92-1.43l.19-.32c0-.1.11-.19.19-.35l.37-.73A13.13,13.13,0,0,0,57,17l.14-1c0-.09,0-.19,0-.27Z"/><path class="cls-1" d="M36.54,48.55a10.84,10.84,0,0,0-1.78-5.37,14.76,14.76,0,0,0-1-1.38l-.09-.09a8.32,8.32,0,0,0-1.75-1.38,19.24,19.24,0,0,1,.27-2.47,34.37,34.37,0,0,0,1.06-4.26c0-.71,0-.71-.94-1s-2-.47-2.19-.2a4.68,4.68,0,0,0-.43,1.71c-.14.7-.34,1.42-.44,2.13-.21,1.46-.62,2.87-.84,4.32-.13.87-.06,1.75-.18,2.61-.24,1.8,0,1.72.52,2.27a4.4,4.4,0,0,0,.79.54,3.26,3.26,0,0,1,1.2,1.58,4.19,4.19,0,0,1-1,4.35,4.25,4.25,0,0,1-4.33.93,4.42,4.42,0,0,1-2.79-3.46c-.22-1.59.7-4.43,2.67-4.45a2.35,2.35,0,0,0,.65,0,.92.92,0,0,0,.54-.5A10,10,0,0,0,27,42a37.86,37.86,0,0,0,.5-5.3,12.42,12.42,0,0,0,0-3.39c-.17-.72-.17-.72-1.12-.76s-2,0-2.19.31.08,3.94,0,4.36c0,.25-.15,1.29-.2,2.25a9.54,9.54,0,0,0-2.11.93,9.86,9.86,0,0,0-2.79,2.54,9.43,9.43,0,0,0-1.69,3.88,9.71,9.71,0,0,0,.13,4.23,9.81,9.81,0,0,0,1.67,3.43,10.21,10.21,0,0,0,3.59,2.93,9,9,0,0,0,3.17,1,9.59,9.59,0,0,0,5.26-.91,9.7,9.7,0,0,0,4.23-4.08A9.25,9.25,0,0,0,36.54,48.55Z"/><path class="cls-1" d="M31.89,26.05a2,2,0,1,0,1.84,2.07A1.94,1.94,0,0,0,31.89,26.05Z"/></svg>