<svg id="Layer_1" data-name="Layer 1" xmlns="http://www.w3.org/2000/svg" viewBox="0 0 60 60"><defs><style>.cls-1{fill:#97b5ff;}</style></defs><path class="cls-1" d="M25.36,56.33c.51-.72.53-3.35.25-5.45-.22-1.6-2.41-1-2.84-.75S19.86,50,18.37,50s-1.64-.29-3.21,0A19,19,0,0,1,9,49.94c-1.4-.19-2.91.43-4.28-.06-.78-.28-1.42.41-1.42,1.33a28.57,28.57,0,0,0-.1,4.24c.22.92.64,1,1.36.92,3.27-.53,7.37.16,10.66.4,2.79.2,4.89-.6,7.66-.06C23.74,56.87,24.86,57.05,25.36,56.33Z"/><path class="cls-1" d="M50.81,1.71h3.73c.93,0,1.45.36,1.45.79s.18,3,.18,4.08.21,5.11.11,5.84.23,4.27.2,6.88c0,.81.41,3.23.41,3.72s-.1,1-2.16.94a22.58,22.58,0,0,0-3,0s-1.13-.22-1.13-.77a11.8,11.8,0,0,0-.21-2.74C50.19,20,50,14.13,50,13.09s.2-8-.11-9.13S49.68,1.71,50.81,1.71Z"/><path class="cls-1" d="M8.25,30.16l2.69-4.67a.65.65,0,0,1,.92-.31c.66.3,8.34,5.32,10.44,6A44.52,44.52,0,0,1,30,35.66c.76.61-2.4,5.27-2.4,5.27s-.11.52-1.29-.33a65,65,0,0,0-7.11-4.07,32.91,32.91,0,0,1-6-2.59c-1.66-1.13-4.6-2.63-4.6-2.63S7.7,31.1,8.25,30.16Z"/><path class="cls-1" d="M28.2,8.39h0s-3.88,1.83-3,2.85a77,77,0,0,1,5.69,8.15,89.65,89.65,0,0,0,4.87,8.72c1.08,1.19,1.08,1.19,2.69.37s3.36-1.88,3.25-2.65S37.34,18.5,37,17.65a43.56,43.56,0,0,0-3.56-6.37,5.8,5.8,0,0,1-1.29-2.47l-1-1.72A10.35,10.35,0,0,0,28.2,8.39Z"/></svg>