<svg id="Pieces" xmlns="http://www.w3.org/2000/svg" viewBox="0 0 60 60"><defs><style>.cls-1{fill:#fff;}</style></defs><path class="cls-1" d="M55.23,23.86c-.08-.69-.11-2.19-.41-3.86a15.1,15.1,0,0,0-1.68-4.7v-.09a10.45,10.45,0,0,0-2.75-3.3,18.5,18.5,0,0,0-3.67-2.34A10.52,10.52,0,0,0,44,8.46a10.26,10.26,0,0,0-3.77-.31l-1.93.23a4.46,4.46,0,0,1-.64,0c-1-.09-2,.66-2.88,1a9.51,9.51,0,0,0-3,1.94c-.59.54-1.14,1.11-1.75,1.71a10.19,10.19,0,0,0-2.28-1.91C25.86,10,23.93,8.74,21.66,8.51c-.62-.08-1.15-.4-1.76-.43a10.33,10.33,0,0,0-1.81.16c-.8.15-1.6.36-2,.46a13.23,13.23,0,0,0-3.85,1.6A24.41,24.41,0,0,0,10,11.9a9.5,9.5,0,0,0-2.24,2.36,16,16,0,0,0-3.28,8,11.91,11.91,0,0,0,.56,5c.25.73.65,2.3,1.3,4A28.8,28.8,0,0,0,8.62,36a.21.21,0,0,0,0,.08,17.44,17.44,0,0,0,2.56,3.51c1.33,1.5,2.81,2.84,3.08,3.15a21.5,21.5,0,0,0,2.12,2.06A21.09,21.09,0,0,0,19.33,47,11.39,11.39,0,0,1,20.88,48a3.61,3.61,0,0,1,.44.42c.6.79,1.69,1,2.46,1.55,2,1.45,3.87,1.93,5.84,3.46.58.45,1.43,1,2.08.79a3.47,3.47,0,0,0,1.23-1.65,13.59,13.59,0,0,0,2.18-1.3,45.36,45.36,0,0,0,4.27-3.48,13.56,13.56,0,0,1,1.95-1.61,15.28,15.28,0,0,0,2-1.57c.35-.35.87-.43,1.23-.74s1.56-1.81,2-2.29a37.53,37.53,0,0,0,3.56-4.39,11.6,11.6,0,0,0,1.45-2.26,30.9,30.9,0,0,0,3.21-6.61A11,11,0,0,0,55.23,23.86Zm-5.35,4.22a41.76,41.76,0,0,1-1.74,4.17A24.16,24.16,0,0,1,46.29,35c-.58.8-1.19,1.59-1.8,2.38-.34.42-.66.85-1,1.26A10,10,0,0,1,40.76,41c-1.36.6-1.61,1.2-2.81,2.17-1.42,1.17-3.79,2.71-4.28,3.35A8.72,8.72,0,0,1,31.77,48a11.3,11.3,0,0,1-1.19.67c-.64-.42-1.41-1-2-1.31-1.35-.76-2.61-1.93-3.93-2.81-.6-.4-1.33-.61-2-1L22,43a26,26,0,0,0-2.91-2.25A17.49,17.49,0,0,1,15.78,38a23.6,23.6,0,0,1-4.39-6.88c-.27-.72-.79-1.61-1.18-2.47a18.22,18.22,0,0,1-.93-2.13,8.5,8.5,0,0,1,.12-4.9,13.52,13.52,0,0,1,1.5-4.28A10.58,10.58,0,0,1,13.19,15a15.63,15.63,0,0,1,2.51-1.54,11,11,0,0,1,1.47-.59,6.39,6.39,0,0,1,1.73-.31,4.28,4.28,0,0,1,1.72.25c1.29.66,1.79.47,3.09,1.09A8.79,8.79,0,0,1,26,15.62c.66.68,1.15,1.36,1.45,1.61A2.73,2.73,0,0,1,28,18a.4.4,0,0,1,.07.13l.16.38.32.82c.42,1.12.8,2.27.94,2.78.28,1,1.35.47,1.35.47a15.09,15.09,0,0,1,1.89-.77c.81-.24,1.65-.73,1.2-1.2a19.08,19.08,0,0,1-1.26-3.28,2.64,2.64,0,0,0,.28-.75c0-.33,1.31-1.31,2.06-1.85a8.62,8.62,0,0,1,3.26-1.26c.5-.14,1-.47,1.52-.58a4.89,4.89,0,0,1,.66.05l2.72.32a6.93,6.93,0,0,1,3.15,1.18,9.35,9.35,0,0,1,2.28,2.33,8.93,8.93,0,0,1,1.25,2.89c.14.6.43,1.38.65,2.16a14.72,14.72,0,0,1,.43,1.95A8.49,8.49,0,0,1,49.88,28.08Z"/><path class="cls-1" d="M16.52,21.1c-1-.76-2.18-1.59-2.52-1.45a4.93,4.93,0,0,0-1,1.71c-.36.85-.57,1.76-.66,1.93a5.18,5.18,0,0,0-.43,1.33,5.24,5.24,0,0,0-.08,1.73,2.68,2.68,0,0,1,.06.57,5.73,5.73,0,0,0,1.09.24,11.43,11.43,0,0,0,1.94,0l.26,0c.23-.06.46-.12.7-.16l.22,0c.16-.05.3-.11.47-.15a5.06,5.06,0,0,1-.18-.65,2.93,2.93,0,0,1,0-1.37c.09-.18.3-.76.56-1.29a9.08,9.08,0,0,0,.56-1.19C17.53,21.85,17.54,21.85,16.52,21.1Z"/><path class="cls-1" d="M18.66,15.67a2.2,2.2,0,1,0,2.15,2.25A2.2,2.2,0,0,0,18.66,15.67Z"/></svg>