<svg id="Pieces" xmlns="http://www.w3.org/2000/svg" viewBox="0 0 60 60"><defs><style>.cls-1{fill:#792f6c;}</style></defs><path class="cls-1" d="M36.27,18.38a13.59,13.59,0,0,0,4,.74c.9.07,2.67.05,3.52.17a8.27,8.27,0,0,0,3.31-.3c1.66-.22,4.34-1,5-1.51s1.18-.69,1.73-1.09a11.23,11.23,0,0,0,1.93-2.14c1-.86.07-1-.62-1.53-.15-.1-1.66-1-1.62-.48a1.82,1.82,0,0,1-.71.87c-.4.34-.92.62-1.12.8a18,18,0,0,1-3.74,1.65,17.89,17.89,0,0,1-4,.58c-.38.06-.73-.14-1.09-.14a13.81,13.81,0,0,1-2.29.07,15.53,15.53,0,0,1-3.81-.86,8.33,8.33,0,0,1-2.18-1.58c-.29-.28-1.18-1.6-1.51-1.16a2.35,2.35,0,0,1-.58.46c-1.08.82,0,2.42.65,3.22A8.81,8.81,0,0,0,36.27,18.38Z"/><path class="cls-1" d="M56.88,15.15c0-.86-.3-2-.88-2.15s-2,.75-2.6,1.29-.2,2.09-.11,2.24a1.8,1.8,0,0,1-.12.89C52,20.92,49.24,22,42,22c-2.64,0-7.88-.86-8.29-4.34,0-.32,0-1.37.29-1.66,1-1-.55-1.31-1-2s-2-1.55-2.62-.54a6.59,6.59,0,0,0-.63,1.79,8.3,8.3,0,0,0-.13.91,3.32,3.32,0,0,0,0,1c0,.34.08.68.1,1.05a8.94,8.94,0,0,0,.35,1.28,5.67,5.67,0,0,0,.46,1,5.27,5.27,0,0,0,.64.95,4.72,4.72,0,0,0,.8.81,15.82,15.82,0,0,0,8.29,3.82,16.38,16.38,0,0,0,2.2.13c1.57,0,3.15-.16,3.5-.16.17,0,.5,0,.92,0s1-.13,1.51-.22a15.72,15.72,0,0,0,1.66-.47c.92-.28,3.39-1.91,3.39-1.79.9-.34,1.38-1.37,1.93-2.12a8,8,0,0,0,1.42-4.59c0-.26,0-.52,0-.78S56.9,15.47,56.88,15.15Z"/><path class="cls-1" d="M50.21,9.78a15.46,15.46,0,0,0-4-.64c-.9-.06-2.67,0-3.52-.15a9.73,9.73,0,0,0-3.31.26,16.78,16.78,0,0,0-5,1.31c-.5.38-1.18.6-1.72.94a9.68,9.68,0,0,0-1.93,1.85c-1,.75-.08.86.62,1.32.15.09,1.65.87,1.61.42a1.67,1.67,0,0,1,.72-.76c.4-.29.91-.53,1.12-.68a15.81,15.81,0,0,1,8.83-1.82,16.86,16.86,0,0,1,2.3-.05,17.14,17.14,0,0,1,3.81.74A8.42,8.42,0,0,1,52,13.88c.29.25,1.18,1.38,1.5,1a2.67,2.67,0,0,1,.59-.4c1.08-.71,0-2.09-.65-2.78A9,9,0,0,0,50.21,9.78Z"/><path class="cls-1" d="M29.6,12.57c0,.74.29,1.71.88,1.86s1.93-.63,2.59-1.12.2-1.8.11-1.93a1.53,1.53,0,0,1,.13-.77c1.17-3.09,4-3.92,11.17-4,2.62,0,7.81.67,8.29,3.76,0,.27,0,1.18-.29,1.43-1,.86.54,1.13,1,1.73s2,1.33,2.62.46a5.22,5.22,0,0,0,.63-1.55,4.55,4.55,0,0,0,.12-.78,2.44,2.44,0,0,0,0-.85c0-.3-.08-.6-.1-.91a6.81,6.81,0,0,0-1.45-1.83,4.46,4.46,0,0,0-.8-.7,17.06,17.06,0,0,0-8.29-3.3A18.48,18.48,0,0,0,44,4c-1.58,0-3.16.14-3.5.14-.17,0-.5,0-.92,0s-1,.11-1.51.2-1.13.25-1.66.4C35.5,5,33,6.41,33,6.3c-.9.3-1.39,1.19-1.93,1.84-.76.84-1.09.77-1.25,1.65a9.93,9.93,0,0,0-.17,1.32c0,.22,0,.44-.05.67A5.18,5.18,0,0,0,29.6,12.57Z"/><path class="cls-1" d="M44.12,28.13a5.47,5.47,0,0,1-1.46,0c-.6-.1-1.29.11-1.12.94s-.09,4.7,0,5.85,0,5.62.15,8.22c0,.31,0,.67,0,.94a7,7,0,0,1,0,.8,6,6,0,0,1-.41,1.55,9.75,9.75,0,0,1-1.7,2.68,5.79,5.79,0,0,1-1.42.93,8.46,8.46,0,0,1-1.45.83,5.82,5.82,0,0,1-1.87.49,8.76,8.76,0,0,1-2-.09,7.82,7.82,0,0,1-1.93-.64A6.21,6.21,0,0,1,28.7,49a9.49,9.49,0,0,1-1.63-2.76,12.7,12.7,0,0,1-.49-3.19,4.67,4.67,0,0,1,.07-1.46A23.3,23.3,0,0,0,27,36.45c0-1.05,0-2,0-3.13a8.91,8.91,0,0,0-.85-3.56A13.49,13.49,0,0,0,25,27.58,11.51,11.51,0,0,0,22.42,25a10.53,10.53,0,0,0-3.62-1.73,10.93,10.93,0,0,0-3.64-.32l-.11,0a8.06,8.06,0,0,0-2.3.46A10.57,10.57,0,0,0,9.1,25.53,11.09,11.09,0,0,0,6.55,29a12.34,12.34,0,0,0-.82,2.34,10.44,10.44,0,0,0-.32,2.36l0,1.5c0,.72,0,1.46,0,2.19l.63.83.32.45.52.74.83,1.23c.52.77,1.74,3-.13,3.38a1.59,1.59,0,0,1-1.76-.79,1.38,1.38,0,0,1-.14-.5c0-.13,0-.07,0-.16a2.69,2.69,0,0,1,.1-.32,7.52,7.52,0,0,1,1-1.75A6.64,6.64,0,0,0,8.09,38c.05-.66-1-1.5-2-1.85C5.25,35.91,4,38.37,3.8,38.93c-.09.28-.59,1-1.07,2.2a3.63,3.63,0,0,0-.17.5,3.69,3.69,0,0,0-.13.62l0,.37v.3a4.07,4.07,0,0,0,.06.61,4.62,4.62,0,0,0,.93,2,4.83,4.83,0,0,0,3.43,1.87,4.93,4.93,0,0,0,2.63-.71,4.73,4.73,0,0,0,2.42-2.55A4.46,4.46,0,0,0,12.1,43a3.67,3.67,0,0,0,0-.64,3,3,0,0,0-.14-.65A8.46,8.46,0,0,0,11.12,40c-.19-.44-.4-.84-.61-1.24a11.89,11.89,0,0,0-1-1.52,8.23,8.23,0,0,1-.71-5.8,8.61,8.61,0,0,1,1-1.81,7.43,7.43,0,0,1,1.81-2.14,10.13,10.13,0,0,1,4-1.12,6.56,6.56,0,0,1,3,.44,9.21,9.21,0,0,1,2.91,1.76,7.74,7.74,0,0,1,1.76,2.33,6.33,6.33,0,0,1,.61,2.8c0,2.86-.36,5.72-.34,8.64l0,1.77c0,.35,0,.7.06,1l.16,1A10.71,10.71,0,0,0,27,51.82a10.16,10.16,0,0,0,5.17,2.55,11.28,11.28,0,0,0,3.07.05,11.86,11.86,0,0,0,3.28-1,14.13,14.13,0,0,0,2.86-1.77,7.17,7.17,0,0,0,2.12-2.43,11.65,11.65,0,0,0,1.1-3.08,12.43,12.43,0,0,0,.2-1.31c0-.46.07-1,.07-1.36,0-.83,0-1.69,0-2.51a33.66,33.66,0,0,0-.07-3.68c-.17-1.25-.08-6.47,0-7.93S44.12,28.13,44.12,28.13Z"/></svg>