<svg id="Layer_1" data-name="Layer 1" xmlns="http://www.w3.org/2000/svg" viewBox="0 0 300 60"><defs><style>.cls-1{fill:#ecc3ee;}</style></defs><path class="cls-1" d="M297.62,18.37a4.17,4.17,0,0,1-1-1.81c-.11-.88-1.06-1.51-3-.37-1,.56-3.93,1.87-7,3.14l-4.47,1.79c-1.37.53-2.54,1-3.25,1.3-1.43.65-5,2-9.12,3.5l-12,4.25c-6.65,2.38-13.69,4-20.54,5.86-1.93.56-3.74.68-5.61,1.15-1.54.4-9.21,2.41-11.85,2.92-4.19.87-9.13,1.84-13.33,2.61s-7.66,1.34-8.86,1.47c-3.49.42-7,1-10.53,1.44-2,.23-4,.52-6,.71-2.53.25-5.6.89-8.08.75-4.65-.21-9.35.11-14.22.25l-16.94.31c-1.29,0-3.34,0-5.84,0s-5.44-.2-8.53-.43c-6.19-.39-13-1.08-17.9-1.72a2,2,0,0,0-.26-.08c-1.16-.21-8.11-1.07-15.1-2.19s-14-2.55-15.43-2.92S73,38.9,68.38,37.73s-9.68-2.55-12.81-3.39-5.24-1.48-6.63-2-2-.74-2.08-.76c-3.18-1.36-6.91-2.14-10.21-3.38-6.93-2.6-12.62-4.44-18.86-7.16l1,0c2.33,0,4,.1,5.05.16s1.56.12,1.56.12c1.59,0,3.17,0,4.84-.19.78-.45.68-1.81.62-2.32a3.41,3.41,0,0,0-.17-1.47c-.28-.71-.84-1.31-2.3-1.14a83.29,83.29,0,0,1-11.12.19c-2.45-.09-4.89-.23-6.95-.38L8,15.87l-2.19-.22c-.94-.1-2.93-.81-3.66,0a3,3,0,0,0-.55,1.11c-.34,1,.45,1.74,1,2.51l1.44,1.94c2.57,3,3.75,4.17,5.46,5.91,3.25,3.21,6.45,6,7.36,6.75,2.88,2.23,2.9,2.22,3.91,1.41s1.92-2,.83-3.17c-.55-.6-4.23-3.78-7.77-7.14L12.54,23.7c2.3.94,8.64,3.84,12.78,5.39,2.28.87,4.52,1.81,6.82,2.67,1.59.56,3.23.94,4.82,1.52C39,34,40.92,35,43,35.69c2.72.89,5.52,1.51,8.26,2.28L54.61,39c1.63.55,3.3,1,5,1.38l5,1.24c1.44.38,2.84.9,4.26,1.27a38.8,38.8,0,0,0,4.08.5c4,.58,9.16,2.07,13.24,2.87,3,.59,6.12.91,9.18,1.44,2.89.48,5.34,1.56,8.12,1.92,1.94.28,3.89.37,5.83.58,1.79.22,3.57.41,5.36.58l5.35.54c3.33.34,7.75.55,11.83.61s7.83,0,9.83,0c6.26-.1,12.55-.08,18.82-.29.53,0,1.07,0,1.59,0s1.12.14,1.67.21c3.66.47,7.66-.32,11.41-.65,1.63-.12,3.26-.3,4.89-.46s3.26-.32,4.88-.51c5.19-.55,10.36-1.26,15.51-2q6.81-1.06,13.56-2.45c2.39-.51,4.79-1,7.17-1.56,4-.86,12-2.86,15.91-3.57,6.47-1.25,8.51-2.12,14.89-4,3.76-1.09,8.61-2.56,12.91-4s8-2.77,9.62-3.5,5.78-2.33,10-4,8.5-3.55,10.37-4.32C298.62,19.25,297.62,18.37,297.62,18.37Z"/></svg>