<svg id="Layer_1" data-name="Layer 1" xmlns="http://www.w3.org/2000/svg" viewBox="0 0 1200 15"><defs><style>.cls-1{fill:#97b5ff;}</style></defs><path class="cls-1" d="M1137.18.42c-12.92.35-63.41-.09-92.8.62-29,.7-58.58-.47-87.76,0-8.27.12-15.6-.68-23.51-.68-6.56,0-39.05.86-50.07.84-35.12-.06-82.66.63-92.5.42-14.41-.31-29.14,0-43.57,0C708.65,1.84,669.6.54,630.55.27,607.35.11,584.08.11,561,.82c-21.18.64-91.88.27-132.81.08-.36,0-.66-.1-1.06-.12C417.41.19,312,1.07,299.91.78S228.45.08,201.8.57c-26.16.49-37.15-.2-37.55-.23C150-.58,134.49.67,120,.51,82.44.11,54.09,1.45,16.84.35,11.7.2,5.67.32,0,.35V14c8.06,0,16.17.23,18.9,0,5.75-.46,39.12.38,59.25.27,24.69-.14,51.45.75,76.68.74,11.59,0,23.13-.68,34.69-.87l14.17.25c19.18.4,41,.33,60.08,0,24.64-.48,46.39-.81,71.11-.71,44.94.19,92.75.75,138.5,1.25,27,.3,71.37-1.18,87.59-1.57,29.21-.71,58.27.47,87.38,1s58.58-.09,87.89-.07c21.11,0,42.21.14,63.32.14,18.62,0,37.24-.16,55.84-.37q14.88-.18,29.76-.4c16.66-.23,50.12-.54,66.12.18,26.64,1.2,35.53.23,62.55.23,31.72,0,82.24.7,96.33,0s73-.37,89.47,0h.37V.35C1186.52.73,1149,.1,1137.18.42Z"/></svg>