<svg id="Layer_1" data-name="Layer 1" xmlns="http://www.w3.org/2000/svg" viewBox="0 0 300 60"><defs><style>.cls-1{fill:#ff8d7b;}</style></defs><path class="cls-1" d="M295.58,47.78c-.26-.31-.54-.62-.82-.94l-.48-.54-1-1.08c-.67-.71-1.35-1.41-2-2.08-2.67-2.67-5.16-4.88-5.93-5.47-2.73-2.11-2.75-2.09-3.76-1.28s-1.91,2-.9,3.11c.48.54,3.58,3.22,6.66,6.19-2.93-1.33-5.86-2.68-7.28-3.24s-5.17-2-9.31-3.56c-2.05-.83-4.28-1.57-6.41-2.31s-4.17-1.4-5.91-1.95c-6.9-2-13.76-4.64-20.8-6.37-2-.5-3.65-1.31-5.57-1.76-1.59-.37-9.48-2.08-12.16-2.65l-6.77-1.41-3.47-.7c-1.14-.22-2.26-.39-3.33-.57-4.29-.72-7.8-1.3-9-1.55-3.52-.64-7.16-1.06-10.71-1.55-2-.32-4.09-.46-6.13-.71a75.62,75.62,0,0,1-8.23-.88,71,71,0,0,0-7.08-1.05c-2.4-.25-4.84-.47-7.32-.58-2.88-.17-5.77-.33-8.66-.44s-5.77,0-8.65,0c-1.32.05-3.4,0-5.95.05l-8.72.15-2.4,0-2.42.1-4.81.2-4.59.19c-1.46.07-2.84.2-4.11.28l-.27,0c-1.21,0-8.35.49-15.52,1.42-7.2.74-14.4,2-15.9,2.15s-5.9.84-10.72,1.75c-2.41.45-4.92,1-7.23,1.49s-4.42,1-6,1.49c-3.14.88-5.38,1.45-6.84,1.84s-2.17.51-2.22.52c-3.5.7-7.07,2.29-10.5,3.44-2.23.73-4.27,1.57-6.25,2.33s-3.84,1.66-5.71,2.5L14.77,37l-2.91,1.42-1.51.72-1.53.78c-1.23.62-2.69,1.33-4,2.11a15.32,15.32,0,0,0-3,2.23c-1.17,1.31-.15,2.87,1.45,3.62.61.29,2.37-.58,4.12-1.62S11,44.12,11.58,43.7A54.22,54.22,0,0,1,16.79,41c1.25-.62,2.66-1.18,4-1.79s2.64-1.15,3.77-1.62,2.22-.92,3.35-1.34,2.26-.8,3.38-1.23c1.55-.62,3-1.3,4.64-1.84,2.06-.71,4.14-1,6.23-1.65l4-1.3c1.33-.45,2.66-.92,4-1.28l3.37-.77c3.33-.71,6.59-1.67,9.94-2.32,1.44-.31,2.92-.41,4.35-.67s2.47-.79,3.91-1.15c3.89-1,9.24-1.45,13.33-1.95,3.06-.42,6.09-.9,9.16-1.24,2.91-.3,5.54.09,8.3-.09,1.94-.15,3.84-.46,5.78-.62,3.54-.35,7.11-.43,10.67-.57l11.73-.51c2-.09,4-.22,5.65-.27l4.11-.09c3.12,0,6.24-.09,9.36.08l9.36.5a10.06,10.06,0,0,1,1.57.16c.58.1,1.09.27,1.63.41,3.53.95,7.56.68,11.29,1.06l9.7,1.07c2.57.32,5.12.75,7.68,1.12s5.13.72,7.68,1.22c4.48.83,9,1.46,13.48,2.4l7.17,1.38c2,.4,5,1.13,8,1.84l4.29,1.08c1.34.37,2.52.77,3.45,1.09,3.09,1.08,5.17,1.68,7.29,2.24s4.22,1.19,7.38,2.17c1.85.59,4,1.25,6.16,2l6.52,2.36c4.24,1.46,7.9,3,9.55,3.46a99.82,99.82,0,0,1,10,3.93l3.58,1.6c-2,.05-3.92.12-5.29.22a51.33,51.33,0,0,1-6.18.2c-1.48.09-2.95.19-4.45.36-.7.45-.6,1.81-.53,2.32,0,0-.36,3,2.43,2.57,1.4-.25,5.95-.7,10.58-1,2.31-.14,4.63-.24,6.58-.3l2.63-.06h3c1.28,0,2.7.44,3.43-.89a2.65,2.65,0,0,0,.34-1.42C298.06,50.39,296.54,49,295.58,47.78Z"/></svg>