<svg id="Pieces" xmlns="http://www.w3.org/2000/svg" viewBox="0 0 60 60"><defs><style>.cls-1{fill:#fff;}</style></defs><path class="cls-1" d="M37.77,43.62a11.16,11.16,0,0,1,0,2c-.14.83.13,1.82,1.23,1.47A18.08,18.08,0,0,0,42.5,46a9,9,0,0,0,3.06-2.49,11.24,11.24,0,0,0,1.94-4.2,11.73,11.73,0,0,0,.19-2.9c0-.8-.06-1.55-.12-2.2-.24-2.54.17-5.12,0-7.68,0-.72.24-1.36.24-2.06,0-.28-.08-1.14-.15-2l-.05-.68-.08-.79c0-.54-.17-1-.21-1.3a9.43,9.43,0,0,0-3.16-5.29,11.09,11.09,0,0,0-3.58-2,7.18,7.18,0,0,0-2.39-.45c-.45,0-.73,0-1.05,0l-.95,0L34,12c-.91,0-2,.35-2.91,0a16.16,16.16,0,0,0-5.1-.56c-1,0-2,0-3.05,0l-.76,0c-.3,0-.67.05-1,.09a8.55,8.55,0,0,0-1.94.52,12.81,12.81,0,0,0-2.43,1.25A10.43,10.43,0,0,0,14,16.12a10.1,10.1,0,0,0-1.61,4.06,31.45,31.45,0,0,0-.16,3.39s0,.05,0,.09c-.2.85.1,10.07,0,11.13,0,.26-.06.79-.08,1.46,0,.36,0,.66,0,1.16l0,.81.12.84a9.3,9.3,0,0,0,3.06,5.41,15.47,15.47,0,0,0,2.73,1.8c.62.32.93.46.94.48a5.14,5.14,0,0,0,2.52.55l.65,0,.49,0a6.16,6.16,0,0,1,1,0c3.29.14,5.77-.42,9,0,1,.11,2.28.23,2.87-.27s.62-2.35.29-3.81c-.25-1.13-2.84-.69-3.34-.53s-3.42-.13-5.19-.09c-.87,0-1.73-.09-2.6-.08-.6,0-1.19.19-1.79.17a6.48,6.48,0,0,1-1.78-.45,6.12,6.12,0,0,1-2-.56,4.54,4.54,0,0,1-.62-.62,7.06,7.06,0,0,1-1.41-2.09,5.83,5.83,0,0,1,0-1.1.86.86,0,0,0-.19-.5,3,3,0,0,1-.27-.7c-.36-1.43.06-3.33.08-4.8,0-1.1-.19-2.19-.16-3.29s.71-2,.72-3c0-.69-.15-1.38-.16-2.07V21.53a3.83,3.83,0,0,1,.22-1.25,7.47,7.47,0,0,1,1.29-2.5,5.58,5.58,0,0,1,2-1.55,6.06,6.06,0,0,1,2.73-.38l3.34,0a1.78,1.78,0,0,1,.56.06,3.94,3.94,0,0,1,.59.28c1.28.64,2.71.11,4,.1l3.48,0h2.08l.61,0a5.61,5.61,0,0,1,1.85.43,6,6,0,0,1,2.59,2.16,5.73,5.73,0,0,1,.76,1.69,4.72,4.72,0,0,1,.15,1l0,1.59a19.44,19.44,0,0,1-.16,2.88c-.41,2.33-.08,3.11-.08,5.47,0,1.39-.06,3.19-.09,4.79v.88l0,.2a5.09,5.09,0,0,1-.06.71c-.07.43-.15.77-.18,1a4,4,0,0,1-1.48,2.29,5.24,5.24,0,0,1-1.46.82,4.1,4.1,0,0,1-1.15.24.83.83,0,0,0-.82.58A1.45,1.45,0,0,0,37.77,43.62Z"/><path class="cls-1" d="M33.82,35.42a13.27,13.27,0,0,1,0,1.46c-.07.59.07,1.3.65,1.06a8.85,8.85,0,0,0,1.8-.69,3.87,3.87,0,0,0,1.51-1.43,5.23,5.23,0,0,0,.7-2.33c0-.32,0-.41,0-.62l0-.53a8.88,8.88,0,0,0-.09-1c-.17-1.13.12-2.28,0-3.41,0-.32.17-.61.17-.92,0-.12-.06-.5-.11-.9l-.07-.59c0-.26,0-.52-.08-.67a4.28,4.28,0,0,0-1.6-2.77,5.14,5.14,0,0,0-1.9-.92,2.63,2.63,0,0,0-.62-.13,3.52,3.52,0,0,0-.55,0l-.85,0c-1.49,0-3-.28-4.52-.34-.46,0-.91,0-1.36,0-.22,0-.45,0-.68,0l-.43.06a3.1,3.1,0,0,0-.51.11,5.29,5.29,0,0,0-2.88,1.87,4.69,4.69,0,0,0-.89,2.1c0,.19,0,.37-.05.56v.36l0,.65,0,0c-.14.38.07,4.48,0,4.95,0,.23-.08.93-.1,1.69a4.53,4.53,0,0,0,.3,1.74,4.07,4.07,0,0,0,.79,1.3,7.24,7.24,0,0,0,1.31,1.1,3.13,3.13,0,0,1,.46.33,2.3,2.3,0,0,0,1.31.4,4.17,4.17,0,0,0,.65,0,2.1,2.1,0,0,1,.43,0c1.46.1,2.57-.31,4,0,.42.08,1,.17,1.27-.2A5.37,5.37,0,0,0,32,35c-.11-.8-1.26-.49-1.48-.37s-1.53-.09-2.31-.07a10.65,10.65,0,0,1-1.48-.08l-.38,0a2.4,2.4,0,0,1-.31,0l-.28-.08c-.15,0-.39,0-.59-.09A1,1,0,0,1,25,34c-.06-.16-.11-.31-.16-.46a2.72,2.72,0,0,1-.12-.71,18.28,18.28,0,0,1-.18-2.76c0-.88.07-1.78.13-2.68l.09-1.36,0-.34a2.33,2.33,0,0,1,0-.27,1.06,1.06,0,0,1,.09-.25,4.39,4.39,0,0,1,.31-.71,1.52,1.52,0,0,1,.56-.53.55.55,0,0,1,.22-.06,2.18,2.18,0,0,1,.39,0,8.12,8.12,0,0,1,.85.07l1.7.23a32.51,32.51,0,0,0,3.42,0h1.23a2,2,0,0,1,.38,0,1,1,0,0,1,.25.07,1.72,1.72,0,0,1,.79.56,1.64,1.64,0,0,1,.26.49,6.81,6.81,0,0,1,.08,1.12,5.2,5.2,0,0,1-.11,1.28,6.62,6.62,0,0,0-.06,2.43c0,.62,0,1.42-.06,2.13,0,.36,0,.71,0,1a.78.78,0,0,0,0,.29.87.87,0,0,1-.32.75,1.11,1.11,0,0,1-.78.31C33.8,34.57,33.82,35.42,33.82,35.42Z"/><path class="cls-1" d="M36.69,10.51s2.13.09,2-.26a10.39,10.39,0,0,1-.43-2.53,11.69,11.69,0,0,0,.07-2.56c-.16-.4-.16-.4-1.07-.42a5.19,5.19,0,0,0-2.07.17c-.14.19.08,2.19,0,2.42a5.82,5.82,0,0,0,0,1.86c.13.51-.05.72-.05.72v.51A10.07,10.07,0,0,0,36.69,10.51Z"/><path class="cls-1" d="M29.75,10.51s2.14.09,2-.26a10.38,10.38,0,0,1-.42-2.53,12.34,12.34,0,0,0,.07-2.56c-.17-.4-.17-.4-1.07-.42a5.16,5.16,0,0,0-2.07.17c-.15.19.07,2.19,0,2.42a5.82,5.82,0,0,0-.05,1.86.84.84,0,0,1-.06.72v.51A10.14,10.14,0,0,0,29.75,10.51Z"/><path class="cls-1" d="M22.81,10.51s2.14.09,2-.26a9.93,9.93,0,0,1-.43-2.53,11.69,11.69,0,0,0,.07-2.56c-.17-.4-.17-.4-1.07-.42a5.16,5.16,0,0,0-2.07.17c-.14.19.07,2.19,0,2.42a5.82,5.82,0,0,0,0,1.86.84.84,0,0,1-.06.72v.51A10.14,10.14,0,0,0,22.81,10.51Z"/><path class="cls-1" d="M36.69,54s2.13.09,2-.25a10.56,10.56,0,0,1-.43-2.53,11.7,11.7,0,0,0,.07-2.56c-.16-.4-.16-.4-1.07-.43a4.94,4.94,0,0,0-2.07.18c-.14.18.08,2.18,0,2.41a5.87,5.87,0,0,0,0,1.87c.13.51-.05.71-.05.71v.51A10.07,10.07,0,0,0,36.69,54Z"/><path class="cls-1" d="M29.75,54s2.14.09,2-.25a10.54,10.54,0,0,1-.42-2.53,12.36,12.36,0,0,0,.07-2.56c-.17-.4-.17-.4-1.07-.43a4.92,4.92,0,0,0-2.07.18c-.15.18.07,2.18,0,2.41a5.87,5.87,0,0,0-.05,1.87c.12.51-.06.71-.06.71v.51A10.14,10.14,0,0,0,29.75,54Z"/><path class="cls-1" d="M22.81,54s2.14.09,2-.25a10.08,10.08,0,0,1-.43-2.53,11.7,11.7,0,0,0,.07-2.56c-.17-.4-.17-.4-1.07-.43a4.92,4.92,0,0,0-2.07.18c-.14.18.07,2.18,0,2.41a5.87,5.87,0,0,0,0,1.87c.12.51-.06.71-.06.71v.51A10.14,10.14,0,0,0,22.81,54Z"/><path class="cls-1" d="M11.07,22.65s.09-2.14-.26-2a10.39,10.39,0,0,1-2.53.43A11.69,11.69,0,0,0,5.72,21c-.4.17-.4.17-.42,1.07a5.16,5.16,0,0,0,.17,2.07c.18.14,2.19-.07,2.42,0a5.82,5.82,0,0,0,1.86.05.84.84,0,0,1,.72.06H11A9.1,9.1,0,0,0,11.07,22.65Z"/><path class="cls-1" d="M11.07,29.58s.09-2.13-.26-2A10.39,10.39,0,0,1,8.28,28a11.71,11.71,0,0,0-2.56-.08c-.4.17-.4.17-.42,1.08a5.19,5.19,0,0,0,.17,2.07c.18.14,2.19-.08,2.42,0a5.82,5.82,0,0,0,1.86.05c.51-.13.72.05.72.05H11A9,9,0,0,0,11.07,29.58Z"/><path class="cls-1" d="M11.07,36.52s.09-2.14-.26-2A10.38,10.38,0,0,1,8.28,35a12.34,12.34,0,0,0-2.56-.07c-.4.17-.4.17-.42,1.07A5.16,5.16,0,0,0,5.47,38c.18.14,2.19-.07,2.42,0a5.82,5.82,0,0,0,1.86,0,.84.84,0,0,1,.72.06H11A9,9,0,0,0,11.07,36.52Z"/><path class="cls-1" d="M54.59,22.65s.09-2.14-.25-2a10.55,10.55,0,0,1-2.54.43A11.6,11.6,0,0,0,49.25,21c-.4.17-.4.17-.43,1.07A5.16,5.16,0,0,0,49,24.15c.19.14,2.19-.07,2.42,0a5.87,5.87,0,0,0,1.87.05.82.82,0,0,1,.71.06h.51A10.21,10.21,0,0,0,54.59,22.65Z"/><path class="cls-1" d="M54.59,29.58s.09-2.13-.25-2A10.55,10.55,0,0,1,51.8,28a11.62,11.62,0,0,0-2.55-.08c-.4.17-.4.17-.43,1.08A5.19,5.19,0,0,0,49,31.09c.19.14,2.19-.08,2.42,0a5.87,5.87,0,0,0,1.87.05.8.8,0,0,1,.71.05h.51A10.07,10.07,0,0,0,54.59,29.58Z"/><path class="cls-1" d="M54.59,36.52s.09-2.14-.25-2A10.54,10.54,0,0,1,51.8,35a12.25,12.25,0,0,0-2.55-.07c-.4.17-.4.17-.43,1.07A5.16,5.16,0,0,0,49,38c.19.14,2.19-.07,2.42,0a5.87,5.87,0,0,0,1.87,0,.82.82,0,0,1,.71.06h.51A10.14,10.14,0,0,0,54.59,36.52Z"/></svg>