<svg id="Pieces" xmlns="http://www.w3.org/2000/svg" viewBox="0 0 35 35"><defs><style>.cls-1{fill:#792f6c;}</style></defs><path id="Vimeo" class="cls-1" d="M28.53,4.2Q22,4,19.73,11.39a5.93,5.93,0,0,1,2.3-.48c1.59,0,2.28.87,2.1,2.62A11.92,11.92,0,0,1,22,18.16c-1.3,2-2.28,3-2.93,3q-1.26,0-2.3-4.7-.36-1.38-1.26-7Q14.7,4.2,11.07,4.54c-1,.1-2.56,1-4.61,2.77-1.49,1.33-3,2.67-4.54,4l1.47,1.87a9.64,9.64,0,0,1,2.44-1.45q1.61,0,3,5,1.25,4.56,2.51,9.12c1.26,3.32,2.79,5,4.61,5q4.39,0,10.75-8.16,6.15-7.8,6.35-12.3Q33.35,4.34,28.53,4.2Z"/></svg>