<svg id="Pieces" xmlns="http://www.w3.org/2000/svg" viewBox="0 0 60 60"><defs><style>.cls-1{fill:#792f6c;}</style></defs><path class="cls-1" d="M38,33.85a2.2,2.2,0,1,0-1.75-2.57A2.2,2.2,0,0,0,38,33.85Z"/><path class="cls-1" d="M21.79,33.85A2.2,2.2,0,1,0,20,31.28,2.19,2.19,0,0,0,21.79,33.85Z"/><path class="cls-1" d="M29.29,38.54a3.49,3.49,0,0,1-.74,1.25,3.76,3.76,0,0,1-1.28.94,3,3,0,0,1-.88.24,4,4,0,0,1-1.67-.16A4.29,4.29,0,0,1,23,39.71a2.17,2.17,0,0,1-.69-1.26,3.78,3.78,0,0,1-.2-1,2.08,2.08,0,0,0-1-.18,1.94,1.94,0,0,0-.63,0,.6.6,0,0,0-.5.81,6.4,6.4,0,0,0,.49,1.47,6.06,6.06,0,0,0,1.46,1.89A5.89,5.89,0,0,0,24,42.58a8.52,8.52,0,0,0,3.59,0,5.79,5.79,0,0,0,1.7-.89,5.32,5.32,0,0,0,1.28-1.37,5.78,5.78,0,0,0,1,1.08,6,6,0,0,0,1.74,1s.32.3,1.86.4a5.58,5.58,0,0,0,3.75-1.13,5.49,5.49,0,0,0,1.54-1.82,4.64,4.64,0,0,0,.48-1.35,2.18,2.18,0,0,0,0-1.08c-.07-.16-.21-.18-.47-.21-.54-.07-1.16,0-1.26.34a4.42,4.42,0,0,1-1,2.18,3.76,3.76,0,0,1-1.28.94A3.11,3.11,0,0,1,36,41a4,4,0,0,1-1.67-.16,4.29,4.29,0,0,1-1.76-1.1,2.47,2.47,0,0,1-.65-1.05S31.67,37,30.67,37,29.29,38.54,29.29,38.54Z"/><path class="cls-1" d="M31.92,38.67A7.42,7.42,0,0,0,33.68,36c.35-.92-.85-1.8-2.69-2s-3.6.42-3.95,1.34c-.21.56.31,1.29.62,1.7A10.84,10.84,0,0,0,29,38.41c.39.36.77.85,1.34.93A2,2,0,0,0,31.92,38.67Z"/><path class="cls-1" d="M33.26,41.46a3,3,0,0,1-.13.35c-.53,2.39-4.09,2.73-5.2.68a5.84,5.84,0,0,0-.36-.87l-1.95.24a.78.78,0,0,0,0,.19c1.23,5.16,8.29,5.52,9.46-.19Z"/><path class="cls-1" d="M55.88,41a12.53,12.53,0,0,0-2-2.43,18.81,18.81,0,0,0-2.54-1.87,14.32,14.32,0,0,0-2.86-1.43,13.9,13.9,0,0,0-2.92-.77c-1-.07-1,0-1.11.48s-.13,1.15.23,1.28c.18.06,1.36.25,2.51.61a12.59,12.59,0,0,1,2.46,1,15.24,15.24,0,0,1,1.48,1,9.6,9.6,0,0,1,.92.74c.3.24.54.49.73.67a3.61,3.61,0,0,1,.72.88,2.33,2.33,0,0,1,.17.31c.2.28.35.6.53.9.23.08.76-.16,1-.25C55.12,42.08,56.39,41.72,55.88,41Z"/><path class="cls-1" d="M52.5,45.28a18.07,18.07,0,0,0-1.78-2.6,14.56,14.56,0,0,0-2.23-2.29A13.4,13.4,0,0,0,46,38.7c-.91-.38-.94-.37-1.21.09s-.5,1-.2,1.29,1.2.68,2.17,1.39a12,12,0,0,1,2,1.76,16.69,16.69,0,0,1,1.08,1.4,8.31,8.31,0,0,1,.62,1,7.87,7.87,0,0,1,.47.87,4.07,4.07,0,0,1,.4,1.07,1.82,1.82,0,0,1,0,.34c.1.34.13.69.2,1a2,2,0,0,0,1,.08s1.31.08,1.07-.78A12.44,12.44,0,0,0,52.5,45.28Z"/><path class="cls-1" d="M15.16,34.24a12.41,12.41,0,0,0-2.85.64,20.72,20.72,0,0,0-2.78,1.17,9.56,9.56,0,0,0-1.79,1A8,8,0,0,0,6.63,38a6.47,6.47,0,0,0-.83.86c-.42.49-.68.86-.87,1.09s-.28.32-.28.32A12.37,12.37,0,0,0,4,41.34c0,.26.55.53.75.63,0,0,1.06.72,1.33.07a8.23,8.23,0,0,1,1.44-2.21A9.2,9.2,0,0,1,9.64,38.1a14.86,14.86,0,0,1,2.61-1.17c1.16-.41,2.34-.66,2.63-.74.85-.25.83-.22.83-.77S15.64,34.26,15.16,34.24Z"/><path class="cls-1" d="M14.57,38.27a12.13,12.13,0,0,0-2.48,1.55,21,21,0,0,0-2.24,2A11.57,11.57,0,0,0,8.5,43.39a8.88,8.88,0,0,0-.75,1.2,7.07,7.07,0,0,0-.5,1.09c-.24.6-.36,1-.46,1.31s-.17.39-.17.39c-.11.42-.16.85-.25,1.27.12.23.7.32.92.35,0,0,1.24.33,1.28-.38a8.34,8.34,0,0,1,.64-2.55,9.38,9.38,0,0,1,1.42-2.34,17.06,17.06,0,0,1,2.08-2c1-.77,2-1.39,2.24-1.56.72-.52.72-.49.54-1S15,38.13,14.57,38.27Z"/><path class="cls-1" d="M48.05,19.17a3.21,3.21,0,0,0-.52-.81c-.29-.23-1.8-1.24-2.31-1.56s-1-.4-1.3-.82c-.74-1-3.36-1.59-3.36-1.59a15.4,15.4,0,0,0-2.09-.67l-.75-.23L37,13.3c-.51-.13-1-.28-1.52-.43a13.92,13.92,0,0,0-3.11-.61,11.9,11.9,0,0,0-1.88-.09,11.65,11.65,0,0,0-1.86.31,9.54,9.54,0,0,1-1.27.18c-.55.06-1.19.21-1.86.32s-1.4.19-2.06.37l-1.84.51-.07,0a3.78,3.78,0,0,0-1.17.34l-1.23.57a5.8,5.8,0,0,0-3,1.71l-.82.53a20,20,0,0,0-2,1.39c-.54.51-1.13,1.05-1.57,1.54A30.64,30.64,0,0,0,9.24,23c-.2.37-.36.76-.57,1.09-1.15,1.69-1.38,3.26-2.32,5-.28.52-.58,1.3-.32,1.77s1.64.74,2.59.9.93-1,1.09-1.59A13.58,13.58,0,0,1,11,27.89a7.77,7.77,0,0,1,1-1.42c.37-.47.81-.89,1.16-1.33a3.32,3.32,0,0,0,.41-.68,7.65,7.65,0,0,1,.43-.67l.5-.42c.32-.29.7-.55,1-.86s.65-.66,1-1,.79-.74,1.19-1.08a6.69,6.69,0,0,1,1.36-.86,16.23,16.23,0,0,1,2.88-1.17,11.45,11.45,0,0,1,1.54-.35c.51-.1,1-.23,1.52-.29a9.44,9.44,0,0,0,2.11-.53,5.92,5.92,0,0,1,1-.32l.76-.19a5.79,5.79,0,0,1,2-.09c.68.14,1.34.32,2,.45a8.36,8.36,0,0,0,1,.12c.33.07.65.12,1,.16a18.52,18.52,0,0,1,2,.29l1.34.44a8.66,8.66,0,0,1,1.32.48c.37.17.75.33,1.13.48l.59.22.55.28,1.2.58a8,8,0,0,1,1.24.84c.22.17.44.35.62.52a3.58,3.58,0,0,1,.39.55,3.36,3.36,0,0,0,.86,1.1c.28.29.59.56,1,1,.91,1.12,1.92,3.19,2.35,3.71a11.05,11.05,0,0,1,1.52,3.82c.11.72.91.44.92.46A10.88,10.88,0,0,1,53.29,32c.6,0,1.26-.31,1-.79s-.54-2.84-.89-3.46l-.83-2a12.17,12.17,0,0,0-1.44-2.45,8.62,8.62,0,0,1-.63-.91C50.35,20.75,48.05,19.17,48.05,19.17Z"/><path class="cls-1" d="M50.51,23.35a1.15,1.15,0,0,0,.4-.57,23.76,23.76,0,0,0,1.16-5.44,10.86,10.86,0,0,0-.23-3.64l-.13-.43c-.05-.14-.13-.29-.19-.42s-.13-.27-.21-.4l-.3-.37-.28-.33-.31-.22a3.2,3.2,0,0,0-.52-.32A4,4,0,0,0,47.72,11a4.8,4.8,0,0,0-.85.21,12.65,12.65,0,0,0-3.23,1.65,21.37,21.37,0,0,0-3.08,2.54l3.16,1.47c.27-.24.54-.47.83-.7a14,14,0,0,1,2.33-1.59,4.33,4.33,0,0,1,1.29-.5,1.63,1.63,0,0,0,.28,0c.07,0,.2,0,.18,0a0,0,0,0,1,0,0s0,.09.08.26A5.22,5.22,0,0,1,48.86,16a15,15,0,0,1-.13,1.66,8,8,0,0,1-.44,2,4.32,4.32,0,0,1-.24.55Z"/><path class="cls-1" d="M19.1,15.75c-.44-.4-.92-.8-1.42-1.18a19.2,19.2,0,0,0-2.91-1.87,11.06,11.06,0,0,0-2.09-.81L12,11.74a5.43,5.43,0,0,0-.59,0,2.47,2.47,0,0,0-.77.1A3.1,3.1,0,0,0,9,12.74a5.07,5.07,0,0,0-.63.81,5.93,5.93,0,0,0-.37.82,8,8,0,0,0-.33,2.88,11.79,11.79,0,0,0,.29,2.13c.26,1.09.44,1.85.56,2.34s.15.73.15.73A16,16,0,0,0,9.24,24l2.55-3.08A15.54,15.54,0,0,1,11,18.1a7.35,7.35,0,0,1-.08-2.57c.17-.65.26-.63.36-.68a1.29,1.29,0,0,1,.26,0,.93.93,0,0,1,.33.05,2.13,2.13,0,0,1,.45.13,11.47,11.47,0,0,1,2.44,1.37c.48.34.93.7,1.35,1.05Z"/></svg>