<svg id="Pieces" xmlns="http://www.w3.org/2000/svg" viewBox="0 0 35 35"><defs><style>.cls-1{fill:#792f6c;}</style></defs><path class="cls-1" d="M17.94,1.18c-8.94,0-13.7,5.73-13.7,12,0,2.9,1.62,6.52,4.21,7.66.4.18.61.11.7-.26s.42-1.61.58-2.24a.57.57,0,0,0-.14-.57,7.45,7.45,0,0,1-1.54-4.51c0-4.36,3.47-8.59,9.36-8.59,5.1,0,8.67,3.31,8.67,8,0,5.35-2.83,9.06-6.51,9.06a2.92,2.92,0,0,1-3.08-3.58c.58-2.36,1.72-4.89,1.72-6.59a2.53,2.53,0,0,0-2.62-2.78c-2.07,0-3.75,2-3.75,4.81a6.83,6.83,0,0,0,.62,2.93S10.4,24.84,10,26.39c-.64,2.62.09,6.87.15,7.23a.21.21,0,0,0,.39.1,25.06,25.06,0,0,0,3.38-6.36c.26-.93,1.29-4.71,1.29-4.71A5.67,5.67,0,0,0,20,24.92c6.25,0,10.77-5.5,10.77-12.31,0-6.54-5.62-11.43-12.82-11.43Zm0,0"/></svg>