<svg id="Pieces" xmlns="http://www.w3.org/2000/svg" viewBox="0 0 60 60"><defs><style>.cls-1{fill:#792f6c;}</style></defs><path class="cls-1" d="M50.16,20.5c-1.1-.74-1.86-1.25-2.37-1.55s-.73-.5-.74-.51a7.2,7.2,0,0,0-1.92-1c-.69-.22-1.38-.41-2-.66a27.43,27.43,0,0,0-5.85-1.3c-4.9-.7-9.5-1.5-14.41-.17-.59.17-2.05.42-3.69.86-.82.22-1.67.51-2.48.79a18.29,18.29,0,0,0-2.19,1c-.61.34-1.24.63-1.86,1l-.93.52-.91.59A14.88,14.88,0,0,0,9,21.41c-.28.25-.53.54-.79.82-.13.13-.25.26-.37.4A24.89,24.89,0,0,0,10,25.94a1.62,1.62,0,0,1,.27-.35,11.8,11.8,0,0,1,.85-.93c.26-.27.45-.54.72-.77s.47-.52.77-.78.65-.55,1.11-.86a21.53,21.53,0,0,1,4.08-2c.72-.27,1.43-.48,2-.69a12.34,12.34,0,0,0,1.35-.43,7.23,7.23,0,0,1,1.45-.4,15.4,15.4,0,0,1,2.24-.33,17.72,17.72,0,0,1,3.93.06c3.27.6,6.44-.07,9.75.67a24.61,24.61,0,0,1,6,2.42l1.26.62a6.27,6.27,0,0,1,1.22.68,5.43,5.43,0,0,1,.82.76,12.48,12.48,0,0,1,1.89,2.45A15.08,15.08,0,0,0,52,22.11,11.16,11.16,0,0,0,50.16,20.5Z"/><path class="cls-1" d="M54.65,28A8.72,8.72,0,0,0,53.9,25,11,11,0,0,0,52,22.11a15.08,15.08,0,0,1-2.32,3.95,6.73,6.73,0,0,1,.49,1,4.27,4.27,0,0,1-.67,4.29,11.4,11.4,0,0,1-4.08,3.14,23.82,23.82,0,0,1-5.32,1.8c-.54.12-1.17.26-1.81.47s-1.35.35-2,.55l-1.88.48-1.4.28a20.21,20.21,0,0,1-7.35-.5,56.21,56.21,0,0,1-7.15-1.44A24.18,24.18,0,0,1,13.87,34a13.18,13.18,0,0,1-3.2-2.6l-.34-.39-.26-.42-.26-.43-.18-.45c-.05-.12-.12-.26-.17-.42s-.06-.34-.09-.52a4.6,4.6,0,0,1,0-1.18A5.23,5.23,0,0,1,10,25.94a24.89,24.89,0,0,1-2.14-3.31c-.12.16-.24.33-.35.51-.24.37-.55.66-.8,1A9.58,9.58,0,0,0,6,25.28,8.59,8.59,0,0,0,5.49,28,9.25,9.25,0,0,0,5.91,31a11,11,0,0,0,3.28,5c.34.29.66.59,1,.83l.87.63c.52.39.93.61,1.13.76s.59.41.89.61.64.33,1,.48a19.32,19.32,0,0,0,2,.83,42.18,42.18,0,0,0,10.75,3,24.76,24.76,0,0,0,3.33.16A19.4,19.4,0,0,0,33.35,43c1-.2,3.17-.42,5.55-1a33.6,33.6,0,0,0,6.79-2.22h.12a16.93,16.93,0,0,0,5.26-3.55,7.16,7.16,0,0,0,.79-.85c.25-.3.5-.58.72-.89a11.59,11.59,0,0,0,1.1-1.88l.37-.86c.1-.28.16-.55.22-.78.12-.46.23-.79.25-1s.06-.45.1-.79A5.14,5.14,0,0,0,54.65,28Z"/><path class="cls-1" d="M45.35,26.42a23.92,23.92,0,0,1-5.23,2c-.54.14-1.16.31-1.81.53s-1.35.39-2,.61l-1.89.5c-.57.13-1.06.22-1.4.29A21.81,21.81,0,0,1,25.58,30a47.13,47.13,0,0,1-7.24-1.46,23.63,23.63,0,0,1-4.68-2.2,13.24,13.24,0,0,1-3.22-2.77l-.29-.36A8.48,8.48,0,0,0,8,26.35a13.62,13.62,0,0,0,1.43,1.49c.34.28.65.57,1,.8l.87.61c.51.38.92.6,1.11.74s.59.39.89.58l.95.47a20.22,20.22,0,0,0,1.93.81,43.37,43.37,0,0,0,10.65,2.9A27.8,27.8,0,0,0,30,35a21.39,21.39,0,0,0,3.29-.29c1-.17,3.15-.34,5.54-.83a36.47,36.47,0,0,0,6.83-2h.12a17.09,17.09,0,0,0,5.42-3.39,3.92,3.92,0,0,0,.37-.34,13.16,13.16,0,0,0-2.52-4.75A11.05,11.05,0,0,1,45.35,26.42Z"/><path class="cls-1" d="M55.14,20a7.85,7.85,0,0,0-1-3.13A10.88,10.88,0,0,0,52,14.3c-.38-.33-.73-.67-1.07-.93L50,12.68c-1.08-.73-1.83-1.25-2.33-1.55s-.72-.49-.73-.5a8.46,8.46,0,0,0-1.89-1c-.68-.23-1.37-.44-2-.71-3.35-1.28-6-1.42-9.45-2.2a11.94,11.94,0,0,0-2.18-.13c-1.83-.32-3.58.16-5.4.36a27.66,27.66,0,0,0-3.19.38c-.59.15-2.06.39-3.7.84-.81.22-1.67.51-2.48.8a18.76,18.76,0,0,0-2.18,1c-.61.34-1.24.64-1.84,1l-.93.52-.9.6a13.27,13.27,0,0,0-4,4.11,8.9,8.9,0,0,0-.66,1.12A8.71,8.71,0,0,0,5.68,20a9,9,0,0,0,.45,3A9.68,9.68,0,0,0,8,26.35a8.62,8.62,0,0,1,2.15-3.08,5.63,5.63,0,0,1-.92-3.67,4.58,4.58,0,0,1,1-2.08c.34-.36.59-.67.88-.93a17.54,17.54,0,0,1,2.65-2.37,22.32,22.32,0,0,1,4.1-2c.73-.26,1.43-.47,2-.67a13.12,13.12,0,0,0,1.34-.44,8.41,8.41,0,0,1,1.46-.4,18.16,18.16,0,0,1,2.22-.39,43.47,43.47,0,0,1,13.69.75,23.43,23.43,0,0,1,6.05,2.25c.44.2.86.41,1.29.62a6.71,6.71,0,0,1,1.23.69,4.75,4.75,0,0,1,.84.77,7.36,7.36,0,0,1,1.94,3.74,5,5,0,0,1-.65,4l-.12.14a13.16,13.16,0,0,1,2.52,4.75c.16-.16.31-.32.46-.49s.53-.58.77-.89A11.64,11.64,0,0,0,54,24.8,8.72,8.72,0,0,0,55.14,20Z"/><path class="cls-1" d="M33.12,45.59a6,6,0,0,0-2.88-1.05,6.81,6.81,0,0,0-.95,0,5.3,5.3,0,0,0-2.65,1.11c-.2.52.48,1.24.73,1.5,0,.06,1.39,1.57,1.77,1.16a1.39,1.39,0,0,1,.86-.34,1.84,1.84,0,0,1,1.46.54A2,2,0,0,1,32,50a1.72,1.72,0,0,1-.43,1,2.28,2.28,0,0,1-1,.62,2.09,2.09,0,0,1-1.69-.22A2.06,2.06,0,0,1,28,50.13a2.76,2.76,0,0,1,0-1c.06-.46.2-.66.18-.85s-.17-.36-.46-.7c-.58-.68-1.33-1.48-2.09-.71a4.64,4.64,0,0,0-.88,2.21,5.18,5.18,0,0,0,5.08,5.85,5.53,5.53,0,0,0,2.44-.53,5,5,0,0,0,1.46-1,5.13,5.13,0,0,0,1.07-5.71A4.86,4.86,0,0,0,33.12,45.59Z"/></svg>