<svg id="Pieces" xmlns="http://www.w3.org/2000/svg" viewBox="0 0 24 24"><defs><style>.cls-1{fill:#792f6c;}</style></defs><path class="cls-1" d="M13.13,17.37A16.09,16.09,0,0,0,15,16c.38-.48,2.91-2.86,3.79-3.93.4-.5,1.26-.87,1.94-1.75s1.59-1,.68-2L20.08,6.78c-.87-1.6-1.67-.24-1.67-.24A27.56,27.56,0,0,1,16,9.21a29.14,29.14,0,0,0-3.36,3c-.23.39-1.52,1.53-1.44,2a5.14,5.14,0,0,0,1.68,3C13,17.3,13.05,17.37,13.13,17.37Z"/><path class="cls-1" d="M14.07,16.63a1,1,0,0,1-.3.33c-.47.36-1.91,2.28-2.52,1.36C11,18,10.47,17.27,9.9,16.6l-.28-.28A1.68,1.68,0,0,1,9.38,16a5.91,5.91,0,0,0-.88-.83c-.6-.35-.85-.87-1.83-2s-3-3-3-3S1.68,9,2.5,8.25L4.61,6.38c1-.91,1.14,0,2,.69S7.5,8.11,8,8.52a20.72,20.72,0,0,1,2.71,2.83c.82,1,1.72,1.92,2.46,3a7.34,7.34,0,0,1,.7,1.18C14.06,15.94,14.23,16.29,14.07,16.63Z"/></svg>