<svg id="Pieces" xmlns="http://www.w3.org/2000/svg" viewBox="0 0 60 60"><defs><style>.cls-1{fill:#792f6c;}</style></defs><path class="cls-1" d="M53.84,27.51a18.57,18.57,0,0,1-2.33,0c-1-.09-2.06.08-1.79.73s-.14,3.69,0,4.59a3.93,3.93,0,0,1,0,.59c0,.18,0,.09,0,.13v0s0,.11,0,.18a.48.48,0,0,0-.22.17s-.13,0-.26,0l-.38,0-.76,0c-.51,0-1,0-1.53-.06a34.06,34.06,0,0,0-5.79-.2l-.26,0h-.13l-.26,0c-1.36.08-2.71.16-3.42.16H35c0,1,0,2.13,0,3.19,0,.53,0,1,0,1.55s0,.75,0,1.1c0,1,.07,1.81,0,2.11a20.57,20.57,0,0,0,0,3,29.27,29.27,0,0,1-.13,3.23l0,.2a.74.74,0,0,1,0,.12l0,.06a.24.24,0,0,1-.08.09.24.24,0,0,1-.15,0,.77.77,0,0,1-.16-.11l-.05,0H33.47a17.87,17.87,0,0,0-2.42.24,21.09,21.09,0,0,1-2.71.14h-1A2,2,0,0,1,27,49c0-.16,0-.3.07-.39h0s0,0,0,0l0-.34c0-.26,0-.61,0-1,0-.8,0-1.81,0-2.82,0-2-.1-4.07,0-4.49l0-.21v-.14l0-.24c0-.43,0-.95,0-1.53,0-1.18.05-2.62.07-4.07H23.62l-1.65,0c-2.18.06-4.45.16-6.61,0-2.61-.16-4.58.48-7.18,0-.76-.13-1.81-.27-2.28.3s-.49,2.68-.23,4.36c.2,1.28,2.26.78,2.66.6s2.72.15,4.12.1c1.72,0,3.58.3,5.34.29.8,0,1.61-.27,2.41-.34l1,.1.36,0,0,0,0,0s.05,0,.12,0h.08a.19.19,0,0,1,.13.07c0,.1.07-.06.09.5,0,.79.08,1.59.06,2.43s-.53,12.11-.47,12.11l.88,0c.9,0,2,0,3.15,0l1.72-.08c.37,0,.61-.06.91-.1l2.77-.41a12.37,12.37,0,0,1,3,0l.38,0c.11,0,.42,0,.63,0l1.41.1,3,.19.74,0c.18-4.27,0-8.58,0-12.86,0-.63,0-1.34,0-1.9l-.11-.26L40,39l.12-.08a.52.52,0,0,1,.18-.07l.13,0h.51a10,10,0,0,1,2.28.18c2.22.56,5,.1,7.27.15l4.71.06a31.24,31.24,0,0,0-.12-3.43c-.07-.47-.11-1.34-.14-2.25,0-.54,0-1.18,0-1.83,0-1.29.09-2.6.16-3.17C55.21,27.36,53.84,27.51,53.84,27.51Z"/><path class="cls-1" d="M7.16,31.49a17.41,17.41,0,0,1,2.33,0c1,.08,2.06-.09,1.79-.73s.14-3.65,0-4.54a4,4,0,0,1,0-.6,1.28,1.28,0,0,0,0-.18v0a1.28,1.28,0,0,0,0-.19.45.45,0,0,0,.2-.17l0,0h.1l.37,0,.76,0c.5,0,1,0,1.51.06a20.32,20.32,0,0,0,3,0c.57-.05,1.07.27,1.61.27,1.64,0,3.26-.32,4.9-.33H26c0-1.93-.09-4-.12-5.65,0-.94-.07-1.68,0-2a20,20,0,0,0,0-3A30.3,30.3,0,0,1,26,11l0-.43c0-.14,0-.07.05-.12a.3.3,0,0,1,.08-.08.21.21,0,0,1,.16,0l.11.07.06,0H27a17.43,17.43,0,0,0,2.39-.24,21.24,21.24,0,0,1,3-.14h1.29L34,10l-.06.3,0,0a.12.12,0,0,0-.06.06,5.83,5.83,0,0,0,0,.73c0,.79,0,1.78,0,2.78,0,2,.1,4,0,4.44a5.92,5.92,0,0,0-.05.64l0,.46,0,1c0,1.47-.06,3.24-.06,4.87,3.68,0,7.44-.3,11.07-.07,2.59.16,4.53-.48,7.1-.05.75.13,1.79.27,2.26-.3s.48-2.68.22-4.36c-.19-1.28-2.23-.78-2.62-.6s-2.7-.15-4.08-.1c-1.7.05-3.54-.3-5.27-.29-.8,0-1.59.27-2.39.34-.37,0-.9-.13-.94-.57l0-.3,0-.6c-.06-.8-.08-1.6-.06-2.45,0-1.37.1-2.79.17-4.21l.06-1.07,0-.79,0-1c0-1.41.09-2.82.13-4.21l-2-.07c-.9,0-2,0-3.11,0l-.42,0h-.33L33,4.7l-.87.1-2.73.41a11.73,11.73,0,0,1-3,0l-5.63-.37V5c-.05.91-.08,1.87-.08,2.84V9.29l0,1.32c0,1,.09,2,.09,3L20.79,18v1l0,.48a.92.92,0,0,0,0,.15l.11.27L21,20l-.15.1a.52.52,0,0,1-.18.07.68.68,0,0,1-.19,0h-.64A9.74,9.74,0,0,1,17.58,20c-1.84-.47-2.45-.09-4.31-.09l-2.88-.06-4.58-.06a34,34,0,0,0,.12,3.59c0,.23.06.56.09.94s0,.77.05,1.22,0,1.17,0,1.81c0,1.27-.09,2.57-.16,3.14C5.79,31.64,7.16,31.49,7.16,31.49Z"/></svg>