<svg id="Pieces" xmlns="http://www.w3.org/2000/svg" viewBox="0 0 35 35"><defs><style>.cls-1{fill:#fff;}</style></defs><path class="cls-1" d="M17.5,33.56A16.06,16.06,0,1,0,1.44,17.5,16.06,16.06,0,0,0,17.5,33.56ZM24,25.07h0c-1.08,0-4.49-3.78-14.08-1.82a3.73,3.73,0,0,1-.77.17A1.06,1.06,0,0,1,9,21.31c5.3-1.17,10.72-1.07,15.35,1.7A1.08,1.08,0,0,1,24,25.07Zm1.75-4.25c-.15,0-.11.1-.8-.27a21,21,0,0,0-15.46-1.9,2.82,2.82,0,0,1-.77.17,1.32,1.32,0,0,1-.25-2.6,23.46,23.46,0,0,1,17.8,2.06A1.36,1.36,0,0,1,27,19.56a1.25,1.25,0,0,1-1.25,1.26ZM7.52,10.8C13.58,9,22.74,9.59,28.44,12.92a1.57,1.57,0,0,1-.67,3h0a1.46,1.46,0,0,1-.83-.26c-4.61-2.75-12.86-3.41-18.2-1.92a2.83,2.83,0,0,1-.83.17A1.49,1.49,0,0,1,6.4,12.35,1.53,1.53,0,0,1,7.52,10.8Zm0,0"/></svg>