<svg id="Pieces" xmlns="http://www.w3.org/2000/svg" viewBox="0 0 60 60"><defs><style>.cls-1{fill:#fff;}</style></defs><path class="cls-1" d="M55.59,28.24l-.24-.32s0,0,0,0l-.06-.08-.09-.13.22-.12.08,0h0c0,.06,0,0,0,0l0,0,.12-.2c.08-.13.15-.27.23-.41a8.11,8.11,0,0,0,.91-3.65,6.5,6.5,0,0,0-1.17-3.57,7.68,7.68,0,0,0-2.21-2.09,14.07,14.07,0,0,0-2.89-1.48,7.93,7.93,0,0,0-3.29-.48A6.68,6.68,0,0,0,44,16.87a8.65,8.65,0,0,0-2.29,2.53c-.12.22-.27.45-.36.66l-.18.38a.35.35,0,0,0-.05.08.41.41,0,0,1-.11,0l-1,.13-1.53.22-1.63.28a13.65,13.65,0,0,1-3.65.26c-1.5-.29-2,.09-3.45.22-1.75.15-4.55.15-5.31.46a23.22,23.22,0,0,1-4.93.42c-.92-.05-.7,1.14-.7,1.14a16,16,0,0,1,.19,2c0,.85.22,1.79.72,1.51s2.93-.13,3.64-.31,3.49-.27,5.09-.65,3.24-.12,4.84-.41c.45-.09.88.15,1.31.12s2.13-.48,2.74-.53c1-.07,2.1-.23,3.06-.36l.68-.09.81-.1c.63-.06,1.1-.1,1.35-.11a10.12,10.12,0,0,0,1.48-.1l.26-1.5A7.51,7.51,0,0,1,45.26,22a2.59,2.59,0,0,1,1.45-1.4,4.09,4.09,0,0,1,1.88-.24,7.69,7.69,0,0,1,2.11.56,2.48,2.48,0,0,1,1.2,1.54,3.33,3.33,0,0,1-.2,2.42l-.05,0a.52.52,0,0,0-.13.15l-.09.14a4.73,4.73,0,0,1-.41.53c-.71.69-1.94,1.7-3,2.6l2.7,1.57.63.39.51.44.17.2.11.14a2.12,2.12,0,0,1,.41.86,5.68,5.68,0,0,1,0,1.4A5.22,5.22,0,0,1,52,34.93a1.38,1.38,0,0,1-.63.66.6.6,0,0,1-.29.08c-.51-.05-.78.5-1.29.51a5.94,5.94,0,0,1-1.65-.1,1.77,1.77,0,0,1-1.3-1c-.15-.35-.24-.77-.79-.81a9.53,9.53,0,0,0-3.63,1.16c-.5.28-.44,1-.11,1.55a3.22,3.22,0,0,0,1.08,1.16c.2.12.68.7,1.38,1.26a6.65,6.65,0,0,0,2.39,1.26,8.34,8.34,0,0,0,5.93-.31,6.89,6.89,0,0,0,2-1.85,9.57,9.57,0,0,0,.77-.79,6.34,6.34,0,0,0,1.52-4.39A9.2,9.2,0,0,0,55.59,28.24Z"/><path class="cls-1" d="M38.73,33.16c-.31.17-2.17,0-3.29.08-1.36.13-2.87-.12-4.26,0a18.74,18.74,0,0,0-1.9.46l-.79,0a14.12,14.12,0,0,0-3.31.3,26,26,0,0,1-3.91.59l-2.23.1-1.77.1c-.71,0-1.46.07-2.17.12l-.34,1.53a6.37,6.37,0,0,1-.38,1.18,2.71,2.71,0,0,1-.58.7,10.22,10.22,0,0,1-1.1,1,3.53,3.53,0,0,1-1.25.61,1.89,1.89,0,0,1-1.51-.34,3.45,3.45,0,0,1-1-1.14,8.2,8.2,0,0,1-.64-1.25,2.9,2.9,0,0,1-.19-1.4,3,3,0,0,1,.32-1,1.59,1.59,0,0,1,.13-.22,5.36,5.36,0,0,1,.53-.67l1.49-1.3,1.35-1.16L9.71,30.18l-1.1-.63-.43-.36C8,29,8,29,7.93,29a3.78,3.78,0,0,1-.62-.81,2.27,2.27,0,0,1-.06-2.24,3.47,3.47,0,0,0,.59-.86,2.3,2.3,0,0,1,.6-.85,3,3,0,0,1,1.65-.66c.6-.07,1.11,0,1.36,0a2,2,0,0,1,1.39.54,2.68,2.68,0,0,1,.85,1.29c.1.52,1.22.1,1.22.1a17.33,17.33,0,0,1,1.93-.65c.82-.17,1.7-.65,1.18-1.26-.25-.3-.7-1.23-1.39-2.07a6.33,6.33,0,0,0-2.06-1.71,9.71,9.71,0,0,0-3-.91,6.92,6.92,0,0,0-4,.72,12.71,12.71,0,0,0-2.72,1.94,6.3,6.3,0,0,0-1.73,2.87,12,12,0,0,0-.6,1.75,7.36,7.36,0,0,0,.19,1.82,11.43,11.43,0,0,0,.68,1.95,7,7,0,0,0,.68,1.25,6.31,6.31,0,0,0,.44.58l.12.14h0l0,0a1.76,1.76,0,0,0,.37.17c-.09.1-.14.18-.19.2s0-.09-.38.6A7.27,7.27,0,0,0,4,34.41a9.32,9.32,0,0,0,0,4.33A7.48,7.48,0,0,0,6.33,42.6a6.61,6.61,0,0,0,5.12,1.61,9.67,9.67,0,0,0,4.27-1.39,8,8,0,0,0,2.16-2,7.26,7.26,0,0,0,.72-1.19l.14-.28,0,0,0-.05,0,0a0,0,0,0,0,.06,0s.08,0,.12,0l1.74-.19c1.32-.15,2.53-.28,2.81-.27a34,34,0,0,0,5.39-.39,6.13,6.13,0,0,1,1.56-.16,1.77,1.77,0,0,1,.51.06c.8.23,1.63-.24,2.43-.22,2.07,0,3.6-.62,5.67-.34.61.08,1.44.16,1.79-.37s.26-2.36,0-3.81C40.66,32.45,39,33,38.73,33.16Z"/></svg>