<svg id="Pieces" xmlns="http://www.w3.org/2000/svg" viewBox="0 0 60 60"><defs><style>.cls-1{fill:#792f6c;}</style></defs><path class="cls-1" d="M47.5,18.52a13.19,13.19,0,0,1,1.67,1.63c.6.75,1.53,1.38,1.94.59.2-.4,0,.1.89-.74s1.28-1.31,2-2,1.65-1.6,2-2l1.12-1.24a.44.44,0,0,0,0-.62L55.4,12.49,52.83,9.94,51.09,8.25l-.86-.78C49.81,7.09,48.37,6.33,48,6c0,0-1.17-1.17-1.72-1.72a.46.46,0,0,0-.6,0l-3,2.21L41.11,8c-.33.33-.65.66-1,1-.49.56-1.18.8-1.69,1.31s-2.25,2.73-3,3.43c-2.25,2.22-5.09,5.44-5.78,6A36.46,36.46,0,0,0,27,22.55c-.52.54-1,1.09-1.55,1.62-.67.66-1.2,1.76-2.1,2.15a15.13,15.13,0,0,0-4.16,3.27,38,38,0,0,0-4.29,4.59c-.11.24-2,2.2-4.07,4.27a.54.54,0,0,0,0,.76l2.26,2.26,2.07,2.11,3,3.12.1.17c.27.35,1.37,1.48,2.9,3a.53.53,0,0,0,.76,0c1-1,2.05-2.08,3.17-3.2l2.17-2.24c1.23-1.28,2.27-2.33,2.57-2.58a81.58,81.58,0,0,0,6.32-6.2,16,16,0,0,1,1.79-1.84,4.66,4.66,0,0,1,.67-.49c1.16-.65,1.8-2,2.77-2.87,2.51-2.29.86-1.55,3.55-3.62.79-.61,1.85-1.47,1.88-2.31s-1.45-2.34-2.87-3.29c-1.09-.72-2.63,1.52-2.86,2s.4-.61-.86.71c-.61.65-1.34,1.19-2,1.83-.43.44-.72,1-1.17,1.45s-1.39.83-2,1.4c-.74.75-1.29,1.67-2,2.46l-1,.83c-1,.81-1.68,1.87-2.59,2.74-.39.38-.9.63-1.29,1s-.43.92-.7,1.41c-.76,1.33-2.48,2.38-3.58,3.43-.4.39-.76.83-1.13,1.27l-.55.65-.23.27-.09.08c-.24.19-.31-.15-.4-.31a8.35,8.35,0,0,0-1.38-1.41c-.46-.47-.91-.94-1.36-1.42a4.48,4.48,0,0,0-.56-.59,1.37,1.37,0,0,0-.49-.22c-.21-.07,0-.51.1-.61l2.71-3.41a9.05,9.05,0,0,1,3-2.45h0a3.53,3.53,0,0,1,.65-.21c1.46-.41,2.07-1.88,3-2.86l2.52-2.55,4.07-4c1.19-1.18,2.34-2.41,3.46-3.66l1.79-2a31.61,31.61,0,0,1,4.27-4.16,11.21,11.21,0,0,0,1.7-1.37c.31-.3.7-1.25,1.07-.74a12.55,12.55,0,0,0,1.27,1.36l1.11,1.13a4.58,4.58,0,0,0,.74.72c.19.11.5.1.63.3s-.24.51-.5.74c-.77.74-1.47,1.36-1.85,1.69A1.07,1.07,0,0,0,47.5,18.52Z"/><path class="cls-1" d="M19.62,49.67a4.64,4.64,0,0,0-.76-.81c-.29-.29-.58-.57-.89-.83s-.67-.68-1-.54c-1.12.52-2,1.51-3.69,1.88A10.64,10.64,0,0,0,10,50.75c-.32.14-.55,0-.18-.46.34-.28.58-1.85.77-2a6.72,6.72,0,0,0,.74-1.87c.29-1,.55-.64.59-1.57a2.93,2.93,0,0,1,.71-1c.7-.69-1.44-2.21-2.48-2.71-.77-.22-.69.46-.62.61a21.14,21.14,0,0,1-1.2,2.53C7.58,48,5.42,51.55,4.64,55.35a.3.3,0,0,0,.35.36,36.52,36.52,0,0,0,8-2.93c.78-.56,1.77-.27,2.51-.82,1.49-.3,2.23-1.11,3.58-1.31a1,1,0,0,0,.43-.21A.52.52,0,0,0,19.62,49.67Z"/><path class="cls-1" d="M31.4,49.9l.27-.21A14.36,14.36,0,0,0,33,48c.15-.39-.22-1.22-.28-1.57a2.77,2.77,0,0,1,.42-1.57c.13-.22.34-.45.48-.69s.4-.45.54-.67a4.55,4.55,0,0,1,1.19-1,11.26,11.26,0,0,0,1.38-.9c.24-.2.6-.15.86-.31a18.94,18.94,0,0,1,1.6-1.09c.63-.29,1.32-.66,2-1s1.19-.67,1.38-.74a6.58,6.58,0,0,0,1.62-.94c.34-.23.7-.44,1.06-.64l1.06-.69a12.91,12.91,0,0,0,2.07-1.56,8.27,8.27,0,0,0,1-1.16c.16-.21.32-.42.46-.63s.25-.47.36-.71.29-.54.51-.94l.72-1.4a17.51,17.51,0,0,0,1.12-3.13s0,0,0,0a4.63,4.63,0,0,0,.32-1.77,13.78,13.78,0,0,0-.06-2.8c-.09-.81-.82-1.14-1.27-1.74a26.14,26.14,0,0,0-2.77-2.85,5,5,0,0,1-.83-.8,2.48,2.48,0,0,1-.21-.31c-.24-.57-.9-.8-1.29-1.24-1-1.14-2.1-1.67-3-2.93-.26-.37-.63-.86-1.08-.8s-1.38,1-2,1.83c-.48.65.58,1.27.83,1.36s1,1.18,1.65,1.74,1.34,1.6,2.06,2.32c.34.33.79.54,1.15.84l.36.45A10,10,0,0,0,48.2,21.6,9.53,9.53,0,0,1,49.76,23c0-.06,0,.53,0,.89a8.37,8.37,0,0,1-.19,1.22,11.46,11.46,0,0,1-.77,2.34c-.38.86-.8,2.42-1.1,3a3.8,3.8,0,0,1-1,1.27,12.15,12.15,0,0,1-1.28,1l-1.26,1a7.88,7.88,0,0,1-1.29,1l-1,.61c-.34.21-.72.36-1.07.54-.63.32-1.23.67-1.94,1.06l-1.08.63a14.89,14.89,0,0,1-2.47,1.29,4.09,4.09,0,0,0-1.21.63c-.31.22-.6.5-1.07.89A15.27,15.27,0,0,0,31.11,42c-.29.35-.56.69-.76,1a4.74,4.74,0,0,0-.36.81,7.84,7.84,0,0,0-.46,2.44,5.21,5.21,0,0,0,.77,2.62C30.59,49.28,31,50.14,31.4,49.9Z"/></svg>