<svg id="Pieces" xmlns="http://www.w3.org/2000/svg" viewBox="0 0 60 60"><defs><style>.cls-1{fill:#792f6c;}</style></defs><path class="cls-1" d="M8.66,25s.76.94,1.22,1.64,1.1,1.43,1.28,1S13,26.39,13.37,26s2.15-1.54,3-2.46,2.06-1.31,2.95-2.16c.25-.23.66-.19.93-.39s1.13-1.2,1.51-1.46c1.19-.85,2.64-2.22,3-2.4A9,9,0,0,0,26.22,16a13.39,13.39,0,0,1,2.05-1.29l1.91-1s0,0,.05,0a.34.34,0,0,1,.11-.16.11.11,0,0,1,.07,0s0,0,.07,0l.25.17c.36.24.76.54,1.18.87.84.64,1.74,1.38,2.4,1.92a.13.13,0,0,0,0,.06c.2.4,3.88,2.8,4.23,3.19a19.56,19.56,0,0,0,3.22,2.51,4.11,4.11,0,0,1,1,.69,1.23,1.23,0,0,1,.24.31c.28.61,1.06.66,1.51,1.06,1.16,1.06,2.44,1.32,3.45,2.56.3.36.73.84,1.26.6a9.9,9.9,0,0,0,2.4-3c.58-1-.67-1.36-1-1.37S49.41,22,48.72,21.54c-.85-.58-1.56-1.49-2.4-2.12A10.78,10.78,0,0,0,45,18.79l-.42-.43a8.14,8.14,0,0,0-2-1.49,14.2,14.2,0,0,1-2.51-1.59c-1.46-1.17-2.93-2.53-4.35-3.81A7.47,7.47,0,0,0,34,10.42L33.11,10l-1.06-.6a13.37,13.37,0,0,1-1.79-1.28c-.56.37-1.13.71-1.74,1.06l-.94.54-.23.14-.14.07-.26.13A26.08,26.08,0,0,0,24,12.25l-2.15,1.52a23.19,23.19,0,0,0-1.8,1.48l-.92.85a7.87,7.87,0,0,1-2.26,1.58c-1.13.32-1.23.81-2.14,1.47-1.06.79-2.9,1.84-3.23,2.38a13,13,0,0,1-3,2.2C7.88,24,8.66,25,8.66,25Z"/><path class="cls-1" d="M46.4,27.81a11.62,11.62,0,0,1-2,0c-.84-.09-1.8.1-1.56.88s-.13,4.4,0,5.47,0,5.26.21,7.69a25.87,25.87,0,0,1,0,3.63l0,.92,0,.42v.06a.48.48,0,0,0,0,.25s0,0,0,0a1,1,0,0,1-.31-.24l0,0a2.42,2.42,0,0,1-.41,0l-.63.05c-.85.07-1.75.15-2.21.14h-.58l-.28,0,0-.25,0-.13s0,0,0-.09v-.32a16.77,16.77,0,0,1,0-1.74c.1-1.19,0-2.42,0-3.61,0-.8,0-1.59,0-2.39A9,9,0,0,0,38,35.6a8.49,8.49,0,0,0-4.18-4.92,7.87,7.87,0,0,0-7.67.21A10.69,10.69,0,0,0,24,32.5a9,9,0,0,0-2.1,3.24,8.7,8.7,0,0,0-.5,2.1c0,.33-.06.78-.06,1v.8l-.06,2.91s0,0,0,.08a19.31,19.31,0,0,0-.07,2.51v1.71l0,.22-.24,0h-.71l-.5,0c-.33,0-1.09-.07-2-.1-.68,0-.42,0-.51,0l-.06,0a.1.1,0,0,0,0-.07l0,0s0-.11,0-.21l0-.3a17.35,17.35,0,0,1,0-2.35,5,5,0,0,1,.11-.76c.32-1.18-.11-2.47-.06-3.67.14-3.11-.42-5.46,0-8.55.11-.91.24-2.15-.27-2.72s-2.34-.58-3.81-.27c-1.12.23-.68,2.69-.52,3.16s-.13,3.25-.09,4.91c0,2.05-.26,4.27-.26,6.36,0,1,.24,1.92.3,2.88l-.09,1.17,0,.36,0,.7,0,1.43c0,1,0,2,0,2.9,1.39,0,2.76-.05,4-.1l.73,0,.32,0h.19l.74-.06,1.45-.08.72,0,.9,0H24.1l1.61,0c0-1.57.05-3.15.08-4.75l.1-2.66c.08-1.78.16-3.57.24-5.32a6.14,6.14,0,0,1,.53-2.4,4.38,4.38,0,0,1,1.41-1.67,3.06,3.06,0,0,1,2.41-.42,4.34,4.34,0,0,1,2.05,1.2,5.64,5.64,0,0,1,1.26,1.89A4.08,4.08,0,0,1,34,38.53a6.13,6.13,0,0,1,0,.81v.91l0,5.25,0,2.52.07,3.67,1.35,0,2.32-.06,1.14,0,.64,0c.69,0,1.73-.09,2.76-.1h1.13l1.31,0c.85,0,1.64.07,2.3.13l.35,0A33.69,33.69,0,0,0,47.58,47v-.37l0-.27,0-.59c0-.41-.05-.86-.05-1.41,0-2.63.24-6.81,0-8a51.06,51.06,0,0,1,0-7.42C47.6,27.64,46.4,27.81,46.4,27.81Z"/></svg>