<svg id="Pieces" xmlns="http://www.w3.org/2000/svg" viewBox="0 0 60 60"><defs><style>.cls-1{fill:#792f6c;}</style></defs><path class="cls-1" d="M46.32,9.47s0,.34.07.81a7.78,7.78,0,0,1,0,1.52,3.33,3.33,0,0,0,.1,1.36c.12.36.29.58.64.5a2.78,2.78,0,0,1,2,1,5,5,0,0,1,1,2.2,1.93,1.93,0,0,1,.08.45c0,.07,0,.28,0,.47v.62l0,3c0,2.22,0,4.7.17,6.52a49.15,49.15,0,0,1,0,5.43l-.08,2.68a5.19,5.19,0,0,1-.33,1.6c-.22.61-.82.87-1.23,1.22a4.66,4.66,0,0,1-1.4,1,4.34,4.34,0,0,1-1.1.28c-.59,0-1.09,0-1.44,0-4.35,0-10.24.25-11.46.17-1.78-.12-3.61,0-5.4,0l-1.68,0-2.72,0h-.22c-.25.51-.49,1.06-.73,1.61L22,43.57a3.29,3.29,0,0,1-.22.5.24.24,0,0,1-.22.12.64.64,0,0,1-.48-.34,1.23,1.23,0,0,1,0-.21c0-.06,0-.09,0-.1l-1.87-3.7-3,.08-.7,0L15,40l-.76.06c-.33,0-.75.06-1.25.08H12.4c-.17,0-.35,0-.55-.05a4,4,0,0,1-2.29-1.34,4.12,4.12,0,0,1-1-2.74l.07-4.34c0-.05,0-.08,0-.13.12-.6.09-4.17.05-7.77l-.06-5.07V17.08a2.38,2.38,0,0,1,.14-.62,4.4,4.4,0,0,1,2-2.36,4.2,4.2,0,0,1,1-.37c.16-.05.34-.05.51-.09s.27,0,.63,0c1.17,0,2.25,0,3.08-.09a32.56,32.56,0,0,1,3.52,0,7.6,7.6,0,0,1,1.13.13c1.76.36,3.69-.14,5.48-.07,4.66.16,8.17-.48,12.79-.05,1.36.13,3.22.27,4.07-.31s.87-2.68.41-4.35c-.36-1.28-4-.78-4.74-.6s-4.85-.15-7.34-.1c-1.23,0-2.45-.11-3.68-.1-.85,0-1.69.22-2.55.2-1.1,0-2.15-.4-3.27-.4-1.44,0-2.87.27-4.3.35L15.8,8.1a22.21,22.21,0,0,0-2.58,0l-.7,0c-.3,0-.6,0-.89.09a12.7,12.7,0,0,0-1.75.4A9.41,9.41,0,0,0,7,9.9a5.55,5.55,0,0,0-1.61,2.34,14.14,14.14,0,0,0-1.52,4.19c-.06.37-.09.81-.12,1.13l-.07.88c0,.58-.08,1.14-.09,1.66,0,1.55.23,3.1.19,4.66S3,27.53,3,28.93c0,1,.17,2,.18,2.94v2.7l0,1.34a11.15,11.15,0,0,0,.14,1.87,8.48,8.48,0,0,0,1.57,3.68,9.28,9.28,0,0,0,3.34,2.76,9.12,9.12,0,0,0,3.81.89c.27,0,.61,0,.79,0l.55,0,.91-.08.76-.05.38,0,.15,0,.46,0c.08.13.15.28.23.42l.87,1.8L19.52,52a14.43,14.43,0,0,1,.59,1.34c.21.59.4,1.29.61,2l.3.9A21.38,21.38,0,0,0,23.34,52c.77-1.69,1.45-3.36,2.18-4.83l.81-1.66.08-.18h.26l7.85.05c2.31,0,4.61-.06,6.92-.15l3.69-.15c.54,0,1.06,0,2.11-.12a9.55,9.55,0,0,0,2.89-.86,10.73,10.73,0,0,0,4.07-3.53,7.75,7.75,0,0,0,1.25-2.66,8,8,0,0,0,.19-1.23l0-.59v-.43c0-1.11-.13-2.22-.13-3.9,0-3.93.27-10.19,0-11.93a19.27,19.27,0,0,1-.13-2.19v-.43l0-.52c0-.35-.1-.71-.16-1.08a9.76,9.76,0,0,0-.76-2.16A9.25,9.25,0,0,0,51.59,10a9.79,9.79,0,0,0-2.84-1.46c-1.37-.43-2-.07-2.27.23A.83.83,0,0,0,46.32,9.47Z"/><path class="cls-1" d="M21,24.65a2,2,0,1,0,1.9,2.14A2,2,0,0,0,21,24.65Z"/><path class="cls-1" d="M30,24.65a2,2,0,1,0,1.9,2.14A2,2,0,0,0,30,24.65Z"/><path class="cls-1" d="M39,24.65a2,2,0,1,0,1.9,2.14A2,2,0,0,0,39,24.65Z"/></svg>