<svg id="Pieces" xmlns="http://www.w3.org/2000/svg" viewBox="0 0 60 60"><defs><style>.cls-1{fill:#fff;}</style></defs><path class="cls-1" d="M6.69,19.25a13.87,13.87,0,0,1,2.17.85c.87.43,1.92.69,2,0a2.21,2.21,0,0,1,.37-.84,15,15,0,0,1,1-1.24c.75-.88,1.6-1.7,1.94-2.12a14.4,14.4,0,0,1,2.48-2.23c1.17-.87,2.67-1.78,3.73-2.41a8.62,8.62,0,0,1,3.31-1.19,11.3,11.3,0,0,1,1.73-.19c.29,0,.58,0,.86-.08h.87c.66-.07,1.2.36,1.8.44.26,0,1,.13,1.82.25a9.33,9.33,0,0,1,2,.64,18.52,18.52,0,0,1,3.83,2.41,13.6,13.6,0,0,1,2.15,2.15c.3.53.68,1,1,1.49s.7,1,1,1.54a12.9,12.9,0,0,1,1.44,4.53,22.35,22.35,0,0,1-.06,4.7,35.27,35.27,0,0,1-1.24,5.41,11.51,11.51,0,0,1-2.49,4.06A16,16,0,0,1,33.59,41s-.06,0-.1,0a25.5,25.5,0,0,1-4.78,1.53,14.34,14.34,0,0,1-5.17,0,26.64,26.64,0,0,1-3.33-1.06,29.25,29.25,0,0,1-3.82-2.08,6.05,6.05,0,0,1-1.08-.81,3.7,3.7,0,0,1-.66-.66,4.79,4.79,0,0,1-.41-.61c-.49-1.06-1.57-1.77-2.13-2.81-.3-.69-.64-1.31-.93-1.93a17.45,17.45,0,0,1-.76-1.87,13.56,13.56,0,0,1-.47-5.1c.11-.89.38-2-.1-2.67s-2.53-1.12-4.24-1c-.66,0-1,.86-1.09,1.77a6.4,6.4,0,0,0,.17,2.17c.09.31.08,2.35.19,3.58a16.83,16.83,0,0,0,.73,3.66A22.6,22.6,0,0,0,9.3,40.43a16.09,16.09,0,0,0,2.86,2.42,12,12,0,0,0,1.12,1,14.56,14.56,0,0,0,5.67,3,28.67,28.67,0,0,0,7.47,1,22.59,22.59,0,0,0,13.77-4.66A15.64,15.64,0,0,0,42,41.44a16.74,16.74,0,0,0,1.56-2.19l.65-1.12c.17-.38.33-.74.49-1.07a15.11,15.11,0,0,0,.64-1.65,33.53,33.53,0,0,0,2.36-8.89,18.84,18.84,0,0,0-2.07-9.09A22.47,22.47,0,0,0,42,11.81,18.62,18.62,0,0,0,37.47,8l-1.39-.77-1.45-.64c-.4-.19-.94-.34-1.52-.54l-.9-.3-1-.24-.95-.24-.93-.17c-.6-.11-1.13-.26-1.56-.32a11,11,0,0,0-1.87-.25,14,14,0,0,0-1.51.12A9.73,9.73,0,0,0,22.94,5c-.53.15-1.13.25-1.81.5l-1.3.41c-.46.15-.9.37-1.37.56a25.55,25.55,0,0,0-2.62,1.28,14.46,14.46,0,0,0-3.48,2.52c-.48.57-1.88,1.83-3.15,3.26C8.59,14.2,8,15,7.48,15.58c-.23.29-.52.67-.72,1l-.5.75c-.51.79-.38,1.33-.15,1.61A1.15,1.15,0,0,0,6.69,19.25Z"/><path class="cls-1" d="M52.7,54.26S55.89,51.4,55.06,51a34,34,0,0,1-5.2-4,38.12,38.12,0,0,0-4.53-4.74c-1-.49-1-.49-2.29.74s-2.75,2.7-2.61,3.24,4.07,3.87,4.38,4.39a18.83,18.83,0,0,0,3.32,3.45c1.09.75,1.21,1.38,1.21,1.38l.92.92A15.82,15.82,0,0,0,52.7,54.26Z"/><path class="cls-1" d="M26.3,17.2a2.2,2.2,0,1,0,2.15,2.24A2.19,2.19,0,0,0,26.3,17.2Z"/><path class="cls-1" d="M25.69,38s3.42.23,3.19-.61a37,37,0,0,1-.69-6.13,43.1,43.1,0,0,0,.12-6.18c-.27-1-.27-1-1.72-1s-3.08,0-3.31.42.12,5.29,0,5.85a21.52,21.52,0,0,0-.08,4.51,2.8,2.8,0,0,1-.09,1.72v1.23A10.48,10.48,0,0,0,25.69,38Z"/></svg>