<svg id="Pieces" xmlns="http://www.w3.org/2000/svg" viewBox="0 0 60 60"><defs><style>.cls-1{fill:#792f6c;}</style></defs><path class="cls-1" d="M14.5,35a11.3,11.3,0,0,1-1.93.66c-.84.15-1.67.67-1.1,1.48.25.41.76,1.63,1.41,2.85.35.58.68,1.21,1,1.7a12.7,12.7,0,0,0,.91,1.13,31.83,31.83,0,0,0,3,2.75,16.52,16.52,0,0,0,4.62,2.49c2.71.9,5.6,1.78,8.54,1.47a5.9,5.9,0,0,1,1.19,0,6.55,6.55,0,0,0,1.17,0,7.7,7.7,0,0,0,.89-.21l1.36-.47c1-.36,1.94-.85,2.44-1.06a18.59,18.59,0,0,0,4.59-3c.62-.61,1.19-1.15,1.6-1.64s.7-.84.88-1a12.73,12.73,0,0,0,1.27-1.72c.34-.64.71-1.26,1-1.91a26.53,26.53,0,0,0,1.88-5.4,17.27,17.27,0,0,0,.33-5.83,14.29,14.29,0,0,0-2.34-6.55c-.26-.46-.78-1.12-1.34-2l-1-1.29c-.36-.45-.82-.88-1.24-1.34a20.32,20.32,0,0,0-6-4.13l-.08-.08A10.61,10.61,0,0,0,35.41,11c-.56-.15-1.19-.28-1.87-.44s-1.4-.19-2.12-.25A21.83,21.83,0,0,0,25,11a15.9,15.9,0,0,0-4.13,1.42,18.23,18.23,0,0,0-2.56,1.53,15.92,15.92,0,0,0-1.88,1.65c-.92.95-1.49,1.67-1.92,2.11a8.25,8.25,0,0,1-.64.66,5.25,5.25,0,0,0-1.26,1.83c-.34.68-.57,1.41-.88,2.06a14.24,14.24,0,0,0-1.29,5,44.84,44.84,0,0,0-.14,5.14,12.66,12.66,0,0,0,1.16,4.82,4.57,4.57,0,0,0,4.06,0c.5-.28-.06-3.42-.21-4a5.31,5.31,0,0,0-.47-1.49,6.13,6.13,0,0,1-.07-1.86c.05-.89.24-1.89.36-2.65a14.24,14.24,0,0,1,2.42-5.26c.25-.35.44-.75.66-1.13s.47-.76.73-1.12l.84-.69a35.77,35.77,0,0,1,3.79-2.54,11.84,11.84,0,0,1,5.2-1.59,14.21,14.21,0,0,1,5.24.69A15.29,15.29,0,0,1,38.64,18c.42.29.84.71,1.34,1.07s1,.83,1.42,1.27a15.81,15.81,0,0,1,2,2.33,10.9,10.9,0,0,1,1.47,6.54,17.53,17.53,0,0,1-1.12,6.56,14.49,14.49,0,0,1-2.59,4A17.83,17.83,0,0,1,39.7,41.4,19.55,19.55,0,0,1,36.08,44a13.27,13.27,0,0,1-2.43.92,7.06,7.06,0,0,1-1.38.25,3.7,3.7,0,0,1-1.15,0c-2.05-.29-2.72,0-4.77-.45a15.25,15.25,0,0,1-1.93-.62,19.49,19.49,0,0,1-1.93-1c-1.22-.7-2.15-1.51-2.64-1.78a9,9,0,0,1-2.36-2.41,12.33,12.33,0,0,1-1.56-3.14A1,1,0,0,0,14.5,35Z"/><path class="cls-1" d="M29.94,19.84s-.08,3,.25,2.8a3.75,3.75,0,0,1,1.33-.26,2.94,2.94,0,0,1,1.35.21c.17.12.7.42,1.19.77a8.48,8.48,0,0,0,1.08.75c.48.12.48.13,1.39-.75s1.93-1.89,1.84-2.25a4.88,4.88,0,0,0-1.51-1.27c-.78-.5-1.64-.86-1.79-1a6.19,6.19,0,0,0-1.24-.64,5.24,5.24,0,0,0-1.71-.36A1.94,1.94,0,0,1,31,17.63a8.06,8.06,0,0,0-.85,0A10.54,10.54,0,0,0,29.94,19.84Z"/><path class="cls-1" d="M37.21,25.55a2.2,2.2,0,1,0,2.57-1.75A2.2,2.2,0,0,0,37.21,25.55Z"/></svg>