<svg id="Pieces" xmlns="http://www.w3.org/2000/svg" viewBox="0 0 60 60"><defs><style>.cls-1{fill:none;}.cls-2{fill:#792f6c;}</style></defs><path class="cls-1" d="M31.31,34.69v0C30,35.23,28.47,35.88,28,36s-2.47,1.26-3.79,2a28.79,28.79,0,0,0-.17,3.31v.56a30.87,30.87,0,0,1,3.48-1.52c.35-.1,2.33-1.1,3.68-1.74C31.24,37.38,31.31,35.85,31.31,34.69Z"/><path class="cls-1" d="M25.29,14.78l-.65.09a3.48,3.48,0,0,0-.35.06s-.05,0-.06.06a.21.21,0,0,0-.05.25c.07.12.12.11.08.12h0v.26l0,.57-.06,1.16L24,19.68c-.07,1.55-.14,3.09-.17,4.59,0,.93,0,1.79.07,2.66a29.31,29.31,0,0,1,3.63-1.59c.35-.11,2.4-1.14,3.76-1.78-.06-1-.1-2.1-.1-3.15l0-4.22v-.83l0-.07-.05-.1c-.08,0-.09,0-.16-.06s-.12,0-.24,0l-.36,0L29.66,15l-1.45-.17A13.57,13.57,0,0,0,25.29,14.78Z"/><path class="cls-1" d="M24.17,30.55A19.83,19.83,0,0,1,24.09,33L24,34c0,.14,0,.29.06.43a31.24,31.24,0,0,1,3.47-1.51c.35-.1,2.38-1.13,3.74-1.77,0-.18.07-.37.12-.59a16.22,16.22,0,0,0,.12-3.5c-1.35.6-3,1.3-3.5,1.48A42.47,42.47,0,0,0,24.17,30.55Z"/><path class="cls-1" d="M44.93,34.62c-.24,0-.28-.47-.25-.94h-.15a.43.43,0,0,1-.12.17c-.14.13-.39.13-.79.33a2.77,2.77,0,0,0-.82.54,2,2,0,0,0,.18,3,2.11,2.11,0,0,0,1,.45,1.69,1.69,0,0,0,1.09-.23,1.92,1.92,0,0,0,.95-1.32,1.79,1.79,0,0,0-.37-1.47A1.52,1.52,0,0,0,44.93,34.62Z"/><path class="cls-2" d="M43.15,50c-1-.2-12.51.1-13.82,0s-7.77-.24-10.67-.07a17.68,17.68,0,0,1-4.08-.08h-2.9c-.47.37-.52,1.74-.52,2.25,0,0-.53,3,1.45,2.8s12.37-.7,14.48-.6,13,.26,14.61.1c2.3-.24,2.3-.24,2.43-1.5S44.2,50.18,43.15,50Z"/><path class="cls-2" d="M48.62,33.43a8.2,8.2,0,0,0-.5-.81A5.14,5.14,0,0,0,46,31.18a2.62,2.62,0,0,0,0-.43c-.08-.49,0-2.43-.15-3.56a39.66,39.66,0,0,1-.13-9.74,10.35,10.35,0,0,0,0-1.67c0-1.47.28-3,.34-4.47a11.4,11.4,0,0,0-.13-2.67s0-.33,0-.55,0-.52,0-.82c0-.61,0-1.32,0-2.1l-3,0-1.7,0,0,0c-.38-.15-4.42.07-4.89,0S26,4.94,26,5.05c0,.76.07,1.48.07,2.2,0,.36,0,.72,0,1.09,0,.22,0,.31,0,.41L26,9.06c-.08.43-.17,1,.19,1.27l.08,0c-.31,0-.62.06-.93.11-.16,0-.37,0-.61.06l-.4,0-.82,0-3.92,0c0,1.58,0,3.29,0,4.93,0,.91,0,1.79-.06,2.53a.43.43,0,0,0,0,.07c-.2.64.1,7.67,0,8.47a50.29,50.29,0,0,0-.07,6.54,10.35,10.35,0,0,1,0,1.9,2.36,2.36,0,0,1-.11.6c-.32,1,.12,2,.06,3-.14,2.5.42,4.39,0,6.88-.11.73-.23,1.73.27,2.18s2.34.47,3.81.22c.91-.15.79-1.47.63-2.17a44.33,44.33,0,0,1,4-2.12c.47-.17,2.08-.84,3.41-1.43a42.72,42.72,0,0,1-.12,4.92c-.12,1.1,1.08,1,1.08,1a14.41,14.41,0,0,1,2,0c.84.08,1.8-.08,1.56-.7s.13-3.54,0-4.4,0-4.22-.22-6.18.17-3.91,0-5.85c0-.55.24-1,.24-1.57s-.3-2.6-.29-3.33c0-2.34-.22-5.51-.15-6.17a20.05,20.05,0,0,0,0-2.9c0-.34,0-.68,0-1s0-1,0-1.43c.06-1.29.11-2.59.17-3.89l-5.85-.27-.72,0c.33-.35.12-1.11,0-1.28-.12-.62.09-.49.06-.61a.21.21,0,0,1,.16.08l0,0,.37,0c.25,0,.5,0,.74,0,.44,0,.89-.17,1.33-.22a47.16,47.16,0,0,1,5.58-.12c.86,0,1.75.07,2.64.12l1.34.09.67.05h.17c.06,0,.11,0,.09,0s0,0,.1-.08a.22.22,0,0,1,.31.18A12.19,12.19,0,0,1,42.58,12a42.24,42.24,0,0,0,.07,8l.1,1.14a9,9,0,0,1,0,2.54,6.67,6.67,0,0,0-.05,2.4,26.38,26.38,0,0,0,0,3.7,6,6,0,0,1,.09,1.39,4,4,0,0,0-.9.35,5.12,5.12,0,0,0-2.64,3.26,5.17,5.17,0,0,0,.68,4.16,5.67,5.67,0,0,0,1.8,1.7,4.82,4.82,0,0,0,1.66.63,5.16,5.16,0,0,0,2.85-.28,5.23,5.23,0,0,0,2.42-2,4.9,4.9,0,0,0,.75-2.53A5.93,5.93,0,0,0,48.62,33.43ZM31.51,27a16.22,16.22,0,0,1-.12,3.5c-.05.22-.09.41-.12.59-1.36.64-3.39,1.67-3.74,1.77a31.24,31.24,0,0,0-3.47,1.51c0-.14,0-.29-.06-.43l.09-1a19.83,19.83,0,0,0,.08-2.46A42.47,42.47,0,0,1,28,28.5C28.49,28.32,30.16,27.62,31.51,27Zm-4,13.4a30.87,30.87,0,0,0-3.48,1.52v-.56a28.79,28.79,0,0,1,.17-3.31c1.32-.77,3.24-1.83,3.79-2s2-.81,3.3-1.39v0c0,1.16-.07,2.69-.1,4C29.86,39.32,27.88,40.32,27.53,40.42Zm2.86-25.37.36,0c.12,0,.27,0,.24,0s.08.08.16.06l.05.1,0,.07v.83l0,4.22c0,1.05,0,2.1.1,3.15-1.36.64-3.41,1.67-3.76,1.78a29.31,29.31,0,0,0-3.63,1.59c-.06-.87-.09-1.73-.07-2.66,0-1.5.1-3,.17-4.59l.13-2.33.06-1.16,0-.57v-.26h0s0,0-.08-.12a.21.21,0,0,1,.05-.25s0,0,.06-.06a3.48,3.48,0,0,1,.35-.06l.65-.09a13.57,13.57,0,0,1,2.92,0l1.45.17ZM46.05,36.6a1.92,1.92,0,0,1-.95,1.32,1.69,1.69,0,0,1-1.09.23,2.11,2.11,0,0,1-1-.45,2,2,0,0,1-.18-3,2.77,2.77,0,0,1,.82-.54c.4-.2.65-.2.79-.33a.43.43,0,0,0,.12-.17h.15c0,.47,0,.91.25.94a1.52,1.52,0,0,1,.75.51A1.79,1.79,0,0,1,46.05,36.6Z"/></svg>