<svg id="Layer_1" data-name="Layer 1" xmlns="http://www.w3.org/2000/svg" viewBox="0 0 300 60"><defs><style>.cls-1{fill:#80e6a2;}</style></defs><path class="cls-1" d="M297.87,23a18.6,18.6,0,0,0-5.8-7.37,37,37,0,0,0-9.59-5.24,109.67,109.67,0,0,0-18.65-4.9,173.07,173.07,0,0,0-18-2.37c-5.19-.42-10.39-.74-18.27-1.06-9.2-.27-21.13-.48-31.78-.5s-20,.15-24.11.33c-2.21.08-6.34.21-11.35.41-2.26-.19-7.4-.66-13.37-.95C140.21,1,132.43.91,126.58,1s-11.48,0-17.24.14c-4,.07-7.91.29-11.9.39-5.19.13-10.12.08-15.35.33-6.73.33-13.41.94-20.11,1.57-2.73.23-5.4.4-8.14.53A200,200,0,0,0,29.58,6.14,67,67,0,0,0,19.19,8.58a32.69,32.69,0,0,0-8.84,4.64,25.78,25.78,0,0,0-5.72,5.63A22.65,22.65,0,0,0,1,26.71,28.83,28.83,0,0,0,.25,31c0,.72-.07,1.43-.11,2.13s0,1.44,0,2.14a18.4,18.4,0,0,0,2,8.07,20.73,20.73,0,0,0,8.28,8,45.34,45.34,0,0,0,10.49,4.05c3.4.89,6.63,1.57,9.84,2.11a84.07,84.07,0,0,0,9.71,1.09c4.64.23,9.22.14,13.83.08,4.23-.06,8.42-.24,12.59-.21l12.61,0c15.67.07,41.36-.29,50.76-.39,14.68-.15,29.45-.09,44.16-.07,1.24,0,2.51,0,3.72,0s2.6.14,3.9.21c8.5.45,17.94.08,26.77.07l23,0,18.35,0h6.88c.76,0,1.56-.11,2.33-.15,3.14-.22,6.22-.59,9.29-1.11a57.77,57.77,0,0,0,15.88-4.82c.62-.31,1.26-.61,1.88-1l1.81-1.11c.3-.19.6-.36.9-.56l.85-.65c.56-.44,1.15-.84,1.68-1.32A23.78,23.78,0,0,0,297.1,41a19.86,19.86,0,0,0,2.28-8.93A20.81,20.81,0,0,0,297.87,23Zm-1.62,9.43a17.13,17.13,0,0,1-2,7.24,21.77,21.77,0,0,1-4.82,5.87,31.15,31.15,0,0,1-3.09,2.21l-1.59,1-1.66.82a54.68,54.68,0,0,1-12.33,4c-1.79.31-3.34.67-4.65.81l-3,.39c-1,.14-2,.16-3.06.26s-2,.2-3.08.2h-6.33l-12.62,0-14.39,0c-6.06,0-13.45.25-19.29,0-11-.42-22.2-.36-33.77-.4-13.44,0-26.92,0-40.3.14-6.14.08-19.44.09-34.18.09l-22.46,0c-3.69,0-7.24,0-10.71,0l-9.6.17-.62,0c-1.39,0-6.24.05-12.78-.3-3.27-.18-7-.48-10.81-1.06a61.24,61.24,0,0,1-11.7-2.8,25.9,25.9,0,0,1-9.94-5.93,14.56,14.56,0,0,1-4.16-9,37.25,37.25,0,0,1,0-4.48,16.6,16.6,0,0,1,.2-2,12.23,12.23,0,0,1,.29-1.73c.13-.53.24-1,.35-1.48s.3-.85.42-1.21a10,10,0,0,1,.69-1.63,19.45,19.45,0,0,1,5.51-6.86c3.23-2.6,8.05-4.76,13.42-6.13C34.93,8,47.43,7.8,55.13,7.24,57,7.11,58.8,7,60.44,6.83l4.46-.39c2.71-.22,4.93-.37,6.67-.48,3.5-.21,5.15-.24,5.26-.25,8.21-.26,17.18-.89,25.56-1,8.74-.14,16.64-.3,24.34-.37-2.87.25-5.28.48-6.93.64-9.52,1.09-8.2,1.79-8.2,1.79s1,.75.36,1.43.85,1.19,6.19.35c.67-.1,1.65-.25,2.86-.39l4.28-.43c1.61-.15,3.38-.34,5.25-.48l5.8-.42c7.89-.55,16.06-.87,19.79-1.06,1-.06,2.27-.12,3.87-.18l1.88.2,5,.67c1.74.28,3.52.5,5.2.8,3.39.55,6.46,1.12,8.41,1.38,3.88.55,4.36-.69,2.48-2.21a15.62,15.62,0,0,0-3.93-1.33h.33c10.36-.17,21.92-.16,30.42-.14q6.3,0,12.65.16c2.1.06,4.24.11,6.33.19s4.21.21,6.33.36c8.44.54,16.88,1.31,25.17,2.5a122.71,122.71,0,0,1,13.15,2.77,62,62,0,0,1,12.35,4.4,23.19,23.19,0,0,1,6.6,4.79,14,14,0,0,1,3.06,5.15A19,19,0,0,1,296.25,32.44Z"/></svg>