<svg id="Pieces" xmlns="http://www.w3.org/2000/svg" viewBox="0 0 60 60"><defs><style>.cls-1{fill:#fff;}</style></defs><path class="cls-1" d="M42.29,21.11l0,0A10,10,0,0,0,41,23c-.36.93-.67,1.59.07,1.52a2.32,2.32,0,0,1,1.42.55,2.93,2.93,0,0,1,.33.49,6.44,6.44,0,0,0,.36.62,1.12,1.12,0,0,1,.19,1,6.71,6.71,0,0,1-1.32,2.13c-1.14,1.46-3.32,2.17-5,2.92-.5.25-1.08,0-1.58.16-.21,0-.82.28-1.5.46a8.28,8.28,0,0,1-1.8.33,28.4,28.4,0,0,1-3.9-.13,11.45,11.45,0,0,1-2.58-.48c-1-.39-2-.62-3-1a5.55,5.55,0,0,1-2.85-1.91,1.59,1.59,0,0,1-.27-.51,1.11,1.11,0,0,1-.07-.22,1.23,1.23,0,0,0,0-.2,2.33,2.33,0,0,1,.12-.81,13.82,13.82,0,0,1,1.7-3.3,9,9,0,0,1,2.93-2.56c.77-.45,1.71-.91,2.67-1.44a17.48,17.48,0,0,0,2.74-1.79l.12,0a4.93,4.93,0,0,0,1.14-1,10.61,10.61,0,0,0,.85-1c.27-.37.53-.78.79-1.21s.49-.89.71-1.37c.11-.24.22-.49.32-.73v-.06a2.64,2.64,0,0,0,0-.29c0-.09,0-.22,0-.11a3.23,3.23,0,0,1,.24.4.3.3,0,0,0,.08.12,14.18,14.18,0,0,1,.81,1.2,2.83,2.83,0,0,1,.52,1.46.9.9,0,0,1-.05.46c-.27.68.1,1.3-.35,2.28a12.29,12.29,0,0,1-1.57,2.73,4.91,4.91,0,0,1-2.66,1.68,5.4,5.4,0,0,0-2,.72,2.09,2.09,0,0,0-.4,1.14,3.56,3.56,0,0,0,.11,1.64c.13.42.92.61,1.73.56A5.19,5.19,0,0,0,32,27c.24-.14,1.16-.32,2.18-.79A9.08,9.08,0,0,0,37,24.3a17.1,17.1,0,0,0,2.32-2.93c.3-.55.6-1.06.87-1.69.12-.33.25-.68.35-1s.13-.7.19-1.06a8.77,8.77,0,0,0-.66-3.68,13.16,13.16,0,0,0-.39-1.4,10.8,10.8,0,0,0-.58-1.37c-.12-.23-.25-.44-.38-.65A6.41,6.41,0,0,0,38,9.56a12.94,12.94,0,0,0-3.18-2.95C33.74,5.92,32.73,5.49,31.7,5c-.59-.3-1.17-.49-1.78-.73l-.8-.32c0,1,.07,2,.12,3.12a11.17,11.17,0,0,1-.16,3.2c-.14.39-.29.8-.45,1.15-.09.17-.17.33-.27.49a9.56,9.56,0,0,1-1.29,1.78,11.06,11.06,0,0,1-3.68,2.27,15.43,15.43,0,0,0-3.49,2.3A17.76,17.76,0,0,0,17.41,21c-.81,1.09-1.68,2.11-2.48,3.37a8.46,8.46,0,0,0-1.44,4.81,6.81,6.81,0,0,0,.77,2.8A7.83,7.83,0,0,0,15,33.1c.28.33.58.65.89,1a13.74,13.74,0,0,0,3.86,2.34A30,30,0,0,0,25,38.26a21.36,21.36,0,0,0,4.92.59,21.58,21.58,0,0,0,2.66-.16c.74-.07,1.85-.24,2.95-.44s2.19-.45,2.94-.54a6.79,6.79,0,0,0,2.78-.88c.71-.42,1.37-.91,2.39-1.6a16.62,16.62,0,0,0,4-3.58,13,13,0,0,0,.79-1.25,9.53,9.53,0,0,0,.53-1.34,7.24,7.24,0,0,0,.23-1.23,6.21,6.21,0,0,0,0-.92A7.2,7.2,0,0,0,49,26a5.84,5.84,0,0,0-.37-1.28L48.3,24c-.1-.21-.2-.38-.3-.58a11.16,11.16,0,0,0-.8-1.25c-.61-.87-.65-.72-1.5-1.14a6.65,6.65,0,0,0-1.93-.85C43,20.07,42.67,20.54,42.29,21.11Z"/><path class="cls-1" d="M13.52,35.84c-.43-.89-2.13-4.12-2.67-3.45A15.82,15.82,0,0,1,9,33.65a6.89,6.89,0,0,0-1.86,1.72c-.24.44,0,.39-.52,1.8a7.43,7.43,0,0,0-.23,4.16c.18.53.24,1,.45,1.59a10.5,10.5,0,0,0,.64,1.62,7.25,7.25,0,0,0,1.94,2.54c.45.32.6,1,1,1.25a13.14,13.14,0,0,0,1.36.73c.61.26,1.24.53,1.54.7a33.3,33.3,0,0,0,5.2,1.9,10.11,10.11,0,0,0,2.46.63c2.18.44,4.33,1.32,6.61,1.6a11.26,11.26,0,0,0,4.09-.1c.62-.14,1.93-.21,3.41-.33s3.1-.31,4.3-.5l.07,0a14.19,14.19,0,0,0,3.67-.94,34.48,34.48,0,0,0,3.68-1.68,10.19,10.19,0,0,0,2.49-1.5A9.63,9.63,0,0,0,51.86,46c.4-.9.73-1.49.92-1.91a3,3,0,0,1,.36-.6,3,3,0,0,0,.47-1.61,9.89,9.89,0,0,1,0-1.54A8.09,8.09,0,0,0,53,36.54c-.6-1.56-.6-2.65-2-3.65-.36-.25-.89-.56-1.24-.29C48,34,47,34.59,46.53,35.71c-.37.92.27.91.73,1.46a3.5,3.5,0,0,1,.45,2.71c-.1.49-.26,1-.36,1.4a5.54,5.54,0,0,0,0,.59,1.33,1.33,0,0,1,0,.63c-.12.13-.21.27-.34.39a20,20,0,0,0-1.59,1.68,6.66,6.66,0,0,1-2.62,1.83A21.55,21.55,0,0,1,36,47.57a34.48,34.48,0,0,0-4.41,1c-1.5.33-3-.25-4.45-.61s-3-.34-4.42-.67c-1-.23-2.06-.56-3.06-.88l-2.63-.82-1.36-.48c-.73-.29-2.18-1-2.41-1.74-.42-1.09-.89-1.05-1.25-1.8l-.12-.32-.06-.47a1.44,1.44,0,0,1,0-.46,1.84,1.84,0,0,1,0-.42c.05-.53.27-.91.2-1.18a2,2,0,0,1,.77-1.27c.66-.57,1.12-.59.76-1.42Z"/></svg>