<svg id="Pieces" xmlns="http://www.w3.org/2000/svg" viewBox="0 0 60 60"><defs><style>.cls-1{fill:#fff;}</style></defs><path class="cls-1" d="M11.18,22.43a1.07,1.07,0,0,0-.22-.37c-.15-.2-.29-.4-.46-.6L10,20.85a1.58,1.58,0,0,0-2.56.21l-.27.45L7,21.77a1.48,1.48,0,0,0-.21.44,4.19,4.19,0,0,0-.29.89c-.11.51-.13.85-.19,1.26-.21,2.05-.43,4.13-.65,6.22l-.3,3.09-.12,1.56,0,.8a7.07,7.07,0,0,0,0,1,8.32,8.32,0,0,0,.47,2.33l.06.18c.14.35.31.67.47,1a5.08,5.08,0,0,0,.6,1,11.59,11.59,0,0,0,3.1,3.07,30.43,30.43,0,0,0,6,3.23,37.4,37.4,0,0,0,8,2.14l.11.06a31.3,31.3,0,0,0,6.92.44,50,50,0,0,0,7.12-.78,25.83,25.83,0,0,0,4.77-1.11,22.21,22.21,0,0,0,5.65-2.72l1.57-1.17.08-.07c.41-.36.76-.65,1-.87L52,43a8.13,8.13,0,0,0,2.45-4.44l.31-2,0-.29v-.41c0-.49,0-.95-.07-1.41-.06-.91-.15-1.78-.23-2.65-.17-1.75-.32-3.47-.33-5.5,0-1.2-.09-2.86-.84-3.74a1.23,1.23,0,0,0-.31-.24,1.06,1.06,0,0,0-.47-.22,1.32,1.32,0,0,0-.92.17,15.11,15.11,0,0,1-1.87,1.16c-.27,0-.39.25-.45.47a3.9,3.9,0,0,0,0,1.07c.15,1.29.78,2.46.94,3.75a45.6,45.6,0,0,1-.1,6.29c0,.33,0,.65,0,1a3.9,3.9,0,0,1-.1.71,5.84,5.84,0,0,1-1.18,2.48c-.25.37-.57.74-.85,1.15A7.92,7.92,0,0,1,47,41.44c-.37.22-.71.48-1.11.67a44.32,44.32,0,0,1-5.23,2.33A24.61,24.61,0,0,1,33.8,46,36,36,0,0,1,20.23,44.5c-1.25-.41-2.92-.86-4.36-1.46-.73-.25-1.36-.59-1.94-.85l-.12-.06c-.53-.29-1-.55-1.28-.74a6.68,6.68,0,0,1-2.43-2.86,4.7,4.7,0,0,1-.37-1.6c0-.28,0-.48,0-.81l.1-1.1c.23-2.51.23-5.07.38-7.56a1.72,1.72,0,0,1,.09-.44C10.59,26.26,11.51,23.55,11.18,22.43Z"/><path class="cls-1" d="M29.15,32.81c1,0,2-.1,3.46-.17a46.9,46.9,0,0,0,6-.63,18.15,18.15,0,0,0,4.49-1.27c.72-.35,7.66-3.09,9.54-4.16,0,0,1.82-.44.82-2.44l0-.07c-.64-1.26,0-2.93-3.45-1.19-2.17,1.09-5.55,2.42-5.94,2.64a17.37,17.37,0,0,1-3.59,1.38c-1.67.5-3.61.88-5,1.18-2.86.59-5.87.25-8.76.18a20,20,0,0,1-2.28-.5,29.4,29.4,0,0,1-4.87-.8,27.68,27.68,0,0,1-5-2,11.85,11.85,0,0,1-2.76-2c-.24-.25-.43-.52-.66-.76s-.39-.52-.6-.77l-.65-.77a1.43,1.43,0,0,0-2.32.19l-.38.63L7,21.77a1.48,1.48,0,0,0-.21.44,4.19,4.19,0,0,0-.29.89c0,.15-.06.28-.08.4A1.42,1.42,0,0,0,7,24.86l3.25,2.37A21,21,0,0,0,15.33,30c.52.21,1,.39,1.59.55s1.07.32,1.61.45c.9.24,2.26.53,3.62.78s2.7.46,3.57.66a12.9,12.9,0,0,0,3.43.39"/><polygon class="cls-1" points="51.47 12.83 51.47 12.83 51.47 12.84 51.47 12.83"/><path class="cls-1" d="M50.36,18.9a2.72,2.72,0,0,0-.59-.93c-.1-.11-.22-.21-.33-.32l-.28-.15a4.48,4.48,0,0,0-.32-.44l0,0,0-.05a7,7,0,0,1-.68-.5c-.24-.3-.33-.77-.61-1a7.35,7.35,0,0,0-1.28-.72l-.43-.42a7.58,7.58,0,0,0-1.47-.87,1.6,1.6,0,0,1-.35-.34,1.24,1.24,0,0,0-.21-.19c-.22-.13-.49.06-.76.06-.7,0-1.33-.71-1.94-1-.45-.2-1-.18-1.42-.38s-.66-.92-1.09-1.06-.63,0-.93-.09c-.56-.14-1.11-.25-1.66-.4a9,9,0,0,0-3.41.08,21.59,21.59,0,0,1-2.9,0,.43.43,0,0,1-.24-.06,1.56,1.56,0,0,1-.25-.26c-.56-.62-1.17-.09-1.74,0l-1.5.13c-.8.06-1.6.12-2.39.23a13.81,13.81,0,0,0-2.09.5L20.33,11a8.69,8.69,0,0,1-2.48.67,2.11,2.11,0,0,0-1.21.26c-.32.17-.63.36-1.12.61s-1.35.62-2,1a10.79,10.79,0,0,0-1,.68,1.68,1.68,0,0,0-.42.44,3.83,3.83,0,0,1-.52.58l-.82.83a21.08,21.08,0,0,0-1.38,1.61.52.52,0,0,0-.1.54,3.9,3.9,0,0,0,.31.4,1.7,1.7,0,0,0,.26.17s.42.24.88.53l0,0c.23.14.45.29.65.43l.29.19a2.57,2.57,0,0,0,1.17,0,5,5,0,0,1,.68-.73,4.54,4.54,0,0,0,.4-.42,15.73,15.73,0,0,1,2.25-1.87c.74-.67,1.78-.71,2.65-1.17.26-.13.56.05.81,0A15.9,15.9,0,0,1,21.23,15a29.19,29.19,0,0,1,3.11-.72,7.7,7.7,0,0,0,1.5-.19c.28,0,.57-.09.86-.12s.79-.38,1.16-.1a3.19,3.19,0,0,0,2,.48,8.5,8.5,0,0,0,2.36-.1,12.48,12.48,0,0,1,4.43.69l0,.05c.14.12,1.92,0,2.09.16s3.75,2.48,4.55,2.94l.12.07a2.28,2.28,0,0,1,.75.55.9.9,0,0,1,.17.27c.15.55.78.56,1.05,1,.51.66,1,1.06,1.47,1.65l.49.26a.67.67,0,0,0,.2,0h.08A5.76,5.76,0,0,0,50,20.69c.12-.11.35-.3.59-.54A3.82,3.82,0,0,0,50.36,18.9Z"/><path class="cls-1" d="M31.9,35.84A2.5,2.5,0,0,0,29.79,37a2.51,2.51,0,0,0-4.61,1.36c0,2.55,4.28,5,4.47,5.06l.13.07.14-.06c.18-.09,4.48-2.11,4.48-5.07A2.5,2.5,0,0,0,31.9,35.84Z"/></svg>