<svg id="Pieces" xmlns="http://www.w3.org/2000/svg" viewBox="0 0 35 35"><defs><style>.cls-1{fill:#fff;}</style></defs><path id="Instagram" class="cls-1" d="M28.08,3.57H6.92a3.3,3.3,0,0,0-3.3,3.3V28.13a3.3,3.3,0,0,0,3.3,3.3H28.08a3.3,3.3,0,0,0,3.3-3.3V6.87A3.3,3.3,0,0,0,28.08,3.57ZM23.57,7.92a.87.87,0,0,1,.87-.87H27a.87.87,0,0,1,.87.87v2.61a.87.87,0,0,1-.87.88h-2.6a.87.87,0,0,1-.87-.88Zm-6,4.27a5.35,5.35,0,1,1-5.34,5.34A5.34,5.34,0,0,1,17.53,12.19ZM28.78,28a.87.87,0,0,1-.87.87H7.09A.87.87,0,0,1,6.22,28V14.89H9.69a5.34,5.34,0,0,0-.6,2.64,8.45,8.45,0,1,0,16.89,0,4.46,4.46,0,0,0-.67-2.64h3.47Z"/></svg>