<svg id="Layer_1" data-name="Layer 1" xmlns="http://www.w3.org/2000/svg" viewBox="0 0 300 12.79"><defs><style>.cls-1{fill:#97b5ff;}</style></defs><path class="cls-1" d="M300,2.71c-.62.11-2.52.2-4.38.61a20.15,20.15,0,0,0-4.37,1.47,19.82,19.82,0,0,1-4.44,1.51,30.92,30.92,0,0,1-6.15.44,14.39,14.39,0,0,1-5-1,54.17,54.17,0,0,0-5.23-2,24.63,24.63,0,0,0-3.13-.84,22.83,22.83,0,0,0-3.15-.13c-1.38,0-2.82.16-3.56.24a18.46,18.46,0,0,0-3.73.73,28.52,28.52,0,0,0-3.44,1.32,17.5,17.5,0,0,1-4.1,1.42,30.65,30.65,0,0,1-5.12.46,23.8,23.8,0,0,1-2.94-.18,9.77,9.77,0,0,1-3.76-.92,25.4,25.4,0,0,0-3.22-1.67A20.18,20.18,0,0,0,230.43,3a24,24,0,0,0-9.37.15,27.6,27.6,0,0,0-3.15.93c-1.31.46-2.72,1.14-4.11,1.64a17.07,17.07,0,0,1-4.36.95,29.06,29.06,0,0,1-4.15,0l-.13,0c-.28-.07-1.26-.13-2.55-.37a21.94,21.94,0,0,1-4.49-1.45,25.36,25.36,0,0,0-5.24-1.67c-1.59-.28-2.78-.33-3.19-.38a27.05,27.05,0,0,0-5.85.16,18.83,18.83,0,0,0-4,1c-1.21.46-2.21.92-2.95,1.25a12.53,12.53,0,0,1-3.12,1,6.31,6.31,0,0,1-1,.12c-1.62,0-3.46.39-5.18.27a21.62,21.62,0,0,1-5.83-1.15,64.3,64.3,0,0,0-6.36-2.27,12.31,12.31,0,0,0-3.68-.43,1.86,1.86,0,0,0-1-.06c-.63.11-2.43.2-4.28.54A26.22,26.22,0,0,0,142,4.47,42.65,42.65,0,0,1,137.31,6a29.76,29.76,0,0,1-6.22.79A15.7,15.7,0,0,1,126,6.2c-1.63-.45-3.18-1.26-5.06-1.93a24.51,24.51,0,0,0-3.08-1.09,19.25,19.25,0,0,0-3.21-.34c-1.41,0-2.86,0-3.61.06a20.49,20.49,0,0,0-7.41,1.65A31.45,31.45,0,0,1,99.35,6.2a24.31,24.31,0,0,1-5.1.73c-.5,0-1,0-1.51,0a14.72,14.72,0,0,1-1.49-.07,10.11,10.11,0,0,1-3.86-.71c-1-.53-2-1.06-3.17-1.59A22,22,0,0,0,80.4,3.24a20.62,20.62,0,0,0-4.77-.59A22.72,22.72,0,0,0,70.91,3a23.79,23.79,0,0,0-3.23.78c-1.36.41-2.86,1.09-4.28,1.66A17.12,17.12,0,0,1,59,6.6a26.34,26.34,0,0,1-4.18.14l-.13,0c-.29,0-1.3-.08-2.61-.29a18.78,18.78,0,0,1-4.54-1.33,28.57,28.57,0,0,0-5.21-1.76,26.36,26.36,0,0,0-3.23-.47,25.47,25.47,0,0,0-5.92,0,19.09,19.09,0,0,0-4,.94c-1.24.43-2.29.92-3,1.25A13.33,13.33,0,0,1,23,6.18a9.15,9.15,0,0,1-1,.14,49,49,0,0,1-5.23.31,21,21,0,0,1-5.91-1.1l-.07,0v0A61.76,61.76,0,0,0,4.44,3.23,27.49,27.49,0,0,0,0,2.71V6.08S1.11,6,1.62,6a7.61,7.61,0,0,1,1.89.25A27,27,0,0,1,8.35,8.07v0a21.2,21.2,0,0,0,2.5,1,22.51,22.51,0,0,0,4,.89c.46,0,.93.05,1.4.05s.92,0,1.38,0a28.68,28.68,0,0,0,3.6.08A19.36,19.36,0,0,0,25.9,8.77c.62-.2,1.22-.42,1.79-.63a28.68,28.68,0,0,1,4.7-1.68,16.53,16.53,0,0,1,2.11-.18c.73-.06,1.23-.3,2-.41a12.27,12.27,0,0,1,3.3.07,22.78,22.78,0,0,1,3.16.79c1.4.42,2.85,1,4.42,1.58A19.52,19.52,0,0,0,51.69,10a10,10,0,0,0,1.63.13c.55,0,1.08,0,1.62,0a30.73,30.73,0,0,0,5.94-.42,17,17,0,0,0,3-.88C65,8.44,66,8,66.9,7.53a18.1,18.1,0,0,1,4.44-1.47,20.88,20.88,0,0,1,9.08.43,4.3,4.3,0,0,1,.71.26,6.74,6.74,0,0,1,.68.46,11.29,11.29,0,0,0,2.58,1.28c1,.36,2.06.62,3.09.89a23.86,23.86,0,0,0,5.4.65,23.18,23.18,0,0,0,8.56-1.2c2.44-.88,4.34-1.95,6.46-2.39A20.81,20.81,0,0,1,111.39,6a23.1,23.1,0,0,1,4,.07,12.68,12.68,0,0,1,3.73,1,25.26,25.26,0,0,0,7.78,2.66,31,31,0,0,0,7.4.26,20,20,0,0,0,5.5-1.17c.89-.33,3.12-1.2,5.26-1.82a21.91,21.91,0,0,1,5.4-.84,6.45,6.45,0,0,0,.67,0,10.36,10.36,0,0,0,1.47.23l2.33.2a10.43,10.43,0,0,1,2.69.83c1.26.52,2.83,1.3,4.17,1.7a23.45,23.45,0,0,0,4,.92c.93.08,1.85,0,2.76,0a24.6,24.6,0,0,0,3.55.11,18.79,18.79,0,0,0,4.6-1.2c.62-.18,1.21-.4,1.79-.61a33.68,33.68,0,0,1,4.67-1.73,18,18,0,0,1,2.06-.22c.74-.05,1.21-.34,1.93-.44a15.6,15.6,0,0,1,6.42.71,33.57,33.57,0,0,1,4.31,1.49,21.14,21.14,0,0,0,4.23,1.81,25.21,25.21,0,0,0,3.22.25,33.07,33.07,0,0,0,5.86-.26,15.9,15.9,0,0,0,3.06-.74,30.32,30.32,0,0,0,3-1.3,21.55,21.55,0,0,1,4.37-1.66,19.1,19.1,0,0,1,4.5-.42,20.73,20.73,0,0,1,4.49.5,3,3,0,0,1,.72.22,6,6,0,0,1,.69.41,12.56,12.56,0,0,0,2.47,1.18c.92.35,1.94.65,2.93,1a22.37,22.37,0,0,0,5.33,1,25.85,25.85,0,0,0,8.49-.74A24.61,24.61,0,0,0,254.73,8a30.23,30.23,0,0,1,3.09-1.21A17.2,17.2,0,0,1,261.2,6a24.06,24.06,0,0,1,4-.13,13.94,13.94,0,0,1,3.77.68,64,64,0,0,0,7.4,2.71,27.15,27.15,0,0,0,7.33.74,17.23,17.23,0,0,0,5.55-.92c.46-.17,1.27-.47,2.21-.86s2-.86,3-1.23a12.09,12.09,0,0,1,4.2-.94H300V2.71Z"/></svg>