<svg id="Pieces" xmlns="http://www.w3.org/2000/svg" viewBox="0 0 60 60"><defs><style>.cls-1{fill:none;}.cls-2{fill:#792f6c;}</style></defs><path class="cls-1" d="M25.26,15a.87.87,0,0,1-.09.63c1.09-.12,2.45-.25,3.82-.32,1,0,2-.06,2.86-.05l0-.08a4.14,4.14,0,0,0,.82-1.46l.06-.13a1.47,1.47,0,0,0,.16-.4,3,3,0,0,0-.13-1.86A5.56,5.56,0,0,0,31.94,10a4.5,4.5,0,0,0-4.21-1.59,3.13,3.13,0,0,0-1.42.6,4.26,4.26,0,0,0-1.58,2.13,4.34,4.34,0,0,0-.05,2.59A8,8,0,0,0,25.26,15Z"/><path class="cls-1" d="M50.47,31.19l0-.05-.34-.71c-.26-.55-.57-1.06-.82-1.61a12.33,12.33,0,0,0-4.44-5.41,7.26,7.26,0,0,0-1.2-.61,13.82,13.82,0,0,0-1.71-.69,18.55,18.55,0,0,0-1.92-.6c-.64-.18-1.23-.38-1.77-.5a33.68,33.68,0,0,0-11.65-1.08c-1.07.1-2.1.22-3.08.38l-1.28.35c-.42.14-.83.35-1.25.53a24.14,24.14,0,0,0-3.76,2.44c-.27.23-.53.5-.81.74a7.2,7.2,0,0,0-.71,1.16l-.33.59a5.7,5.7,0,0,1-.32.6,18.64,18.64,0,0,0-2.54,5.59c-.08.4-.2.87-.31,1.35l-.28,1.46c-.07.54-.13,1-.15,1.4a54,54,0,0,0,6.78-.93c1.23-.4,5.79-.74,8.64-1.1,2.42-.31,3.17-.75,5.61-.64a35.5,35.5,0,0,0,5.94-.7l2.65-.47c1.66-.29,3.33-.55,5-.77l2.84-.34.71-.08.35,0h.2c.05,0,.17,0,.11-.08Zm-6.92-2.87a2,2,0,1,1-1.89-2.13A2,2,0,0,1,43.55,28.32Z"/><path class="cls-2" d="M55.23,30.58c-.12-.37-.29-.75-.45-1.12l-.2-.47-.13-.33a11,11,0,0,0-.59-1.31,16.36,16.36,0,0,0-1.45-2.53,18.62,18.62,0,0,0-2.22-2.74,14.78,14.78,0,0,0-2.83-2.15,30.16,30.16,0,0,0-5.28-2.68,26.68,26.68,0,0,0-5-1.35,8.83,8.83,0,0,0,.43-1.77,9.09,9.09,0,0,0-.11-3.1,5.1,5.1,0,0,1,1-.58,4.86,4.86,0,0,1,2-.44,3.51,3.51,0,0,1,1.19.18,5.55,5.55,0,0,1,1.89,1.09,5.64,5.64,0,0,1,1,1.12A6.79,6.79,0,0,1,45,13.51a2.47,2.47,0,0,1,.15,1.87,4.48,4.48,0,0,1-.3,1.29,4.33,4.33,0,0,0,1.39.87,4.19,4.19,0,0,0,1,.43.9.9,0,0,0,1.25-.73A9.62,9.62,0,0,0,48.63,15a8.48,8.48,0,0,0-.84-3.3,8.23,8.23,0,0,0-2-2.68A9.7,9.7,0,0,0,44,7.82,7.3,7.3,0,0,0,41.85,7a8,8,0,0,0-3.48,0A7.58,7.58,0,0,0,36.13,8,9.7,9.7,0,0,0,34.9,6.47,9.49,9.49,0,0,0,32.8,5a9.79,9.79,0,0,0-3.34-1,8,8,0,0,0-3.57.36A8.57,8.57,0,0,0,20,12.9a7.31,7.31,0,0,0,.82,3.16l.09.15c-.32.08-.64.19-1,.29a9.49,9.49,0,0,0-1.42.53,14.41,14.41,0,0,0-4.7,3.3c-.43.53-.81,1-1.14,1.33l-.75.91a6,6,0,0,1-.65.69A6.55,6.55,0,0,0,10,25.16c-.27.71-.56,1.41-.85,2.08a15.14,15.14,0,0,0-.89,2.51,19.42,19.42,0,0,0-.5,2.43c-.25,1.6-.38,3.2-.62,5A13,13,0,0,0,7.1,39a2.63,2.63,0,0,0,.49,1.43c.5.55,1.11.26,1.73.4a17.41,17.41,0,0,0,7.39-.28c1.14-.27,5.69-.7,8.29-1.28s5.28-.51,7.87-1c.74-.14,1.43,0,2.14,0s3.47-.74,4.46-.86c3.15-.38,7.38-1.16,8.27-1.2.65,0,1.31-.12,2-.21l1-.16,1.58-.23,2.28-.31,1.14-.15.58-.07.29,0,.14,0c.05,0,.11,0,.07-.06ZM24.73,11.1A4.26,4.26,0,0,1,26.31,9a3.13,3.13,0,0,1,1.42-.6A4.5,4.5,0,0,1,31.94,10a5.56,5.56,0,0,1,.79,1.38,3,3,0,0,1,.13,1.86,1.47,1.47,0,0,1-.16.4l-.06.13a4.14,4.14,0,0,1-.82,1.46l0,.08c-.88,0-1.87,0-2.86.05-1.37.07-2.73.2-3.82.32a.87.87,0,0,0,.09-.63,8,8,0,0,1-.58-1.32A4.34,4.34,0,0,1,24.73,11.1ZM50.48,31.44h-.2l-.35,0-.71.08-2.84.34c-1.67.22-3.34.48-5,.77l-2.65.47a35.5,35.5,0,0,1-5.94.7c-2.44-.11-3.19.33-5.61.64-2.85.36-7.41.7-8.64,1.1a54,54,0,0,1-6.78.93c0-.37.08-.86.15-1.4l.28-1.46c.11-.48.23-.95.31-1.35A18.64,18.64,0,0,1,15,26.72a5.7,5.7,0,0,0,.32-.6l.33-.59a7.2,7.2,0,0,1,.71-1.16c.28-.24.54-.51.81-.74A24.14,24.14,0,0,1,21,21.19c.42-.18.83-.39,1.25-.53l1.28-.35c1-.16,2-.28,3.08-.38A33.68,33.68,0,0,1,38.23,21c.54.12,1.13.32,1.77.5a18.55,18.55,0,0,1,1.92.6,13.82,13.82,0,0,1,1.71.69,7.26,7.26,0,0,1,1.2.61,12.33,12.33,0,0,1,4.44,5.41c.25.55.56,1.06.82,1.61l.34.71,0,.05.12.17C50.65,31.44,50.53,31.42,50.48,31.44Z"/><path class="cls-2" d="M43.18,46.79c-.08-.14-.2-.41-.34-.74a5.56,5.56,0,0,0-.56-1.12,7.31,7.31,0,0,0-.83-1.15,12.35,12.35,0,0,0-1-.89c-.64-.36-1.17-.9-1.82-1.23a9.12,9.12,0,0,0-1-.53,9.32,9.32,0,0,0-1-.33,10.54,10.54,0,0,0-1.08-.43,7.55,7.55,0,0,0-1.13-.08c-.5,0-1,0-1.28,0A17,17,0,0,0,29,41a7.25,7.25,0,0,0-1.89.63,27.22,27.22,0,0,0-4.81,2.23A19.33,19.33,0,0,0,20,45.45a9.54,9.54,0,0,1-2,1.18,15.94,15.94,0,0,1-2.68.93l-.05,0c-.2,0-1.24.28-2.32.41a7.26,7.26,0,0,1-2.31,0,5.45,5.45,0,0,0-.54-.14l-.83-.29a9.19,9.19,0,0,1-1.48-.83,1.91,1.91,0,0,1-.63-.6,1.32,1.32,0,0,1-.1-.27,1.42,1.42,0,0,0-.29-.59,1.22,1.22,0,0,1-.33-.57c-.09-.27-.1-.54-.19-.79s-.09-.51-.1-.77a2.61,2.61,0,0,1,.39-1.6c.18-.32.5-.7.29-1.09A5.72,5.72,0,0,0,4.56,39c-.38-.15-.68.16-.88.54a2.49,2.49,0,0,0-.25,1,10.8,10.8,0,0,0-.56,3,8.12,8.12,0,0,0,1,4,5.35,5.35,0,0,0,.62.72c.22.22.49.4.71.61a5.38,5.38,0,0,0,.52.55,5.71,5.71,0,0,0,2.74,1.5,15.82,15.82,0,0,0,3.52.33,20.36,20.36,0,0,0,6.3-1,12.42,12.42,0,0,0,3.35-2.11,10.56,10.56,0,0,1,1.62-1c.56-.28,1.16-.62,1.65-.83,1-.52,1.9-1.19,2.94-1.61.37-.14.74-.3,1.13-.41l1.15-.31c.34-.09.68-.13,1-.21l.51-.12.51-.06a8.25,8.25,0,0,1,1.1-.13,8.69,8.69,0,0,1,1.23,0,3.85,3.85,0,0,1,1.14.35,2.73,2.73,0,0,0,1,.48c.27.13.57.21,1,.43l.68.54c.24.21.41.48.62.69a4.62,4.62,0,0,1,.45.67c.13.19.28.32.34.42a2.38,2.38,0,0,1,.3.52l.17.39.09.46a4.52,4.52,0,0,1,.13.93c0,.29,0,.53,0,.67-.06.58.8.54.8.54a11,11,0,0,1,1.45,0c.6.07,1.29,0,1.1-.49a9.58,9.58,0,0,1-.14-1.54A8.61,8.61,0,0,0,43.18,46.79Z"/><path class="cls-2" d="M41.66,26.19a2,2,0,1,0,1.89,2.13A2,2,0,0,0,41.66,26.19Z"/></svg>