<svg id="Pieces" xmlns="http://www.w3.org/2000/svg" viewBox="0 0 35 35"><defs><style>.cls-1{fill:#fff;}</style></defs><path id="Twitter" class="cls-1" d="M31.83,5.33a12.1,12.1,0,0,1-3.95,1.54,6.15,6.15,0,0,0-4.55-2,6.31,6.31,0,0,0-6.22,6.38,6.85,6.85,0,0,0,.16,1.45A17.49,17.49,0,0,1,4.44,6,6.6,6.6,0,0,0,3.6,9.24a6.43,6.43,0,0,0,2.77,5.31,6,6,0,0,1-2.82-.8v.08a6.35,6.35,0,0,0,5,6.26,5.9,5.9,0,0,1-1.64.22,6.45,6.45,0,0,1-1.17-.11,6.25,6.25,0,0,0,5.82,4.43,12.31,12.31,0,0,1-7.73,2.73,14.56,14.56,0,0,1-1.49-.08,17.41,17.41,0,0,0,9.54,2.86c11.45,0,17.71-9.72,17.71-18.16,0-.27,0-.55,0-.82a12.73,12.73,0,0,0,3.11-3.31,12.37,12.37,0,0,1-3.58,1A6.34,6.34,0,0,0,31.83,5.33Z"/></svg>