<svg id="Pieces" xmlns="http://www.w3.org/2000/svg" viewBox="0 0 60 60"><defs><style>.cls-1{fill:#fff;}</style></defs><path class="cls-1" d="M38,26.16c2.79.57,3.62-3.83.81-4.32S35.19,25.67,38,26.16Z"/><path class="cls-1" d="M21.77,26.16c2.79.57,3.62-3.83.81-4.32S19,25.67,21.77,26.16Z"/><path class="cls-1" d="M28.69,34.69A11.44,11.44,0,0,1,27.76,39c-.43,1.38-1,3-2.75,3.7s-4.41-3.4-4.38-4.63c.1-.62-.14-.75-.29-1.32-.09-1.59-.69-2.6-.44-4,.08-.36-.78-.32-.78-.32s-.85,0-1.45,0-1.29,0-1.11.27c-.1,2.1.78,4.59,1,6.82,0,.31.46.81.62,1.09s.44.8.67,1.19a15,15,0,0,0,1.55,2.31c1,1.22,3.07,2.68,4.74,1.88a14.62,14.62,0,0,0,2.09-.94A8.59,8.59,0,0,0,29,43.52c.4-.11,1.31-2,1.54-2.63a12.31,12.31,0,0,0,3.95,4.78s.4.74,1.85.56a8.6,8.6,0,0,0,4.83-2.71c.45-.05,1.6-2.72,1.73-3,.5-.49.77-2.59,1.08-3.35.45-1.2,0-2.5.36-3.73.09-.28.19-.66-.17-.83-.09-.1-4-.62-3.12.75-.25,2.1.4,2.63-.26,4.71-.44.83-1.22,2.52-1.85,2.93-.65.65-2.13,2.62-2.95,1.69a7.53,7.53,0,0,1-3.16-4.55c0-1-.51-2-.5-3,0,0-.54-2-1.54-2S28.61,33.33,28.69,34.69Z"/><path class="cls-1" d="M32.67,36.78c6-5.71,2.1-8.12-1.78-8.36-5.06-.32-7.41,2.9-2.59,8.33A3.06,3.06,0,0,0,32.67,36.78Z"/><path class="cls-1" d="M24.79,45.19c1.61,5.32,10,5.52,11.52,0l-1.85-.56a3.9,3.9,0,0,1-.86,1.49c-1.72,2.45-6.31,1-6.75-1.44a3.58,3.58,0,0,1-.09-.35Z"/><path class="cls-1" d="M12.33,17.82h0S12.33,17.84,12.33,17.82Z"/><path class="cls-1" d="M9.19,20.82a29.49,29.49,0,0,0-1.83,8.55c-.55,2-1.93,4.54-1.42,6.63A5.64,5.64,0,0,1,5,38.48c-.9,2.59-.75,5.74-1.61,8.31C3,48,1.62,50.73,2,52a6.67,6.67,0,0,1-.61,2.61c0,.86,1.76.65,3,1.12.81.22,1.77.36,1.59,0s.49-1.53.46-1.93a51.45,51.45,0,0,1,1-5.33c.54-.67.36-1.27.45-2.16.25-1,.34-2.47.48-2.74A20.87,20.87,0,0,1,9.85,39c.47-1.93.27-3.69,1.15-6,.37-1.23.19-4.21.76-6s.18-3,1.58-4.51C13.76,21,10.76,18,9.19,20.82Z"/><path class="cls-1" d="M20.45,9.63h0C16.73,6,17.52,1.44,11.14,5.82,4.61,11-.31,14.85,9.28,20.6a2,2,0,0,0-.09.22c1.53-.62,2.82,1,4.15,1.71l.12-.15c3.3-1.34,2-6.74,1.77-9.37,0-.39,0-.92-.44-1.08s-4.2.22-2.81,1.8a14,14,0,0,1,.27,4.38A5.94,5.94,0,0,1,9.1,15.88c-.74-.82-2-1.27-1-2.19C10.24,12,13,8.78,14.4,8.41c.36-.37.74,1.48.84,1.62,1.21,2.34,2.75,3.21,3.87,5.26.65.57.65-.25,1.92-.95a4,4,0,0,0,.8-.55A15,15,0,0,1,20.45,9.63Z"/><path class="cls-1" d="M20.45,9.63c-1.69,1.41.31,5.41,1.38,4.16.35-.3.35-.47.93-.75,1.34-.93,5.61-1.53,6.37-1.33A14.7,14.7,0,0,1,37,13.66c1.72.38,3.72-2.62,1.71-4.49A20.81,20.81,0,0,0,20.45,9.63Z"/><path class="cls-1" d="M50.5,19.94c2.27-1,5.86-3.83,4.08-6.55a19,19,0,0,0-5.82-7.14C43.27,2.44,42,4.76,38.82,9.2l-.07,0c-.06,1.49-1.18,3-1.71,4.49a6.59,6.59,0,0,1,1.37,1.14c.62.57,1.41,1.11,1.43.7s1.25-1.38,1.42-1.82c1.18-1.11,2.69-6.59,5.31-4.1,1.72,1.15,2.8,3,4,4.57.78.95,0,1.25-.88,1.89-.59.05-2.24,2-3.27,1.91.27-1.44.05-2.83.57-4.27.78-1.53-1.09-1.56-2.62-1.81-.81-.07-.73,1-.65,1.23-.65,2.51-3,10.7,2.48,9l.06.24a24.45,24.45,0,0,1,4.23-2.19C50.51,20.08,50.5,20,50.5,19.94Z"/><path class="cls-1" d="M58.55,54.69c-1.14-4.47-2.5-9.51-3.54-14.18,0-3.13-1.39-5.13-1.83-8.45.24-.32-.86-3.36-.82-3.76.21-.55-.92-3.41-.77-4-.05-1.44-1.09-2.67-1.08-4.16-1.75-2.1-4.75-1.1-4.23,2.19.37,1.31,1,2.83.85,3.77C46.76,28,48.42,29.38,48.76,30c1.29,3.7.13,5.67,1.42,9.55-.09,3.1,1.93,5.79,2.19,8.76-.22.87.17,1.06.35,1.85s.32,2.46.65,2.82A6.61,6.61,0,0,1,54,55.63c.34.77,1.88-.18,3.14-.28C57.93,55.19,58.85,54.91,58.55,54.69Z"/></svg>