<svg id="Pieces" xmlns="http://www.w3.org/2000/svg" viewBox="0 0 24 24"><defs><style>.cls-1{fill:#792f6c;}</style></defs><path class="cls-1" d="M15,14c-.59.67-3,3.18-4,4.05a19.22,19.22,0,0,1-3,2L7,19l-.66-1.39c-.91-1,0-1.14.69-2S8.56,14.33,9,13.83A35.87,35.87,0,0,1,12,11c1-1,2-1.93,2-1.93.59-.67,1.19-.87,2.17-1.74a26.84,26.84,0,0,0,2.47-2.67s.79-1.36,1.66.24l1.34,1.51c.91,1,0,1.14-.69,2S19.44,9.67,19,10.17A16.37,16.37,0,0,1,17,12Z"/><path class="cls-1" d="M6.71,19.05c.88.67,1,1.59,2,.68l2.11-1.86c.41-.37.2-.79-.14-1.12-.17-.16-.38-.28-.56-.44a5.05,5.05,0,0,1-.53-.6,6.93,6.93,0,0,0-.7-.84L8,14a6.28,6.28,0,0,0-1-1c-.89-.68-.71-1.64-1.73-.73L3.16,14.13c-.82.73,1.17,2,1.17,2A17.2,17.2,0,0,0,6.71,19.05Z"/></svg>