<svg id="Pieces" xmlns="http://www.w3.org/2000/svg" viewBox="0 0 60 60"><defs><style>.cls-1{fill:#fff;}</style></defs><path class="cls-1" d="M56.29,4.74s-2.36-.36-3.2-.45-.64.55-.4,1.23-.13,3.84,0,4.77,0,4.58.21,6.7-.16,4.23,0,6.34c0,.6-.23,1.13-.23,1.7s.29,2.82.29,3.62c0,2.53.21,6,.14,6.68l0,.38v.07l0,.07a2.63,2.63,0,0,1-.1.3,12.65,12.65,0,0,1-.48,1.24,9.28,9.28,0,0,1-2.2,2.86,10.59,10.59,0,0,1-1.42,1.1l-.74.51-.78.43c-1.21.73-2.54,1.21-3.88,1.87a7.65,7.65,0,0,1-1.48.41c-.33.06-.67.15-1.06.2l-1.21.07-1.28.07-1.29-.08a17.4,17.4,0,0,1-2.34-.24s0,0-.07-.05a8.61,8.61,0,0,0-1.48-.29l-2.92-.4c-2.18-.38-4.46-.33-4.92-.44A22.68,22.68,0,0,0,22,43.32c-.77,0-1.57.16-2.31.25l-1.05.17c-.32.08-.61.17-.87.25-1,.32-1.71.43-2.17.57a3.63,3.63,0,0,1-.72.13c-1.2,0-2.19,1-3.26,1.38a18.29,18.29,0,0,0-1.87,1c-.57.4-1.08.82-1.6,1.22L5,51.1c-.69.57-1.56,1.54-1.46,2.33a2,2,0,0,0,1.07,1.21c.61.36,1.37.68,2,1a1,1,0,0,0,1.22-.46,4.75,4.75,0,0,0,.64-1.1c.1-.41,1.85-1.67,2.91-2.39a10.26,10.26,0,0,1,2.14-1.17c.38-.16.79-.28,1.17-.43s.76-.31,1.15-.42c.71-.22,1.32-.74,2.07-.93l.92-.13c.62-.1,1.3-.13,2-.22s1.33-.23,2-.28a19.78,19.78,0,0,1,2.38-.24c.79,0,1.58,0,2.42.11s1.53.26,2.31.4l2.45.47,2.64.51,2.7.26a7,7,0,0,0,1.8-.06c.65-.07,1.32-.18,2-.29,1.28-.36,2.44-.71,3-1a37.7,37.7,0,0,0,6.55-2.73,14.85,14.85,0,0,0,4.81-5.45A18.22,18.22,0,0,0,57,37.74l.12-.32L57.3,37l.15-.53a4.89,4.89,0,0,0,0-.54V34.68c0-1.35,0-2.69-.12-4l-.14-2.15a23.72,23.72,0,0,1,.06-4.77c.42-1.93.08-2.57.08-4.52,0-2.29.24-5.94,0-7a38.72,38.72,0,0,1,0-6.46C57.49,4.59,56.29,4.74,56.29,4.74Z"/><path class="cls-1" d="M56.25,5s-.3,0-.69-.12-.89-.22-1.29-.35c-.81-.23-1.73-.47-1.68.09a3.89,3.89,0,0,1-.74,1.68c-.44.69-1,1.34-1.17,1.67a8.49,8.49,0,0,1-1.59,1.77c-.8.71-1.78,1.38-2.51,1.91a12.08,12.08,0,0,1-1.18.63,7.22,7.22,0,0,1-1.3.39c-.86.29-1.8.32-2.68.58-.5.17-1-.13-1.51-.08-.21,0-.82.12-1.48.24s-1.38.08-1.74.07c-1.14,0-2.51-.21-3.67-.32s-2.26-.25-2.59-.34a14.21,14.21,0,0,0-3.2-.37c-.71,0-1.42-.09-2.14-.16s-1.45-.06-2.18-.11a14.94,14.94,0,0,0-2.22,0c-.74,0-1.49.07-2.24.18s-1.76.35-2.63.6a16.09,16.09,0,0,0-2.48,1.09c-.35.22-.93.51-1.65.86s-1.52.83-2.35,1.38A22.24,22.24,0,0,0,4.9,20l-.09,0a6.89,6.89,0,0,0-1.17,1.38,9.61,9.61,0,0,0-.63,1c-.09.19-.27.36-.27.58l0,.68,0,1.81c0,2.05.09,4.12,0,4.55a56.11,56.11,0,0,0-.07,6.91,11.22,11.22,0,0,1,0,2,4.22,4.22,0,0,1-.1.64c-.32,1,.11,2.1.06,3.12-.14,2.65.42,4.64,0,7.27a6.4,6.4,0,0,0,.81,3.46c.5.48,1.65,2.47,3.11,2.21,1.12-.21.84-5.41.68-5.82s.13-2.75.09-4.17c0-1.74.26-3.63.26-5.4,0-.82-.24-1.63-.3-2.45l.09-1a23.09,23.09,0,0,0,0-4.24,41.76,41.76,0,0,1-.25-5l.08-2.41,0-.61c0-.08,0-.26,0-.25v0c0-.06.06-.08.12-.13a15.25,15.25,0,0,1,3.08-2.85c.32-.26.71-.55,1.11-.85l.6-.5.64-.46A22.19,22.19,0,0,1,15,18,12,12,0,0,1,20.47,17c.48,0,1-.05,1.42-.1l1.42-.07,1.43-.1c.48,0,1,0,1.45.06.69.07,1.39.06,2.08.19l2.08.34.92.13,1,.13,2.08.21a16.7,16.7,0,0,0,2.24,0h1.81l.7-.05a18.08,18.08,0,0,1,2.52,0,9.07,9.07,0,0,0,2.42-.25c.68-.19,1.33-.52,2.35-.84a21.54,21.54,0,0,0,4-1.91A11.2,11.2,0,0,0,52,13.48a4.12,4.12,0,0,0,.92-1c.33-.47,1.31-1.56,2.14-2.79a21.38,21.38,0,0,0,1.83-3.2,1,1,0,0,0-.1-1.25A1,1,0,0,0,56.25,5Z"/><path class="cls-1" d="M34.47,23.86a10.08,10.08,0,0,1,.67-1.1c.33-.42.56-1,.08-1.09-.23,0-.77-.35-1.38-.6a5.78,5.78,0,0,0-1.57-.45,12.84,12.84,0,0,0-1.91-.11,7,7,0,0,0-2.44.45,10.4,10.4,0,0,0-3.63,1.92c-.27.28-.66.37-.91.66a12.51,12.51,0,0,0-1.26,2A8.68,8.68,0,0,0,21.23,28,16.44,16.44,0,0,0,21,29.7a3.79,3.79,0,0,0,0,1,5.59,5.59,0,0,0,.13,1,10.49,10.49,0,0,0,2,5,6.52,6.52,0,0,0,2.64,2,15.32,15.32,0,0,0,2.62.92,10.58,10.58,0,0,0,3.45.19l.06,0A7.48,7.48,0,0,0,34.77,39a12.1,12.1,0,0,0,2.48-1.76,7.82,7.82,0,0,0,2.51-3.88c.14-.61.25-1,.33-1.31a2.24,2.24,0,0,1,.13-.42,4.84,4.84,0,0,0,0-2.11,6.65,6.65,0,0,0-.55-2.38c-.3-.73-.65-1.41-1-2.21-.22-.48-.62-1.1-1.08-1.12s-1.27.8-1.86,1.53c-.42.55.36,1.1.54,1.23A5.27,5.27,0,0,1,37,28.38a6.19,6.19,0,0,1,.07,2.5c0,.37,0,.77,0,1.15a2.35,2.35,0,0,1-.19.43c-.27.58-.6,1.19-.9,1.75A4.72,4.72,0,0,1,34.4,36a6.42,6.42,0,0,1-4.41.89c-.44-.06-1-.1-1.56-.19a8.06,8.06,0,0,1-1.31-.32,4.36,4.36,0,0,1-2-2.09,9.3,9.3,0,0,1-1.2-2.62,8.51,8.51,0,0,1-.08-2.08,10.2,10.2,0,0,1,.37-1.81,6.67,6.67,0,0,1,.35-.94A3.7,3.7,0,0,1,26,25.12c.84-.37.95-.71,1.77-1.1a6.24,6.24,0,0,1,1.75-.46c.6-.08,1.14-.06,1.38-.13a3.27,3.27,0,0,1,1.46.14,4.67,4.67,0,0,1,1.39.64C34.13,24.53,34.47,23.86,34.47,23.86Z"/><path class="cls-1" d="M45,39.53a8.52,8.52,0,0,1,.87-.09c.36,0,.77-.09.66-.24s0-.89.05-1.08A4.45,4.45,0,0,1,47,36.74c.15-.44.61-.65.93-1a.25.25,0,0,1,.14-.06l.37-.11.09-.12c.05-.08.17-.27.26-.43s.21-.41.29-.56L49,34l0-.36,0-.28-.06-.55a5.57,5.57,0,0,1-.06-.73,5,5,0,0,0-.05-.86c-.07-.76.08-1.54.07-2.32a4.88,4.88,0,0,0-.15-1.37,18.54,18.54,0,0,1-.16-2.63l0,0c.07-.26-.15-2-.17-3.08v-.65c0-.07,0-.19,0-.21H47a3.22,3.22,0,0,1-.54,0h-.41c-.43,0-.56-.16-.56-.16-.17-.18-.44-.1-.63-.23-.44-.31-.94-.45-1.13-1,0-.17-.1-.37-.33-.37a5.24,5.24,0,0,0-1.54.54c-.43.28.1.89.24.94a8,8,0,0,0,.94,1.11,5.65,5.65,0,0,0,1.59,1,3,3,0,0,0,.84.09l.33.1a1.86,1.86,0,0,0,.34.07l.23,0,.06,0c.06-.05.09-.05.11,0s0,0,0,.18c0,.89,0,1.84,0,2.75a7.94,7.94,0,0,0,.33,1.73,5.66,5.66,0,0,1-.06,1.74,14.52,14.52,0,0,0,.11,1.74l0,1.26c0,.36.06.73.11,1.1l0,.29,0,.15,0,0,0,0s0,.07,0,.09a.14.14,0,0,1-.09,0s0,0-.16,0c-.64.22-.73.49-1.16,1a4,4,0,0,0-1.06,2.06c0,.35-.22,1.69-.19,2.06S45,39.53,45,39.53Z"/><path class="cls-1" d="M17.4,42.15s.47-.22.81-.33.69-.36.48-.54a7.75,7.75,0,0,0-1-1.34,9.62,9.62,0,0,0-.84-.59,3.57,3.57,0,0,0-1.23-.48c-.35,0-.7-.14-1-.19a3.19,3.19,0,0,0-.53-.06H13.9l0,0s0-.1,0-.1-.14.07-.14,0l-.07-.85a5.39,5.39,0,0,1-.05-.75,4.33,4.33,0,0,0,0-.88c-.05-.78.11-1.59.11-2.38a5.22,5.22,0,0,0-.13-1.42,18.72,18.72,0,0,1-.12-2.7l0,0c.07-.18-.14-2.38-.1-2.55l0,0,0,0h0l.12-.09a2.52,2.52,0,0,0,.25-.21,2.75,2.75,0,0,0,.38-.41,3.93,3.93,0,0,1,.61-.74c.31-.25.32-.7.47-1A8.25,8.25,0,0,0,15.54,22c0-.26,0-.62-.21-.74a3.52,3.52,0,0,0-1.62.22c-.47.14-.19.61-.13.7a1.26,1.26,0,0,1,0,.42c0,.19-.06.41-.09.57A2.84,2.84,0,0,1,13,24.23c-.08.15-.1.35-.19.5l-.17.15c-.1.06-.19.14-.29.21a2.92,2.92,0,0,1-.45.33l-.23.41-.07.12-.25.52c.07.74.09.88.1,1.27,0,.91,0,1.89-.08,2.82a7.85,7.85,0,0,0,.31,1.78,6.26,6.26,0,0,1-.08,1.78,13.41,13.41,0,0,0,.08,1.79l0,1.29a10.54,10.54,0,0,0,.1,1.13c0,.13.06.56.09.92S12,40,12,40.44c0,0,0,.15,0,.13h.47a4.07,4.07,0,0,1,.51,0c1.13.08,1,0,1.52,0a6.45,6.45,0,0,1,1.41.55c.27,0,.89.77.92,1S17.39,42.13,17.4,42.15Z"/><path class="cls-1" d="M33.32,31.67a3.11,3.11,0,0,0-.07-.44,1.29,1.29,0,0,0-.47-1.05,3.49,3.49,0,0,0-.56-.53c-.06,0-.09-.1-.15-.14s-.3-.13-.38-.17c-.25-.13-.62-.24-.67-.28l-.3-.13a1.81,1.81,0,0,1-.62-.47,2.2,2.2,0,0,1-.18-.28.59.59,0,0,1,.19-.63,2.53,2.53,0,0,1,.3-.15,1.08,1.08,0,0,1,.4-.07l.66.08a.42.42,0,0,1,.24.08.22.22,0,0,0,.13.06,2,2,0,0,1,.29.12l.4.23.17-.51.1-.24a.61.61,0,0,1,.07-.14c0-.07,0-.17.05-.25s.2-.27.12-.31-.15-.17-.27-.17-.33-.18-.42-.2a2.89,2.89,0,0,0-.62-.14,1.85,1.85,0,0,1-.27,0s0,0,0,0,0,0,0,0,0,.06,0-.08,0-.24,0-.35,0-.33,0-.38,0-.21,0-.31h-.18c-.37,0-.75,0-1.21-.06v.14a3.61,3.61,0,0,0,0,.71,1.79,1.79,0,0,1,0,.37C30,26,30,26,30,26l-.24.09c-.19.07-.37.18-.41.19a1.58,1.58,0,0,0-.57.43.68.68,0,0,1-.18.21c-.1.06-.1.19-.16.28a.9.9,0,0,0-.18.8c0,.06,0,.23,0,.28v.32a1.33,1.33,0,0,0,.51.95,3,3,0,0,0,.56.47c.05,0,.08.1.14.13s.29.11.36.15c.25.13.6.23.65.26s.19.08.28.12a1.67,1.67,0,0,1,.57.47,2.55,2.55,0,0,1,.21.28.68.68,0,0,1-.06.67,1.54,1.54,0,0,1-.23.23.78.78,0,0,1-.33.16,4.23,4.23,0,0,1-.6,0,.36.36,0,0,1-.24,0c-.08-.06-.19,0-.28,0a1.84,1.84,0,0,1-.64-.24c-.05,0-.12-.11-.2-.07s-.25-.17-.34-.15-.23.22-.21.33-.15.35-.17.47-.11.3-.16.52a2.75,2.75,0,0,0,.59.34,4.08,4.08,0,0,0,.67.23c.06,0,.11.07.17.08l.4,0H30a.13.13,0,0,1,0,0,1.49,1.49,0,0,0,0,.3c0,.12,0,.51,0,.91l.5,0a7,7,0,0,0,.92,0v-.05c0-.08,0-.2,0-.34v-.4c0-.17,0-.36,0-.5s0,0,0,0l.1,0,.15,0,.19-.07a1.83,1.83,0,0,0,.69-.44,2,2,0,0,1,.23-.23A1.78,1.78,0,0,0,33.32,31.67Z"/></svg>