<svg id="Pieces" xmlns="http://www.w3.org/2000/svg" viewBox="0 0 60 60"><defs><style>.cls-1{fill:#792f6c;}</style></defs><path class="cls-1" d="M16.86,47.48a13.59,13.59,0,0,1,1.64-1.67c.74-.6,1.39-1.53.66-1.92a6.41,6.41,0,0,1-1.64-2.1c-.59-1-1-2.13-1.26-2.6-.12-.25-.29-.69-.5-1.24a18.07,18.07,0,0,1-.46-2A23.22,23.22,0,0,1,15,31.48c0-2.55,1.34-4.85,2.54-7A12,12,0,0,1,19,23.07c.22-.21.6-.83,1.33-1.65s1.36-1.6,1.75-2c2.48-2.44,5.62-6,6.37-6.6A19.92,19.92,0,0,0,30,11.34l.37-.39.19-.2,0-.05.15-.19a1.48,1.48,0,0,1,.25-.25,2.55,2.55,0,0,1,.32.46l0,.06,0,0,.08.1.41.47.82.94C33.77,13.56,34.86,14.83,36,16a45.83,45.83,0,0,0,5,4.72c.21.16.46.39.76.65s.65.6.93.91.65.65,1,1.06.64.82.92,1.29a15.67,15.67,0,0,1,2.18,5.88,1,1,0,0,0,0,.1,24.44,24.44,0,0,1,0,5.3,14.54,14.54,0,0,1-.36,1.79c-.15.57-.35,1.09-.5,1.57a10.86,10.86,0,0,1-.88,1.8A21.6,21.6,0,0,1,42.7,44a21.91,21.91,0,0,1-3.49,3,7.49,7.49,0,0,1-1.22.74,4.34,4.34,0,0,1-.91.37,4.06,4.06,0,0,1-.76.16c-1.23,0-2.36.85-3.62.89a25.49,25.49,0,0,1-4.37,0,8.93,8.93,0,0,1-4.13-1.38c-.8-.5-1.77-1.27-2.57-1.15S19.47,48.38,18.81,50c-.25.59.38,1.31,1.21,1.82a10,10,0,0,0,1.25.6,4.61,4.61,0,0,0,.89.23,5.15,5.15,0,0,1,.94.36c.44.19,1,.39,1.61.63s1.3.4,2,.59,1.32.25,1.89.33a22.54,22.54,0,0,0,8.67-.5,8.64,8.64,0,0,0,1.82-.79c.6-.3,1.14-.68,1.71-1a12.75,12.75,0,0,0,1.44-.7,15.23,15.23,0,0,0,5.12-4.45A27.24,27.24,0,0,0,51,40a22.11,22.11,0,0,0-.28-15.33,15.24,15.24,0,0,0-3-4.56c-.64-.67-1.34-1.28-1.89-1.76l-1.3-1a51.4,51.4,0,0,1-5.84-6.4c-.89-1-1.86-2-2.84-2.93L33.76,6,31,3.24,30.27,4l-6,5.93c-1.3,1.3-2.57,2.65-3.81,4l-2,2.19c-.55.62-1.39,1.53-2.26,2.41-.46.51-.93,1-1.37,1.47s-.78.91-1.11,1.23a8.54,8.54,0,0,0-1.22,1.52c-.15.24-.3.47-.43.69l-.31.7a29.29,29.29,0,0,0-1.15,3.37,23.51,23.51,0,0,0-.92,6.1,17,17,0,0,0,.22,2.82,6.82,6.82,0,0,0,.46,1.81c.17.37.34,1.06.67,1.87.16.4.31.86.5,1.31l.64,1.4a27.42,27.42,0,0,0,2.71,4.34C16.05,48.64,16.86,47.48,16.86,47.48Z"/><path class="cls-1" d="M32.82,22.83s-1.1,2.78-.71,2.71a3.71,3.71,0,0,1,1.33.22,2.79,2.79,0,0,1,1.2.66c.12.16.52.63.85,1.12a11.13,11.13,0,0,0,.77,1.08c.41.27.4.28,1.56-.24s2.46-1.12,2.5-1.49a5,5,0,0,0-1-1.71c-.57-.74-1.26-1.36-1.36-1.53a5.37,5.37,0,0,0-.95-1,5.09,5.09,0,0,0-1.47-.92,1.88,1.88,0,0,1-1-.62c-.26-.12-.52-.23-.79-.33A11.39,11.39,0,0,0,32.82,22.83Z"/><path class="cls-1" d="M37.71,30.67a2.2,2.2,0,1,0,3-.77A2.2,2.2,0,0,0,37.71,30.67Z"/></svg>