<svg id="Pieces" xmlns="http://www.w3.org/2000/svg" viewBox="0 0 60 60"><defs><style>.cls-1{fill:#fff;}</style></defs><path class="cls-1" d="M46.64,43.64a8.93,8.93,0,0,0-.47-1.17c-.2-.4-.48-.84-.64-1.09-.74-1.16-1.59-2.46-2.3-3.36-1.41-1.77-2.29-3.92-3.62-5.75a3.77,3.77,0,0,1-.43-.85,4.53,4.53,0,0,0-.52-1,11,11,0,0,0-1.58-1.54A22,22,0,0,0,35,27.49a12.22,12.22,0,0,0-4.84-1.75,15.55,15.55,0,0,0-3.38-.06,9.65,9.65,0,0,0-3.87,1,13.43,13.43,0,0,0-2,1.13c-.82.53-1.46,1.53-2.3,2a6.12,6.12,0,0,0-2,1.8c-.45.61-.86,1.25-1.29,1.89a32.39,32.39,0,0,0-2.72,4.66,17.35,17.35,0,0,1-.9,1.63l-1.49,2.41a8.24,8.24,0,0,0-1.05,4,8.09,8.09,0,0,0,.85,3.65s0,.08,0,.12a6,6,0,0,0,1.39,2,7.88,7.88,0,0,0,8.32,1.79c.71-.27.87-.37,1.17-.48a3.26,3.26,0,0,1,.55-.19c.41-.11,1.59-.45,2.92-.68a34.34,34.34,0,0,1,3.7-.42,6.41,6.41,0,0,1,1.95.09,2.11,2.11,0,0,1,.6.18c.91.44,2,.26,3,.61l1.72.63.49.18a6.69,6.69,0,0,0,.68.22,9.06,9.06,0,0,0,1.3.22,16.51,16.51,0,0,0,5-.41,4.88,4.88,0,0,0,2.28-1c.59-.55.51-1.23.63-2a13.83,13.83,0,0,1,1-2.34,6.69,6.69,0,0,0,.32-3A11.88,11.88,0,0,0,46.64,43.64Zm-9.4,5.44a10.1,10.1,0,0,0-1.17-.51c-.56-.2-1.17-.2-1.73-.37a18,18,0,0,0-2.14-.85,16,16,0,0,0-3,0L28,47.19a17.08,17.08,0,0,0-3.56.37c-.51.08-1.05,0-1.55.11s-.81.51-1.27.78a10.37,10.37,0,0,1-2.14.84l-.59.18-.28.09a.74.74,0,0,1-.18,0c-.22,0-.45.08-.65.11a3.32,3.32,0,0,1-1.85,0c-.61-.25-.63-1.11-.93-1.43a3.21,3.21,0,0,1-.72-.75A2.76,2.76,0,0,1,14,45.68a7.74,7.74,0,0,1,.25-1,2,2,0,0,1,.1-.26c0-.09.07-.17.16-.34l.44-.87,1.34-2.79a49.82,49.82,0,0,1,3.07-5,1.66,1.66,0,0,1,.31-.39A9.5,9.5,0,0,0,21,34c.44-.49.63-1.15,1.1-1.63A7.84,7.84,0,0,1,24,31,8.56,8.56,0,0,1,27.75,30a10.48,10.48,0,0,1,3.38.44,11,11,0,0,1,1.7.72,7.17,7.17,0,0,1,1.67,1.28,5.9,5.9,0,0,1,.71.91,4.73,4.73,0,0,1,.45.9c.76,2,1.41,2.37,2.53,4.14.65,1,1.45,2.42,2.19,3.64.36.6.71,1.17,1,1.64l.4.58c.08.11.16.19.22.26a2.58,2.58,0,0,1,.48,1.94,3.3,3.3,0,0,1-1,1.94A3.59,3.59,0,0,1,37.24,49.08Z"/><path class="cls-1" d="M13.65,25.16a6.38,6.38,0,0,0,.43-1.54,6.39,6.39,0,0,0-.47-2.8c-.08-.23-.18-.47-.28-.7s-.33-.12-.39-.77-.64-1-1.06-1.44a7.74,7.74,0,0,0-.78-.73,7.46,7.46,0,0,0-1.53-1c-.17-.08-.32-.23-.5-.22C8,16,7.71,15.53,7,15.41a15.46,15.46,0,0,0-1.73-.16,3,3,0,0,0-2.38,1.12,5.46,5.46,0,0,0-.53,1.09c-.26.68-.45,1.41-.5,1.59-.14.54.27,1.77-.42,3.14-.41.81.1,1.67.48,2.62a7.85,7.85,0,0,0,1,1.81,6.43,6.43,0,0,0,.67.72,5.2,5.2,0,0,0,.65.51,6.21,6.21,0,0,0,2.21.94,7.1,7.1,0,0,0,2.74-.06,6.3,6.3,0,0,0,2.93-1.47A8,8,0,0,0,13.65,25.16ZM8.86,24c-.27.48-.82.7-1.78.35a1.67,1.67,0,0,1-.67-.43c-.93-1-.65-2.37-.39-3.54l.12-.45s0,0,.06,0l.38.09a5.19,5.19,0,0,1,1.35.58,2.06,2.06,0,0,1,.94,1.24A3,3,0,0,1,8.86,24Z"/><path class="cls-1" d="M16.16,16.19a6.28,6.28,0,0,1,.56,1,1.53,1.53,0,0,1,.11.36c.08.66.83.88,1.22,1.29A7,7,0,0,0,24,20.75a3.74,3.74,0,0,0,1.4-.48,13.11,13.11,0,0,0,1.38-1A4.48,4.48,0,0,0,28,17.55c.4-1.06,1.15-2,1.22-3.05,0-.42.33-.73.35-1.17a9.2,9.2,0,0,0-.25-1.53,5.91,5.91,0,0,0-.6-2.08,20,20,0,0,0-2.63-4C25.51,5,24.08,3,23,3c-.63,0-1.72,1.11-2.14,1.53-.21.21-.56.5-1,.82L19,6.1a17.23,17.23,0,0,0-1.78,1.72H17.2a5.09,5.09,0,0,0-1.24,2,7.45,7.45,0,0,0-.44,1.66c0,.52-.08.9-.09,1a5.67,5.67,0,0,0,0,1.66A5.33,5.33,0,0,0,16.16,16.19ZM19.93,12a3.3,3.3,0,0,1,1.4-1.75,7.7,7.7,0,0,0,1.41-1.84C23,9.6,26.5,12.18,25,13.54c-.41.35-.22.72-.43,1.14a2.1,2.1,0,0,1-1.92,1.43c-.79.06-1.16-.87-1.55-1.37a5,5,0,0,1-.91-1.51,3,3,0,0,1-.23-.92A1,1,0,0,1,19.93,12Z"/><path class="cls-1" d="M34.38,18.78a1.93,1.93,0,0,1,0,.36c-.11.63.54,1,.77,1.47a4.14,4.14,0,0,0,1.24,1.46,17.74,17.74,0,0,0,2,1.77,4.27,4.27,0,0,0,1.8.38,3.38,3.38,0,0,0,1.49-.11,14.8,14.8,0,0,0,1.55-.63,4.66,4.66,0,0,0,1.59-1.29c.63-.88,1.58-1.51,1.92-2.55.09-.28.46-.41.56-.68a10.51,10.51,0,0,0,.2-2c.39-2.88-1.38-6.86-3.13-9.11-.23-.3-.71-1.15-1.1-1.32-.6-.27-.93.2-1.45.68s-1.39,1-2.39,1.76A21.65,21.65,0,0,0,36,11.64a14,14,0,0,0-.92,1.12c-.13.19-.29.44-.4.63a3.19,3.19,0,0,1-.2.39s-.05.09-.14.29a3.26,3.26,0,0,0-.13.33l-.14.38a7.76,7.76,0,0,0-.19,1,4.68,4.68,0,0,0,.18,2A5.37,5.37,0,0,1,34.38,18.78Zm4.41-3.54A10.1,10.1,0,0,1,40.69,14,4.4,4.4,0,0,0,42,12.56a4.73,4.73,0,0,0,.32.89c.63,1.05,1.79,3.28.52,4.2-.1.08-2,2.21-2.06,2,0-.06-.93-.7-1.09-.86-.86-.85-.75-2.13-1-3.2C38.63,15.49,38.57,15.48,38.79,15.24Z"/><path class="cls-1" d="M55.49,35.47c.14-.23.52-.21.69-.42,1-1.28,1.16-3.35,1.32-4.93s.7-4.52-.18-5.92c-.47-.74-4,.13-4.81.22a11.56,11.56,0,0,0-4.83,1.28,6.41,6.41,0,0,0-2.76,3.9,8,8,0,0,0,.37,4.81,5.55,5.55,0,0,0,2.05,2.71,4.89,4.89,0,0,0,2.35.71c1.89.12,4.64-.77,5.8-2.36M53.07,29c.28.58,0,1.48,0,2.14,0,1.07-.6.92-1.28,1.54a1.39,1.39,0,0,1-.56.27c-.76.24-1.1.46-1.5-.24-.16-.32.06-.76.05-1.1,0-.51-.25-1.31,0-1.77.45-.79,1.79-.54,2.6-.62A2.54,2.54,0,0,0,53.07,29Z"/></svg>