<svg id="Pieces" xmlns="http://www.w3.org/2000/svg" viewBox="0 0 60 60"><defs><style>.cls-1{fill:#fff;}</style></defs><path class="cls-1" d="M43,30.56a2.2,2.2,0,1,0,2.57-1.75A2.19,2.19,0,0,0,43,30.56Z"/><path class="cls-1" d="M58,31.43a3,3,0,0,0-.55-1.15c-.26-.29-.63-2.33-1.24-3.43-.32-.68-.69-1.39-1-2.14A14.46,14.46,0,0,0,54,22.63a10,10,0,0,0-1.62-1.49l-.54-.71a8.6,8.6,0,0,0-1.34-1.36A7.29,7.29,0,0,0,48.87,18l-1-.55c-.33-.17-.68-.3-1-.46-.66-.29-1.3-.65-2-.91s-1.29-.57-2-.79l-2.07-.62c-.69-.2-1.39-.32-2.09-.48S37.3,14,36.6,13.89a11.07,11.07,0,0,0-3,.23,21,21,0,0,0-2.38.65c-1.71.53-3.5.64-5.25,1.16a17.06,17.06,0,0,0-4.75,2.65l-.43.3-.27.2-.08.05s-.08.05-.11.05,0-.05-.09-.07l-.07,0-.59-.55a15.61,15.61,0,0,0-1.54-1.17l-.82-.52-1.16-.69c-.54-.28-1.08-.56-1.57-.83s-.94-.44-1.31-.66a11.49,11.49,0,0,0-2.89-1.15L9.07,13.2,8.35,13c-.27-.07-.38-.06-.69-.14l-.15,0a70,70,0,0,1,1.63,7.41c0,.34.09.66.13,1a4.21,4.21,0,0,0,.17.83,6.74,6.74,0,0,1,.21,2.25,16.93,16.93,0,0,1-2,6.63l0,.1-.1.18-.21.37c-.16.26-.28.49-.47.76A17.37,17.37,0,0,1,5.5,34.08c-1,1.21-2.44,2.67-3.6,4l.18,0a6,6,0,0,0,.8.07l.73,0c.64,0,1.29,0,1.81.1l1.14.25a10.31,10.31,0,0,0,2.7.3,13.74,13.74,0,0,0,3.12-.45c.29-.09.73-.22.85-.27s.36-.14.54-.21c.36-.14.7-.29,1-.45.69-.31,1.36-.65,2.07-1,.32-.17.73-.41,1-.56l.21-.12.1-.06h0a.46.46,0,0,1,.2,0c0,.08,1,1.44,1,1.51s1.55,1.55,1.72,1.36A11.84,11.84,0,0,0,22.5,40.3c1.47,1,2.66,2.4,4.15,3.47a18.59,18.59,0,0,0,5,2.15l1.85.56,1.87.43c.58.09,1.17.15,1.76.2l.89.06.89-.06a14.78,14.78,0,0,0,1.88-.19l2.07-.4a10.44,10.44,0,0,1,2-.38,5.85,5.85,0,0,0,1.91-.53c.5-.26,1-.6,1.72-1a29.72,29.72,0,0,0,2.88-1.8,8.26,8.26,0,0,0,1.9-1.72,23.22,23.22,0,0,1,1.77-2c.75-.86,1.51-1.72,1.84-2.11a.72.72,0,0,0,.07-1,1.37,1.37,0,0,0-.46-.37,17,17,0,0,1-1.75-1.05c-.7-.46-1.53-.93-1.58-.43s-1.73,2-2.12,2.56a9.52,9.52,0,0,1-1.43,1.46c-.67.62-1.46,1.22-2,1.75-1.1,1-2.6,1.34-3.88,1.94-.36.21-.79,0-1.15.09-.16,0-.58.27-1.07.4a11.21,11.21,0,0,1-1.26.31,17.06,17.06,0,0,1-4.56-.17c-.71-.26-1.48-.34-2.2-.54a16.87,16.87,0,0,1-5.2-2.84c-1-.65-1.84-1.35-2.85-2a9.54,9.54,0,0,1-2.07-2.09c-.18-.26-.37-.52-.55-.79l-.6-1-.87-1.81-.09-.2L16.75,31l-.35.37-.29.24-.6.48-.15.12-.08.06-.16.1a7.09,7.09,0,0,1-1.89,1c-.36,0-1.63.48-1.52.09l.06-.22.29-.71a30.5,30.5,0,0,1,1.27-2.95c1.28-2.5.95-6,.65-8.66a7.74,7.74,0,0,0-.14-.84,4.39,4.39,0,0,1,1.69.77c.33.27.68.57,1,.87l.25.24a2.1,2.1,0,0,1,.31.33,11,11,0,0,1,.78,1,13,13,0,0,1,1.86.53,2,2,0,0,0,.5,0l1.42.12c.29-.29.58-.59.88-.85s.3-.27.44-.38l.35-.29a15.64,15.64,0,0,1,5.35-2.35c1.11-.35,2.21-.63,3.31-1.07a10.62,10.62,0,0,1,2.95-.42,20.16,20.16,0,0,1,3.74.35s0,0,0,0a9.65,9.65,0,0,0,1.1.26c.55.14,1.25.3,2,.45l1.9.67a8.44,8.44,0,0,1,1,.55,38,38,0,0,1,3.77,2.92,4,4,0,0,1,1,1,1.65,1.65,0,0,1,.19.42c.19.72,1,1.11,1.3,1.76.82,1.65,1.93,2.77,2.14,4.69,0,.56.12,1.3.66,1.5a8.52,8.52,0,0,0,3.78-.52C58,32.52,58.1,32,58,31.43Z"/></svg>