<svg id="Pieces" xmlns="http://www.w3.org/2000/svg" viewBox="0 0 60 60"><defs><style>.cls-1{fill:#792f6c;}</style></defs><path class="cls-1" d="M38,30.75a2.2,2.2,0,1,0-1.75-2.57A2.19,2.19,0,0,0,38,30.75Z"/><path class="cls-1" d="M23.1,26.78a2.2,2.2,0,1,0,1.75,2.57A2.2,2.2,0,0,0,23.1,26.78Z"/><path class="cls-1" d="M31.87,35.58a3.41,3.41,0,0,0,1.74,2.13,2.55,2.55,0,0,0,1.31.17,2.74,2.74,0,0,0,1.68-1.24,5.53,5.53,0,0,0,.73-2.14c.1-.35.72-.39,1.26-.33s.59.06.53,1.15a5.63,5.63,0,0,1-1.48,3.08,4.59,4.59,0,0,1-2,1.21,3.79,3.79,0,0,1-1.52.15,4.73,4.73,0,0,1-1.44-.36,4.92,4.92,0,0,1-1.78-1.32,4.75,4.75,0,0,1-.44-.59,5.27,5.27,0,0,1-.7.91,4.59,4.59,0,0,1-2,1.21,3.78,3.78,0,0,1-1.52.15,4.79,4.79,0,0,1-1.44-.36,4.92,4.92,0,0,1-1.78-1.32,6.87,6.87,0,0,1-1.46-3.19.57.57,0,0,1,.53-.72,2.3,2.3,0,0,1,.63,0,2.08,2.08,0,0,1,1,.18,5.05,5.05,0,0,0,.14,1,2.11,2.11,0,0,0,.5,1.25,3.55,3.55,0,0,0,1.36,1.15,2.56,2.56,0,0,0,1.31.17,2.74,2.74,0,0,0,1.68-1.24,3.57,3.57,0,0,0,.51-1.3c.18-.94,1.09-2.07,2-1A4.83,4.83,0,0,1,31.87,35.58Z"/><path class="cls-1" d="M31.79,35.61a5.59,5.59,0,0,0,1.83-2.73c.35-.91-.85-1.8-2.69-2s-3.6.43-3.95,1.34c-.26.72.91,2.41,2.3,3.22A2.84,2.84,0,0,0,31.79,35.61Z"/><path class="cls-1" d="M12.68,21.21c.23.26-.92,1.43-1.91,2.31a13.37,13.37,0,0,1-2.44,1.79C8,25.51,7,26.27,6,27s-2.06,1.33-2.41,1.58-.74-.36-1-1a11.23,11.23,0,0,1-.48-1.39A13.53,13.53,0,0,1,1.43,24c0-.14,1-.34,1.12-.37a2.71,2.71,0,0,0,1-.48c.78-.56,2.59-1.55,3-1.75a1.71,1.71,0,0,0,.36-.26L8.7,19.38A4.58,4.58,0,0,1,12.68,21.21Z"/><path class="cls-1" d="M19,15a26.43,26.43,0,0,0-4.32-3.58,19.26,19.26,0,0,0-3.2-1.62,13.4,13.4,0,0,0-1.41-.46,7.1,7.1,0,0,0-2.79-.13,16.08,16.08,0,0,0-1.79.57c-1,.36-1.15,2.43-1.54,3.86-.31,1.12.36,3.72.57,4.87.12.89,1.93,2.88,1.9,4.56,0,1.43,1.16.94,2.48.1l2.14-1.82c.53-.63-.13-1.17-.59-1.7a6.93,6.93,0,0,1-2.14-4.93,3.07,3.07,0,0,1-.06-.57,1.58,1.58,0,0,1,0-.24.4.4,0,0,1,.21-.42.89.89,0,0,1,.48.06,11,11,0,0,1,2.4,1.08,23.33,23.33,0,0,1,2.32,1.55l3,2.31S18.29,17.2,19,16.63,19.73,15.68,19,15Z"/><path class="cls-1" d="M41.49,44.48a22.45,22.45,0,0,1-4.38,2.82c-.56.21-1.12.47-1.67.64s-1.07.32-1.55.41a10.79,10.79,0,0,1-1.94.22l-1.38,0c-.63-.06-1.41-.17-2.21-.28s-1.64-.37-2.4-.65-1.44-.54-2-.71a24.16,24.16,0,0,1-2.19-1.16,2.55,2.55,0,0,1-.47-.33l-.14-.13L19.28,44c-.47,0-1.11.74-1.33,1,0,0-1.71,1.42-.15,2.32.39.22,1.14.74,2.16,1.29l1.7.83.92.45,1,.35c.68.22,1.33.5,2,.67l1.89.41c1.16.22,2.13.24,2.61.33a19.23,19.23,0,0,0,2.72,0c.61-.08,1.3-.16,2-.27s1.42-.33,2.12-.57a17.58,17.58,0,0,0,5.69-3.16c1.52-1.47,1.48-1.58.91-2.26S42.15,44.06,41.49,44.48Z"/><path class="cls-1" d="M55.64,32.32c-.71.09-4.44.3-5.19.26s-4.68-.11-5.24,0c-.82.1-.82.1-.87.64s0,1.16.35,1.24,4.48,0,5,0a35.75,35.75,0,0,0,3.82,0,5.2,5.2,0,0,1,1.46,0h1c.17-.16.19-.75.19-1C56.16,33.52,56.35,32.24,55.64,32.32Z"/><path class="cls-1" d="M54.65,40.32c-.72-.17-4.42-1.29-5.14-1.6S45,37,44.43,36.82c-.84-.19-.84-.19-1.07.3s-.42,1.08-.08,1.29S47.66,40,48.1,40.17s2.67,1.08,3.71,1.38a5.83,5.83,0,0,1,1.41.55l1,.37c.22-.09.44-.64.51-.84C54.74,41.63,55.37,40.49,54.65,40.32Z"/><path class="cls-1" d="M10.26,34.23c.76,0,4.68.11,5.24,0,.82-.1.82-.1.87-.64s0-1.16-.35-1.25-4.48,0-5,0-2.78-.1-3.82,0a5.05,5.05,0,0,1-1.46,0h-1c-.17.16-.19.75-.19,1,0,0-.19,1.28.52,1.19S9.51,34.18,10.26,34.23Z"/><path class="cls-1" d="M17.5,37.54c-.14-.53-.37-1.1-.77-1s-4.34,1.62-4.82,1.75-2.74.89-3.73,1.33a5.73,5.73,0,0,1-1.43.48l-1,.37c-.11.21.07.77.14,1,0,0,.26,1.27.92.94s4.21-1.86,5-2.08,4.59-1.55,5.11-1.82C17.64,38.06,17.64,38.06,17.5,37.54Z"/><path class="cls-1" d="M35.88,14.09c1.08.39,2.18.92,2.88,1.24a4.66,4.66,0,0,1,1.39.89,1.14,1.14,0,0,0,.11.11l.12.05q.79.39,1.56.84h.44c2.14-1.45,3-2.21,2.46-3.24-.69-.42-3.62-2.59-4.46-3a33,33,0,0,0-4.69-1.61c-.34-.11-1-.3-1.92-.48a22.2,22.2,0,0,0-3-.33,17.74,17.74,0,0,0-4.66.07c-1.47.39-1.47.42-1.37,1.67a10,10,0,0,0,.18,1.38c-1.06.19-1.94.37-2.34.43a20.15,20.15,0,0,0-4.42,1.15h0s-3.92,1.69-4.57,3c-.18.35,0,.6.47,1.23.75,1,1.71,2.08,2.22,1.93.25-.08,1.43-1,2.81-1.66a13.32,13.32,0,0,1,3.26-1.19c.33,0,1.3-.21,2.38-.33s2.28-.24,3-.35a5.9,5.9,0,0,1,1.64,0,1.94,1.94,0,0,1,.5.11c.5,0,1,0,1.52,0a6.56,6.56,0,0,0,.42-2.24s.05-.3.08-.7h.15a7.37,7.37,0,0,1,1.39.22C33.79,13.42,34.81,13.7,35.88,14.09Z"/><path class="cls-1" d="M52.7,13.82c0-.19-.11-1.91-.15-2.09s-.15-.39-.21-.58a4.34,4.34,0,0,0-2.21-2.52,4.43,4.43,0,0,0-1.36-.29,2.94,2.94,0,0,0-1,.05,4.69,4.69,0,0,0-1.15.28,13.47,13.47,0,0,0-3.31,1.86,11.56,11.56,0,0,0-1.85,1.54c-.49.07-1,.94-1.3,1.29-.54.75-.88,1.08,0,1.67.53.37,1.06.74,1.62,1.07.3.18,1.62.82.68.44,1.09.44,2-1,2.76-1.75a14.86,14.86,0,0,1,2.15-1.63,5,5,0,0,1,.74-.37.35.35,0,0,1,.14,0s.07.11,0,.14v0l0,.17a6.77,6.77,0,0,1,0,.81c0,.56,0,1.14,0,1.58a6.15,6.15,0,0,1-.33,1.9,2.65,2.65,0,0,1-.25.55c-.14.49-1.13,2.6-.78,3l0,0c.23,1,2.77,2.61,4.33,1,.12-.85,1.18-3.3,1.2-4.28,0-.63.26-1.56.2-2.2C52.63,15.19,52.78,14.15,52.7,13.82Z"/><path class="cls-1" d="M58.38,23.79a10.82,10.82,0,0,1-2.3-.62,9.12,9.12,0,0,1-2.15-1.08,27,27,0,0,0-2.88-2.73c-.77-.2-5,0-4.28,1.48a8.32,8.32,0,0,0,1.77,2.34c1,.95,2,1.72,2.21,1.91a11.77,11.77,0,0,0,3.59,2.31,3.18,3.18,0,0,1,1.43.77l1.09.45a7.29,7.29,0,0,0,1-2s.29-.69.5-1.39S58.71,23.82,58.38,23.79Z"/></svg>