<svg id="Pieces" xmlns="http://www.w3.org/2000/svg" viewBox="0 0 24 24"><defs><style>.cls-1{fill:#792f6c;}</style></defs><path class="cls-1" d="M17.14,11.2a16.23,16.23,0,0,0-1.38-1.87c-.47-.38-2.85-2.91-3.93-3.78A19.17,19.17,0,0,0,10.08,3.6c-.89-.67-1-1.59-2-.68L6.54,4.26C5,5.12,6.3,5.92,6.3,5.92A27.56,27.56,0,0,1,9,8.38a31.18,31.18,0,0,0,3,3.36c.4.23,1.54,1.52,2,1.44a4.69,4.69,0,0,0,.95-.28,5.13,5.13,0,0,0,1.4-.8,5,5,0,0,0,.62-.6A.62.62,0,0,0,17.14,11.2Z"/><path class="cls-1" d="M16.39,10.26a1,1,0,0,1,.33.3c.37.47,2.28,1.91,1.36,2.52-.33.22-1,.78-1.71,1.35l-.29.29a2,2,0,0,1-.29.23,5.91,5.91,0,0,0-.83.88c-.34.6-.87.85-2,1.83s-3,3-3,3-1.23,2-2,1.17L6.14,19.72c-.9-1,0-1.14.69-2s1-.86,1.45-1.36a20.79,20.79,0,0,1,2.84-2.71c1-.82,1.91-1.72,3-2.46a7.8,7.8,0,0,1,1.18-.7C15.7,10.27,16.06,10.1,16.39,10.26Z"/></svg>