<svg id="Pieces" xmlns="http://www.w3.org/2000/svg" viewBox="0 0 35 35"><defs><style>.cls-1{fill:#fff;}</style></defs><path class="cls-1" d="M33.55,10.44a8.29,8.29,0,0,0-1.3-3.5A4.3,4.3,0,0,0,29,5.47c-4.58-.34-11.47-.4-11.47-.4s-6.89.06-11.47.4A4.54,4.54,0,0,0,2.75,6.94a7.62,7.62,0,0,0-1.3,3.5s-.33,2.88-.33,5.76v2.66a56,56,0,0,0,.33,5.7,8.29,8.29,0,0,0,1.3,3.5,5.43,5.43,0,0,0,3.62,1.53c2.6.28,11.13.34,11.13.34s6.89,0,11.47-.4a4.54,4.54,0,0,0,3.28-1.47,8.29,8.29,0,0,0,1.3-3.5s.33-2.88.33-5.7V16.2C33.88,13.32,33.55,10.44,33.55,10.44Zm-20,13.61V11.79l10.73,6.27Z"/></svg>