<svg id="Pieces" xmlns="http://www.w3.org/2000/svg" viewBox="0 0 60 60"><defs><style>.cls-1{fill:#fff;}</style></defs><path class="cls-1" d="M51.73,13.42a6.49,6.49,0,0,0-.47-2.28,5.27,5.27,0,0,0-.52-1,5.3,5.3,0,0,0-.68-.88A11.19,11.19,0,0,0,46.54,6.8c-.78-.4-1.93-.72-2.5-.25a2.28,2.28,0,0,0-.5,1.52c0,.71,0,1.54.06,2.27a.78.78,0,0,0,.68.83,2.18,2.18,0,0,0,.85,0,1.45,1.45,0,0,1,.82.4,3.63,3.63,0,0,1,.68.82,1.49,1.49,0,0,1,.22.51,2.59,2.59,0,0,1,0,.61c0,.41-.16,1.09-.25,1.72s0,1.24,0,1.88l-.26.74a21.56,21.56,0,0,0-.94,3.21,15.63,15.63,0,0,1-1.26,3.77,19.46,19.46,0,0,1-4.4,5.89c-.5.43-1.07,1.05-1.63,1.52a5.82,5.82,0,0,1-1.41,1,2,2,0,0,1-.71.18,1.16,1.16,0,0,1-.37,0l-.18,0h-.09l-.29,0h-.34l-.14,0-.26,0c-.18,0-.35-.1-.51-.14a5.93,5.93,0,0,1-1-.46,11.31,11.31,0,0,1-3.23-2.42,19.45,19.45,0,0,1-1.92-2.72q-.8-1.29-1.56-2.64c-.28-.48-.54-1-.81-1.46a10.52,10.52,0,0,1-1.2-3.51c0-1.54-.48-1.93-.78-3.38a12.6,12.6,0,0,1-.23-2.76,2.16,2.16,0,0,1,0-.43,2.08,2.08,0,0,0,.08-.39,2.3,2.3,0,0,0,.11-.5c0-.25.27-.74.89-1.07a4,4,0,0,1,1.81-.46c.7,0,.49-1.12.52-1.13l0-.7a12,12,0,0,1,0-1.34c.13-.84-.21-1.82-.9-1.49-.35.16-1.34.27-2.38.62a6.25,6.25,0,0,0-2.5,1.42,7.93,7.93,0,0,0-1.95,3,7.3,7.3,0,0,0-.28,1.14,6.15,6.15,0,0,0-.09,1.18,7.82,7.82,0,0,0,.21,1.78c.47,1.87.51,3.74,1.18,5.47.19.47.06,1,.22,1.47s1.11,2.2,1.38,2.83a38.29,38.29,0,0,0,2.81,5.11,11.12,11.12,0,0,0,1.67,2.28,28.64,28.64,0,0,0,2.7,2.87,9.38,9.38,0,0,0,3.89,2.14,8,8,0,0,0,1.4.22,4.09,4.09,0,0,0,.7,0h.53s0,0,0,0h.38a3.44,3.44,0,0,0,.72,0,5.89,5.89,0,0,0,1.39-.34,13.19,13.19,0,0,0,3.93-2,18.46,18.46,0,0,0,3.54-3.54s0,0,.07,0a15.08,15.08,0,0,0,2.17-3.41c.85-1.64,1.5-3.37,1.68-3.7a18.42,18.42,0,0,0,1.08-2.52A18.86,18.86,0,0,0,51,18.88a12.43,12.43,0,0,1,.35-1.79,2.54,2.54,0,0,1,.21-.56C52,15.64,51.71,14.57,51.73,13.42Z"/><path class="cls-1" d="M11.86,30.16A6.07,6.07,0,0,0,9,29.11a6.81,6.81,0,0,0-1,0,5.29,5.29,0,0,0-2.66,1.11c-.2.52.48,1.24.73,1.51,0,0,1.39,1.56,1.77,1.15a1.49,1.49,0,0,1,.87-.34A1.82,1.82,0,0,1,10.2,33a2,2,0,0,1,.57,1.57,1.81,1.81,0,0,1-.44,1,2.22,2.22,0,0,1-1,.61,2,2,0,0,1-1.69-.22,2.07,2.07,0,0,1-.94-1.35,2.77,2.77,0,0,1,0-1c.07-.46.21-.66.18-.85s-.16-.36-.46-.7c-.57-.68-1.32-1.48-2.09-.7a4.51,4.51,0,0,0-.87,2.2A5.14,5.14,0,0,0,4.72,37.7a5.24,5.24,0,0,0,3.85,1.8A5.63,5.63,0,0,0,11,39a4.84,4.84,0,0,0,1.47-1,5.11,5.11,0,0,0,1.38-2.54,5.28,5.28,0,0,0-.31-3.17A5,5,0,0,0,11.86,30.16Z"/><path class="cls-1" d="M36,42.62a12.86,12.86,0,0,1,0-3.16c.08-.58-.77-.51-.77-.51a14.59,14.59,0,0,1-1.46,0c-.6,0-1.29,0-1.12.37a22.8,22.8,0,0,1,0,2.34c.08.45,0,2.24.15,3.28a7.29,7.29,0,0,1,0,1.55l0,.38,0,.29c0,.2,0,.39,0,.59s-.26.36-.31.55a5,5,0,0,1-.38,1.28,8.18,8.18,0,0,1-1,1.17,3.79,3.79,0,0,1-.81.59c-.39.11-.73.34-1.11.44a2.92,2.92,0,0,1-1.58,0,6.24,6.24,0,0,1-1.45-.52c-.54-.26-1-.56-1.6-.85a3,3,0,0,1-1-1.18A4.72,4.72,0,0,1,23,47.38s0,0,0,0a1.81,1.81,0,0,0,0-.62c0-.41,0-.92,0-1.43,0-1-.07-2.07,0-2.28a4.78,4.78,0,0,0,.05-.59l0-.45c0-.17,0-.41,0-.62A6,6,0,0,0,22.51,39c-.27-.53-.45-.89-.56-1.14a2,2,0,0,1-.14-.39c-.16-.67-.86-1-1.29-1.5-1.19-1.23-2.51-1.47-4-2.1-.46-.18-1.14-.34-1.45,0s-.28,1.67-.18,2.72c0,.4.24.53.46.56a1.08,1.08,0,0,0,.55-.07c.18-.09,1,.37,1.42.64a4.36,4.36,0,0,1,1.33,1.47c.17.24.46.41.63.67a1.66,1.66,0,0,1,.09.37c.08.5.21,1,.3,1.54a12.27,12.27,0,0,1,.19,2.46c0,.8-.07,1.62-.13,2.44a8.8,8.8,0,0,0,.33,3,5,5,0,0,0,1.1,1.84,7.3,7.3,0,0,0,1.33,1.14,16,16,0,0,0,3.18,2.07,7,7,0,0,0,3.86.13,8.22,8.22,0,0,0,2.62-1A6.54,6.54,0,0,0,34,52.28a6.78,6.78,0,0,0,.71-1.09,27.66,27.66,0,0,0,1.14-2.64A4.52,4.52,0,0,0,36,46,22.4,22.4,0,0,0,36,42.62Z"/></svg>