<svg id="Pieces" xmlns="http://www.w3.org/2000/svg" viewBox="0 0 60 60"><defs><style>.cls-1{fill:#792f6c;}</style></defs><path class="cls-1" d="M10.06,46.61a13.58,13.58,0,0,1,1.67,1.62c.61.76,1.54,1.38,1.95.58s3.54-3.34,4.28-4.28,4.13-4.09,5.83-6.19,3.93-3.67,5.69-5.69c.5-.57,1.2-.82,1.71-1.34s2.29-2.77,3-3.48c2.29-2.26,5.18-5.54,5.87-6.12a37.65,37.65,0,0,0,2.81-2.84c.52-.55,1-1.11,1.57-1.65a15.38,15.38,0,0,0,1-1.2,4.83,4.83,0,0,1,.53-.57,5.74,5.74,0,0,1,.76-.56,32.24,32.24,0,0,0,4.16-3.39c-1.09-1.18-2.31-2.39-3.51-3.63L46,6.46l-.56-.57c-.19-.18-.35-.35-.7-.65a7.3,7.3,0,0,0-4.39-1.81,9.44,9.44,0,0,0-3.19.27,7.9,7.9,0,0,0-2,.85,8.12,8.12,0,0,0-1,.68c-.29.25-.68.61-.84.77l-4.86,4.71a.38.38,0,0,0-.1,0c-.79.47-7.38,7.54-8.25,8.25a82.45,82.45,0,0,0-6.41,6.3,17.14,17.14,0,0,1-1.82,1.86,5.5,5.5,0,0,1-.68.51c-1.18.66-1.84,2-2.82,2.91-.64.58-1.2,1.16-1.73,1.74l-.78.85a9.88,9.88,0,0,0-1,1.35,7,7,0,0,0-1,3.61,9,9,0,0,0,.8,3.62,6.65,6.65,0,0,0,1.2,1.93,3.55,3.55,0,0,0,.74.63,1.33,1.33,0,0,0,.64.2c.85,0,2.35-1.43,3.29-2.86a.92.92,0,0,0,.06-.88,2.46,2.46,0,0,0-.25-.45A2.13,2.13,0,0,0,10,40a5.9,5.9,0,0,0-.86-.83,1.29,1.29,0,0,1-.29-1,2,2,0,0,1,.6-1.06c.54-.59,1.33-1.19,1.95-1.83.44-.45.73-1,1.19-1.47s1.41-.85,2-1.43c.75-.75,1.31-1.69,2-2.49l1-.85c1-.82,1.71-1.89,2.63-2.78.4-.39.91-.65,1.31-1s.44-.93.72-1.42c.77-1.35,2.52-2.42,3.63-3.49.83-.8,1.47-1.78,2.3-2.57s2-.88,2.77-1.61c.51-.51.9-1.14,1.41-1.66.92-1,1.86-1.89,2.84-2.79.46-.42,1-.94,1.46-1.5s.73-.87,1-1.15a3.17,3.17,0,0,1,1.89-.73,2.65,2.65,0,0,1,1.93.8l1.22,1.24.55.57.17.19s.08.09.05.14a.59.59,0,0,1-.28.18,1.48,1.48,0,0,1-.32.09c-.19,0-.13,0-.08.08a.23.23,0,0,1,0,.11s0,0,0,.07a4.12,4.12,0,0,1-.28.31l-2.56,2.6-4.13,4.07c-1.21,1.21-2.37,2.46-3.51,3.73l-1.82,2a32.08,32.08,0,0,1-4.33,4.24c-2.06,1.4-2.36,2.24-4.11,4-2,2.06-5.52,5.14-6.23,6.25a54.74,54.74,0,0,1-5.8,5.8A1.08,1.08,0,0,0,10.06,46.61Z"/><path class="cls-1" d="M53.31,21.33s1.6-1.43,1.18-1.65a17.52,17.52,0,0,1-2.65-2.05,20.75,20.75,0,0,0-2.33-2.42C49,15,49,15,48.36,15.57s-1.37,1.35-1.3,1.62,2.08,2,2.24,2.25A10,10,0,0,0,51,21.2c.55.39.62.71.62.71l.47.47A7.6,7.6,0,0,0,53.31,21.33Z"/><path class="cls-1" d="M48.88,25.76s1.6-1.43,1.18-1.65a17.46,17.46,0,0,1-2.66-2.05,19.91,19.91,0,0,0-2.32-2.42c-.49-.25-.49-.25-1.15.36s-1.37,1.35-1.3,1.63,2.08,2,2.24,2.24a10,10,0,0,0,1.7,1.77c.55.38.62.7.62.7l.47.47A7.6,7.6,0,0,0,48.88,25.76Z"/><path class="cls-1" d="M44.45,30.19s1.6-1.43,1.18-1.65a17.06,17.06,0,0,1-2.66-2,20,20,0,0,0-2.32-2.43c-.49-.25-.49-.25-1.15.36s-1.38,1.36-1.31,1.63,2.08,2,2.25,2.24a9.94,9.94,0,0,0,1.69,1.77c.56.38.63.7.63.7l.47.47A7.6,7.6,0,0,0,44.45,30.19Z"/><path class="cls-1" d="M40,34.62s1.6-1.42,1.17-1.64a17.52,17.52,0,0,1-2.65-2,20,20,0,0,0-2.32-2.43c-.49-.25-.49-.25-1.15.37s-1.38,1.35-1.31,1.62,2.08,2,2.25,2.24A9.61,9.61,0,0,0,37.7,34.5c.56.38.62.7.62.7l.47.47A7.24,7.24,0,0,0,40,34.62Z"/><path class="cls-1" d="M35.59,39.05s1.59-1.42,1.17-1.64a17.52,17.52,0,0,1-2.65-2,20.7,20.7,0,0,0-2.32-2.42c-.5-.26-.5-.26-1.16.36s-1.37,1.35-1.3,1.62,2.08,2,2.24,2.25a10,10,0,0,0,1.7,1.76c.56.39.62.71.62.71l.47.47A7.82,7.82,0,0,0,35.59,39.05Z"/><path class="cls-1" d="M31.15,43.49s1.6-1.43,1.18-1.65a17.52,17.52,0,0,1-2.65-2.05,20.75,20.75,0,0,0-2.33-2.42c-.49-.26-.49-.26-1.15.36s-1.37,1.35-1.3,1.62,2.08,2,2.24,2.25a10,10,0,0,0,1.7,1.76c.55.39.62.71.62.71l.47.47A7.6,7.6,0,0,0,31.15,43.49Z"/><path class="cls-1" d="M26.72,47.92s1.6-1.43,1.18-1.65a17.46,17.46,0,0,1-2.66-2.05,19.91,19.91,0,0,0-2.32-2.42c-.49-.25-.49-.25-1.15.36s-1.37,1.35-1.3,1.63,2.08,2,2.24,2.24a10,10,0,0,0,1.7,1.77c.55.38.62.7.62.7l.47.47A7.6,7.6,0,0,0,26.72,47.92Z"/><path class="cls-1" d="M22.29,52.35s1.6-1.43,1.18-1.65a16.53,16.53,0,0,1-2.66-2.05,20.67,20.67,0,0,0-2.32-2.42C18,46,18,46,17.34,46.59S16,48,16,48.22s2.09,2,2.25,2.24A9.94,9.94,0,0,0,20,52.23c.56.38.63.7.63.7l.47.47A7.6,7.6,0,0,0,22.29,52.35Z"/></svg>