<svg id="Pieces" xmlns="http://www.w3.org/2000/svg" viewBox="0 0 60 60"><defs><style>.cls-1{fill:#792f6c;}</style></defs><path class="cls-1" d="M40.06,24.58c-.91-.69-1.71.74-1.81,1.07S36.68,27,36,27.81c-.9,1-2.12,1.76-3.07,2.71A18.36,18.36,0,0,0,31.78,32l-.59.48a12.4,12.4,0,0,0-2.25,2.27,23.58,23.58,0,0,1-2.51,2.85c-.87.83-1.79,1.65-2.72,2.48-.46.39-1,.85-1.38,1.19a2.77,2.77,0,0,1-.89.45,11.65,11.65,0,0,1-1.33.43,3.27,3.27,0,0,1-1.3.05,1.76,1.76,0,0,1-1.15-.89A3.09,3.09,0,0,1,17.31,40a4,4,0,0,1,.4-2.56,2.6,2.6,0,0,1,.3-.36,2.85,2.85,0,0,1,.25-.25l.3-.29,1.21-1.18c.7-.7,1.37-1.44,2-2.19l1-1.22a12.53,12.53,0,0,1,2.54-2.45c1.29-.71,1.39-1.28,2.41-2.3C29,26,31,24.26,31.39,23.56a21.13,21.13,0,0,1,3.38-3.37c.7-.53-.23-1.3-.23-1.3a20.09,20.09,0,0,1-1.45-1.43c-.55-.64-1.32-1.23-1.5-.71s-2.09,1.91-2.49,2.48-2.42,2.37-3.35,3.65-2.32,2.09-3.31,3.3c-.28.34-.76.42-1.05.72S20.12,28.58,19.7,29c-1.33,1.31-3,3.27-3.38,3.59a6.37,6.37,0,0,0-.85.79l-.39.43-.49.57a9.18,9.18,0,0,0-1.86,3.81,7.13,7.13,0,0,0,.4,4.38A6.35,6.35,0,0,0,17,46.14a9.48,9.48,0,0,0,4.35.52,7.91,7.91,0,0,0,2.74-.91A7.47,7.47,0,0,0,25.23,45l.47-.42.31-.29h.07c.51-.23,4.27-4.41,4.8-4.79a33.24,33.24,0,0,0,3.74-3.65,6.49,6.49,0,0,1,1.06-1.09,1.52,1.52,0,0,1,.42-.27c.75-.31,1-1.2,1.62-1.71,1.52-1.32,2.19-2.78,3.86-3.92.49-.33,1.15-.81,1.05-1.42S41.23,25.47,40.06,24.58Z"/><path class="cls-1" d="M13.42,44.55c-.32.2-3,3.1-3.39,3.39s-2,1.83-2.63,2.59a5.11,5.11,0,0,1-1,1l-.71.71c0,.23.4.65.56.81,0,0,.77,1,1.2.49s2.82-3.24,3.37-3.73,3.27-3.12,3.61-3.55c.49-.64.49-.64.14-1.05S13.74,44.35,13.42,44.55Z"/><path class="cls-1" d="M53.66,13.42a41.22,41.22,0,0,1-4-3.39c-.49-.58-3.19-3.45-3.67-3.77-.71-.47-.71-.47-1.38.13S43.23,7.74,43.4,8.11a23.71,23.71,0,0,0,2.22,2.23c-.7.64-2.16,2.37-2.44,2.53A10.76,10.76,0,0,0,41,15a2.22,2.22,0,0,1-.47.54c-1-1-2.08-2.09-2.82-2.72a8.8,8.8,0,0,1-2-2.08L34.3,9.25c-.5,0-1.5,1-1.86,1.33,0,0-2.38,1.85-1.25,2.69s6.65,5.67,7.62,6.78,6.3,6.68,7.2,7.34c1.31,1,1.31,1,2.27.15s1.94-1.87,1.56-2.53-4.32-4.32-6.09-6.07a17.31,17.31,0,0,1,2-2.58,23.38,23.38,0,0,0,2.94-2.78c.33.32.65.61.89.81a3.29,3.29,0,0,1,1,1.08l.73.74a5,5,0,0,0,1.28-1S54.26,13.83,53.66,13.42Z"/></svg>