<svg id="Pieces" xmlns="http://www.w3.org/2000/svg" viewBox="0 0 60 60"><defs><style>.cls-1{fill:none;}.cls-2{fill:#fff;}</style></defs><path class="cls-1" d="M39.31,20.43l-2.56,2.22a.71.71,0,0,0-.23.47l-.2,3.38a.69.69,0,0,1-1,.55l-2.9-1.75a.67.67,0,0,0-.52-.07l-3.28.85a.68.68,0,0,1-.83-.82l.76-3.3a.69.69,0,0,0-.09-.52L26.6,18.59a.68.68,0,0,1,.51-1.05l3.38-.29A.73.73,0,0,0,31,17l2.15-2.61a.67.67,0,0,1,1.15.17l1.32,3.11A.66.66,0,0,0,36,18l3.15,1.24A.68.68,0,0,1,39.31,20.43Z"/><path class="cls-2" d="M39.11,19.28,36,18a.66.66,0,0,1-.38-.37l-1.32-3.11a.67.67,0,0,0-1.15-.17L31,17a.73.73,0,0,1-.47.25l-3.38.29a.68.68,0,0,0-.51,1.05l1.82,2.85a.69.69,0,0,1,.09.52l-.76,3.3a.68.68,0,0,0,.83.82l3.28-.85a.67.67,0,0,1,.52.07l2.9,1.75a.69.69,0,0,0,1-.55l.2-3.38a.71.71,0,0,1,.23-.47l2.56-2.22A.68.68,0,0,0,39.11,19.28Z"/><path class="cls-2" d="M47.31,51.45c-.08-.5-.17-1-.26-1.56-.14-.85-.3-1.74-.45-2.66-.4-2.36-.87-4.94-1.23-6.52a21.73,21.73,0,0,1-.73-4.52,9.78,9.78,0,0,0-.31-1.7,8.1,8.1,0,0,1-.25-1.43c0-.44.35-.65.71-1s.69-.61.94-.85c1.77-1.54,1.91-2.45,2.83-4.57a22.36,22.36,0,0,0,.76-2.16,18.31,18.31,0,0,0,.47-2.41,9.83,9.83,0,0,0-.09-3.6c-.15-.6-.46-2.14-.94-3.67a23.2,23.2,0,0,0-1.6-3.59S46,9.27,45.48,8.7a6,6,0,0,0-1.42-1.07c-.26-.08-.85-.69-1.67-1.28a13.24,13.24,0,0,0-2.61-1.56A18.21,18.21,0,0,0,33.32,3.1a7.15,7.15,0,0,0-1.53.15c-.5.11-1,.23-1.48.32l-1.23.15a11.75,11.75,0,0,0-4.85,1.92,24.54,24.54,0,0,0-4.5,4.13,18.24,18.24,0,0,0-3.08,5.06,17.4,17.4,0,0,0-1.24,5.92,11.52,11.52,0,0,0,.73,4.13A16.58,16.58,0,0,0,17.68,28a27.37,27.37,0,0,0,4.48,6,14.51,14.51,0,0,0,6.89,3.18c.35.08.7.14,1,.2-.89,1.7-2.66,5.27-4.44,8.89l-1.45,3-.08.21c-.05.09-.09,0-.1-.06s0-.08,0-.11v-.08l-.21-.44-.66-1.37-1.61-3.26-4.67.9-.63.11a.06.06,0,0,1-.09,0s0,0,0,0l.32-.68L17,43.12c.37-.75.69-1.35.95-1.81.51-.94.78-1.33.78-1.33l2.1-4.19c0-.84-1.17-1.54-1.64-1.77,0,0-2.29-2.1-3.54.84-.29.68-.89,2-1.66,3.71-.39.84-.82,1.77-1.26,2.75l-.7,1.5c-.42.88-.86,1.78-1.29,2.69-.21.47-.49,1-.64,1.39A3.53,3.53,0,0,0,10,48a3.34,3.34,0,0,0,.13.8,1.76,1.76,0,0,0,.47.84.88.88,0,0,0,.32.23l.32.15a3.34,3.34,0,0,0,.38.15l.55,0a8.35,8.35,0,0,0,1.13,0L14.67,50l4.42-1a3.06,3.06,0,0,1,.15.32l0,.08,0,.07.1.21.47,1,.89,1.82c.19.38.38.79.59,1.2l.31.63a2.25,2.25,0,0,0,.16.31l.18.21.77.85a3.76,3.76,0,0,0,.71.4,1.64,1.64,0,0,0,1,.06,4.07,4.07,0,0,0,.76-.37,3.44,3.44,0,0,0,.88-.79A8.6,8.6,0,0,0,27,53.56l1.42-2.8c2.34-4.6,4.61-9.11,5.1-10.29a16.06,16.06,0,0,0,1.13-3,14.08,14.08,0,0,0,4.55-1.31l.38-.19c.37,1.54,1,4.16,1.56,6.81.36,1.71.72,3.42,1,4.84.1.51.2,1,.27,1.34a1.87,1.87,0,0,1,.05.31,2.2,2.2,0,0,0,0,.35c0,.06,0,.21-.14.15L42,49.58l-.29-.17-.14-.09-.48-.25-4.34-2.24c-1.26,1.43-2.4,2.71-3.29,3.73-.6.69-1,1.2-1.22,1.46-1.54,2.08-1.54,2.08-.69,3s2,1.85,2.9,1.1c.21-.17.83-.83,1.66-1.76l1.38-1.56.19-.22.1-.13,0,0,.08,0,.16.07.62.31,3.72,1.87c.33.16.68.36,1,.47l.75.12.7.12a2.6,2.6,0,0,0,.45-.08,4.2,4.2,0,0,0,.56-.2,2.83,2.83,0,0,0,.53-.35,2.57,2.57,0,0,0,.29-.28c.07-.08.15-.18.25-.32a3,3,0,0,0,.5-1.39A5.24,5.24,0,0,0,47.31,51.45ZM39.08,31.27a16.91,16.91,0,0,1-3.28,1.46c-.54.13-1,.27-1.45.33s-.73.09-.89.09a11.06,11.06,0,0,0-1.41,0c-.47-.05-.95,0-1.41-.1a11.27,11.27,0,0,1-6.36-3.6,26.44,26.44,0,0,1-2.74-3.38,7.09,7.09,0,0,1-.71-1.36c-.09-.31-.2-.65-.31-1s-.15-.76-.24-1.16a11.94,11.94,0,0,1,.25-4.68s0,0,0-.05a20.34,20.34,0,0,1,1.51-3.66A10.74,10.74,0,0,1,24.7,11a17.75,17.75,0,0,1,2.36-1.43,16.92,16.92,0,0,1,1.7-.75c.57-.17,1.08-.39,1.49-.49A5.36,5.36,0,0,1,32,8.06a1.67,1.67,0,0,1,.58.09A4.17,4.17,0,0,0,34,8.26a4.37,4.37,0,0,1,1.4.08,22.75,22.75,0,0,1,3.11,1,6.56,6.56,0,0,1,2.64,1.87,5,5,0,0,0,.74.86,8.17,8.17,0,0,1,2.23,3.26c.13.41.31.81.39,1.18a5.79,5.79,0,0,0,.28.86,9.65,9.65,0,0,1,.41,2.49A26.64,26.64,0,0,1,45,23.15c-.18,1.91-1.42,3.48-2.43,5a2,2,0,0,1-.56.52,2.92,2.92,0,0,0-.61.43c-.07.07-.19.24-.37.43l-.64.66A7.75,7.75,0,0,1,39.08,31.27Z"/></svg>