<svg id="Pieces" xmlns="http://www.w3.org/2000/svg" viewBox="0 0 24 24"><defs><style>.cls-1{fill:#fff;}</style></defs><path class="cls-1" d="M12,15c-.59.67-2.19,1.87-3.17,2.74a26.84,26.84,0,0,0-2.47,2.67s-.79,1.36-1.66-.24L3.34,18.61c-.91-1,0-1.14.69-2S5.56,15.33,6,14.83A35.87,35.87,0,0,1,9,12c1-1,3-2.93,3-2.93.59-.67,2.19-1.87,3.17-2.74a26.84,26.84,0,0,0,2.47-2.67s.79-1.36,1.66.24l1.34,1.51c.91,1,0,1.14-.69,2S18.44,8.67,18,9.17A35.87,35.87,0,0,1,15,12Z"/><path class="cls-1" d="M12,15c1.09,1.24,2.65,3.05,3.37,3.65.5.4.47.77,1.36,1.45s1,1.59,2,.68l2.11-1.86c.82-.73-1.17-2-1.17-2s-2-1.91-3-3A14.81,14.81,0,0,0,15,12l-3-3C10.93,7.81,9.37,6,8.65,5.4,8.15,5,8.18,4.63,7.29,4s-1-1.59-2-.68L3.16,5.13c-.82.73,1.17,2,1.17,2s2,1.91,3,3A14.81,14.81,0,0,0,9,12Z"/></svg>