<svg id="Pieces" xmlns="http://www.w3.org/2000/svg" viewBox="0 0 35 35"><defs><style>.cls-1{fill:#792f6c;}</style></defs><path class="cls-1" d="M33.18,25.05c-4.36-.72-6.33-5.19-6.41-5.38l0,0a1.37,1.37,0,0,1-.15-1.11c.24-.56,1.15-.85,1.75-1,.18-.06.35-.11.48-.17a3.68,3.68,0,0,0,1.3-.77,1.25,1.25,0,0,0,.4-.89,1.41,1.41,0,0,0-1.05-1.22,2,2,0,0,0-.71-.13,1.6,1.6,0,0,0-.66.13,3.74,3.74,0,0,1-1.36.39,1.07,1.07,0,0,1-.45-.1c0-.2,0-.41,0-.63V14c.14-2.21.32-5-.41-6.59a8.81,8.81,0,0,0-2-2.86A8.39,8.39,0,0,0,21.54,3a9.36,9.36,0,0,0-3.73-.79h-.64A9.55,9.55,0,0,0,13.44,3a8.37,8.37,0,0,0-2.38,1.58,8.89,8.89,0,0,0-2,2.85C8.34,9.05,8.51,11.8,8.65,14h0c0,.23,0,.48,0,.72a1.28,1.28,0,0,1-.54.1,3.51,3.51,0,0,1-1.45-.39,1.42,1.42,0,0,0-.55-.11,1.93,1.93,0,0,0-1,.27,1.33,1.33,0,0,0-.69.88A1.22,1.22,0,0,0,5,16.63a3.92,3.92,0,0,0,1.22.69l.47.17c.61.19,1.52.48,1.76,1a1.37,1.37,0,0,1-.15,1.11l0,0a10.92,10.92,0,0,1-1.64,2.54A8.78,8.78,0,0,1,4.6,24a7.22,7.22,0,0,1-2.78,1.09.75.75,0,0,0-.64.79,1,1,0,0,0,.08.34h0a2.06,2.06,0,0,0,1.11.94A12.83,12.83,0,0,0,5.56,28a5.11,5.11,0,0,1,.2.7c0,.25.1.5.18.77a.85.85,0,0,0,.88.64A4,4,0,0,0,7.57,30a8.64,8.64,0,0,1,1.71-.19,7.26,7.26,0,0,1,1.22.1A5.84,5.84,0,0,1,12.79,31,7.38,7.38,0,0,0,17.3,32.8h.4a7.44,7.44,0,0,0,4.51-1.75h0a6,6,0,0,1,2.29-1.18,8.48,8.48,0,0,1,1.22-.1,8.79,8.79,0,0,1,1.71.18,4.24,4.24,0,0,0,.75.09h0a.82.82,0,0,0,.84-.62c.08-.27.13-.51.19-.76a3.51,3.51,0,0,1,.19-.7,12.83,12.83,0,0,0,3.19-.83,2.06,2.06,0,0,0,1.11-.94,1.3,1.3,0,0,0,.08-.34.77.77,0,0,0-.64-.79Zm0,0"/></svg>