<svg id="Pieces" xmlns="http://www.w3.org/2000/svg" viewBox="0 0 60 60"><defs><style>.cls-1{fill:#792f6c;}</style></defs><path class="cls-1" d="M40.3,48.59a8.58,8.58,0,0,1,0,2c-.17.83.17,1.83,1.53,1.45a19,19,0,0,0,4.31-1.42A11.4,11.4,0,0,0,50,47.55c.26-.39.73-1,1.22-1.92a13.55,13.55,0,0,0,1.21-3.29,16.31,16.31,0,0,0,.25-3.68c0-1.06-.06-2.06-.12-2.91-.24-3.36.16-6.79,0-10.17-.05-1,.23-1.81.23-2.72,0-.38-.07-1.51-.15-2.71l0-.9c0-.26-.06-.69-.08-1,0-.67-.21-1.23-.25-1.62A11.86,11.86,0,0,0,48.31,10a13.77,13.77,0,0,0-4.47-2.48,9.82,9.82,0,0,0-3-.55c-.55,0-.94,0-1.36,0L38.22,7,35.34,7a16.1,16.1,0,0,1-3.86,0,28.47,28.47,0,0,0-6.75-.55c-1.34,0-2.69,0-4,0l-1,0c-.38,0-.83.06-1.24.1s-.82.15-1.23.23-.8.25-1.19.38a15.49,15.49,0,0,0-3,1.53,13.19,13.19,0,0,0-3.51,3.46,12.48,12.48,0,0,0-2,5.07,16.65,16.65,0,0,0-.17,2.46l0,1.92a.61.61,0,0,0,0,.12c-.2,1.13.1,13.34,0,14.74,0,.35,0,1-.07,1.93,0,.47,0,.89,0,1.52l0,1,.15,1a12,12,0,0,0,1.5,4,10.93,10.93,0,0,0,2.29,2.74A16.51,16.51,0,0,0,14.53,51l1.19.58a6.71,6.71,0,0,0,3.12.66h.81l.65,0c.43,0,.85,0,1.27,0,4.36.14,7.64-.42,12,0,1.27.11,3,.24,3.8-.27s.82-2.34.38-3.81c-.33-1.12-3.76-.68-4.42-.52s-4.54-.13-6.87-.09c-1.15,0-2.29-.1-3.44-.09-.8,0-1.58.19-2.38.18A10.79,10.79,0,0,1,18.08,47a8.6,8.6,0,0,1-2.9-1l-.48-.41-.44-.46a9.22,9.22,0,0,1-2-3.09,5.55,5.55,0,0,1-.13-.8,5.3,5.3,0,0,0,0-.8,1.8,1.8,0,0,0-.2-.73,6.43,6.43,0,0,1-.28-.93c-.35-1.9.07-4.41.09-6.36,0-1.46-.19-2.91-.16-4.36s.71-2.59.71-3.9c0-.92-.14-1.83-.15-2.75V19a6.47,6.47,0,0,1,.31-1.86,9.55,9.55,0,0,1,2-3.65,8,8,0,0,1,2.92-2.11,9.39,9.39,0,0,1,3.8-.49l4.42,0a4.52,4.52,0,0,1,.74.06,7.25,7.25,0,0,1,.78.28c1.7.65,3.59.12,5.35.1l4.61,0h2.75c.31,0,.63,0,.83,0a8,8,0,0,1,2.73.62A8.5,8.5,0,0,1,47,15.19a8.13,8.13,0,0,1,1.05,2.48c0,.19.09.4.12.63l.07.75,0,2.11a31.75,31.75,0,0,1-.15,3.8c-.42,3.09-.08,4.12-.08,7.25,0,1.84-.06,4.22-.09,6.35v1.16L48,40a6.67,6.67,0,0,1-.1,1c-.1.63-.23,1.13-.3,1.45a6.34,6.34,0,0,1-2.19,3.29A8,8,0,0,1,43.25,47a6.62,6.62,0,0,1-1.66.38c-.73.08-1.05.29-1.19.61A1,1,0,0,0,40.3,48.59Z"/><path class="cls-1" d="M17.78,19.24c0,.07,2,.51,2.11,0a1.42,1.42,0,0,1,.52-.77,1.85,1.85,0,0,1,1.51-.37,1.94,1.94,0,0,1,1.35,1,1.75,1.75,0,0,1,.23,1.11A2.23,2.23,0,0,1,23,21.2a2.08,2.08,0,0,1-1.52.78A2.11,2.11,0,0,1,20,21.39a3.13,3.13,0,0,1-.56-.85c-.2-.41-.2-.66-.33-.8s-.33-.21-.77-.32c-.85-.24-1.93-.48-2.12.59a4.49,4.49,0,0,0,.52,2.32A5.18,5.18,0,0,0,20,25a5.26,5.26,0,0,0,4.2-.69,5.5,5.5,0,0,0,1.71-1.82,4.77,4.77,0,0,0,.64-1.67,5.17,5.17,0,0,0-2.33-5.31,4.82,4.82,0,0,0-2.56-.77,6,6,0,0,0-3,.75,8.2,8.2,0,0,0-.81.5,5.28,5.28,0,0,0-1.57,2.42C16.46,19,17.42,19.16,17.78,19.24Z"/><path class="cls-1" d="M17.78,36.84c0,.07,2,.51,2.11-.05a1.44,1.44,0,0,1,.52-.76,1.85,1.85,0,0,1,1.51-.37,1.94,1.94,0,0,1,1.35,1,1.75,1.75,0,0,1,.23,1.11A2.23,2.23,0,0,1,23,38.8a2.08,2.08,0,0,1-1.52.78A2.11,2.11,0,0,1,20,39a3.13,3.13,0,0,1-.56-.85c-.2-.41-.2-.66-.33-.8s-.33-.21-.77-.32c-.85-.24-1.93-.48-2.12.59a4.49,4.49,0,0,0,.52,2.32,5.18,5.18,0,0,0,7.49,2,5.5,5.5,0,0,0,1.71-1.82,4.77,4.77,0,0,0,.64-1.67,5.19,5.19,0,0,0-2.33-5.32,4.89,4.89,0,0,0-2.56-.76,6,6,0,0,0-3,.75,8.2,8.2,0,0,0-.81.5A5.28,5.28,0,0,0,16.33,36C16.46,36.55,17.42,36.76,17.78,36.84Z"/><path class="cls-1" d="M34.91,19.24c0,.07,2,.51,2.11,0a1.42,1.42,0,0,1,.52-.77,1.85,1.85,0,0,1,1.51-.37,1.94,1.94,0,0,1,1.35,1,1.75,1.75,0,0,1,.23,1.11,2.23,2.23,0,0,1-.46,1.06,2.06,2.06,0,0,1-3.06.19,3.13,3.13,0,0,1-.56-.85c-.2-.41-.2-.66-.33-.8s-.33-.21-.77-.32c-.85-.24-1.93-.48-2.12.59a4.49,4.49,0,0,0,.52,2.32A5.18,5.18,0,0,0,37.14,25a5.27,5.27,0,0,0,4.2-.69,5.5,5.5,0,0,0,1.71-1.82,4.77,4.77,0,0,0,.64-1.67,5.17,5.17,0,0,0-2.33-5.31,4.85,4.85,0,0,0-2.56-.77,6,6,0,0,0-3,.75A7.85,7.85,0,0,0,35,16a5.34,5.34,0,0,0-1.56,2.42C33.59,19,34.55,19.16,34.91,19.24Z"/><path class="cls-1" d="M34.91,36.84c0,.07,2,.51,2.11-.05a1.44,1.44,0,0,1,.52-.76,1.85,1.85,0,0,1,1.51-.37,1.94,1.94,0,0,1,1.35,1,1.75,1.75,0,0,1,.23,1.11,2.23,2.23,0,0,1-.46,1.06,2.06,2.06,0,0,1-3.06.19,3.13,3.13,0,0,1-.56-.85c-.2-.41-.2-.66-.33-.8s-.33-.21-.77-.32c-.85-.24-1.93-.48-2.12.59a4.49,4.49,0,0,0,.52,2.32,5.21,5.21,0,0,0,3.29,2.67,5.27,5.27,0,0,0,4.2-.69,5.5,5.5,0,0,0,1.71-1.82,4.77,4.77,0,0,0,.64-1.67,5.19,5.19,0,0,0-2.33-5.32,4.92,4.92,0,0,0-2.56-.76,6,6,0,0,0-3,.75,7.85,7.85,0,0,0-.82.5A5.34,5.34,0,0,0,33.46,36C33.59,36.55,34.55,36.76,34.91,36.84Z"/><path class="cls-1" d="M26.34,29.31s0,.85,0,.8a.9.9,0,0,1,.44-.17c.06,0,.39.07.44,0s.07-.06.07-.42a3.44,3.44,0,0,0,0-.83c0-.06-.37,0-.41,0a.45.45,0,0,0-.33,0,.08.08,0,0,1-.12,0h-.09C26.34,28.77,26.34,29.16,26.34,29.31Z"/><path class="cls-1" d="M22.49,29.31s0,.85.08.8a2.79,2.79,0,0,1,.85-.17,3.48,3.48,0,0,0,.85,0c.13-.06.13-.06.14-.42a2.31,2.31,0,0,0-.06-.83,7.12,7.12,0,0,0-.8,0,1.56,1.56,0,0,0-.62,0c-.17,0-.24,0-.24,0h-.17A4.43,4.43,0,0,0,22.49,29.31Z"/><path class="cls-1" d="M18.64,29.31s0,.85.08.8a2.79,2.79,0,0,1,.84-.17,3.5,3.5,0,0,0,.85,0c.14-.06.14-.06.15-.42a2.58,2.58,0,0,0-.06-.83,7.29,7.29,0,0,0-.81,0,1.54,1.54,0,0,0-.62,0,.21.21,0,0,1-.23,0h-.17A4.43,4.43,0,0,0,18.64,29.31Z"/><path class="cls-1" d="M15.71,29.31s0,.85,0,.8a.9.9,0,0,1,.44-.17c.06,0,.4.07.44,0s.07-.06.08-.42a5.09,5.09,0,0,0,0-.83c0-.06-.38,0-.42,0a.43.43,0,0,0-.32,0,.09.09,0,0,1-.13,0h-.08C15.71,28.77,15.71,29.16,15.71,29.31Z"/><path class="cls-1" d="M43.34,29.31s0,.85,0,.8a.86.86,0,0,1,.44-.17c.06,0,.39.07.44,0s.07-.06.07-.42a4.1,4.1,0,0,0,0-.83c0-.06-.38,0-.42,0a.42.42,0,0,0-.32,0c-.09,0-.12,0-.12,0h-.09C43.34,28.77,43.34,29.16,43.34,29.31Z"/><path class="cls-1" d="M39.49,29.31s0,.85.08.8a2.79,2.79,0,0,1,.84-.17,3.5,3.5,0,0,0,.85,0c.14-.06.14-.06.14-.42a2.4,2.4,0,0,0,0-.83,7.29,7.29,0,0,0-.81,0,1.54,1.54,0,0,0-.62,0c-.17,0-.23,0-.23,0h-.17A4.43,4.43,0,0,0,39.49,29.31Z"/><path class="cls-1" d="M35.63,29.31s0,.85.09.8a2.73,2.73,0,0,1,.84-.17,3.49,3.49,0,0,0,.85,0c.14-.06.14-.06.14-.42a2.4,2.4,0,0,0,0-.83,7.29,7.29,0,0,0-.81,0,1.54,1.54,0,0,0-.62,0c-.17,0-.24,0-.24,0h-.16A4.36,4.36,0,0,0,35.63,29.31Z"/><path class="cls-1" d="M32.71,29.31s0,.85,0,.8a.9.9,0,0,1,.44-.17c.06,0,.39.07.44,0s.07-.06.07-.42a3.44,3.44,0,0,0,0-.83c0-.06-.37,0-.41,0a.45.45,0,0,0-.33,0,.08.08,0,0,1-.12,0h-.09C32.71,28.77,32.71,29.16,32.71,29.31Z"/><path class="cls-1" d="M29.78,17.23s.86,0,.8,0a.9.9,0,0,1-.17-.44,1,1,0,0,0,0-.44c-.07-.07-.07-.07-.43-.08a5.23,5.23,0,0,0-.83,0c-.05,0,0,.38,0,.42a.43.43,0,0,0,0,.32c.05.09,0,.13,0,.13v.09Z"/><path class="cls-1" d="M29.78,21s.86,0,.8-.08a2.61,2.61,0,0,1-.17-.82,3.35,3.35,0,0,0,0-.83c-.07-.13-.07-.13-.43-.13a2.45,2.45,0,0,0-.83.05c-.05.06,0,.71,0,.78a1.46,1.46,0,0,0,0,.6c.05.17,0,.24,0,.24v.16A4.36,4.36,0,0,0,29.78,21Z"/><path class="cls-1" d="M29.78,24.71s.86,0,.8-.08a2.61,2.61,0,0,1-.17-.82,3.35,3.35,0,0,0,0-.83c-.07-.13-.07-.13-.43-.13a2.45,2.45,0,0,0-.83,0c-.05.06,0,.71,0,.78a1.46,1.46,0,0,0,0,.6c.05.17,0,.24,0,.24v.16A4.36,4.36,0,0,0,29.78,24.71Z"/><path class="cls-1" d="M29.78,28.45s.86,0,.8-.08a2.67,2.67,0,0,1-.17-.82,3.35,3.35,0,0,0,0-.83c-.07-.13-.07-.13-.43-.14a2.65,2.65,0,0,0-.83.06c-.05.06,0,.71,0,.78a1.46,1.46,0,0,0,0,.6c.05.17,0,.23,0,.23v.17A4.36,4.36,0,0,0,29.78,28.45Z"/><path class="cls-1" d="M29.78,32.19s.86,0,.8-.08a2.67,2.67,0,0,1-.17-.82,3.35,3.35,0,0,0,0-.83c-.07-.13-.07-.13-.43-.14a2.65,2.65,0,0,0-.83.06c-.05.06,0,.71,0,.78a1.46,1.46,0,0,0,0,.6c.05.17,0,.23,0,.23v.17A6.4,6.4,0,0,0,29.78,32.19Z"/><path class="cls-1" d="M29.78,35.93s.86,0,.8-.08a2.67,2.67,0,0,1-.17-.82,3.35,3.35,0,0,0,0-.83c-.07-.13-.07-.13-.43-.14a2.65,2.65,0,0,0-.83.06c-.05.06,0,.71,0,.78a1.46,1.46,0,0,0,0,.6c.05.17,0,.23,0,.23v.17A6.4,6.4,0,0,0,29.78,35.93Z"/><path class="cls-1" d="M29.78,39.67s.86,0,.8-.08a2.67,2.67,0,0,1-.17-.82,3.35,3.35,0,0,0,0-.83c-.07-.13-.07-.13-.43-.14a2.65,2.65,0,0,0-.83.06c-.05.06,0,.71,0,.78a1.45,1.45,0,0,0,0,.6c.05.17,0,.23,0,.23v.17A6.4,6.4,0,0,0,29.78,39.67Z"/><path class="cls-1" d="M29.78,42.54s.86,0,.8,0a.83.83,0,0,1-.17-.43,1,1,0,0,0,0-.44c-.07-.07-.07-.07-.43-.08a5.23,5.23,0,0,0-.83,0c-.05,0,0,.38,0,.42a.42.42,0,0,0,0,.32c.05.09,0,.13,0,.13v.08C29.25,42.54,29.64,42.54,29.78,42.54Z"/></svg>