<svg id="Pieces" xmlns="http://www.w3.org/2000/svg" viewBox="0 0 60 60"><defs><style>.cls-1{fill:none;}.cls-2{fill:#fff;}</style></defs><path class="cls-1" d="M39.28,28.9a2.2,2.2,0,1,1-1.75-2.56A2.19,2.19,0,0,1,39.28,28.9Z"/><path class="cls-2" d="M37.53,26.34a2.19,2.19,0,1,0,1.75,2.56A2.18,2.18,0,0,0,37.53,26.34Z"/><path class="cls-2" d="M23.05,28.9a2.2,2.2,0,1,0-2.57,1.75A2.19,2.19,0,0,0,23.05,28.9Z"/><path class="cls-2" d="M38.41,37.92c-.08-.15-.21-.16-.48-.19-.54-.06-1.16,0-1.26.29a3.88,3.88,0,0,1-.85,1.86,3,3,0,0,1-1.85,1,3.58,3.58,0,0,1-2.92-1.08,2,2,0,0,1-.56-.93c-.93-2.54-.93-2.54-2.42-.4a3.36,3.36,0,0,1-.74,1.4,3,3,0,0,1-1.85,1,3.58,3.58,0,0,1-2.92-1.08A1.62,1.62,0,0,1,22,38.73a2.68,2.68,0,0,1-.17-.85,2.36,2.36,0,0,0-1-.15,2.32,2.32,0,0,0-.63,0,.56.56,0,0,0-.51.74,5.76,5.76,0,0,0,.46,1.32,5.32,5.32,0,0,0,3.18,2.73,6.63,6.63,0,0,0,1.36.25,4.8,4.8,0,0,0,1.42-.09,5.07,5.07,0,0,0,3.06-2,4.81,4.81,0,0,0,.79.84,5.2,5.2,0,0,0,1.87,1,6.45,6.45,0,0,0,1.35.25,4.8,4.8,0,0,0,1.42-.09,5.14,5.14,0,0,0,2-.92A5,5,0,0,0,38,40.11a3.88,3.88,0,0,0,.43-1.21A2,2,0,0,0,38.41,37.92Z"/><path class="cls-2" d="M30.34,38.62a5.28,5.28,0,0,0,2-2.83c.34-.92-.86-1.8-2.69-2s-3.61.43-4,1.35c-.28.73,1,2.51,2.44,3.29A2.11,2.11,0,0,0,30.34,38.62Z"/><path class="cls-2" d="M47.82,25.47a9.74,9.74,0,0,0-2.16-5.21h-.27a4.48,4.48,0,0,1-.56.6,1.19,1.19,0,0,0-.2,1.53,8.61,8.61,0,0,1,1.22,3.53,17.11,17.11,0,0,0-.3,2.15c-.29.59-.49,1.24-.83,1.8a2.25,2.25,0,0,0-.68,1,7.28,7.28,0,0,1-2.74,1.87c-.42.14-.86-.06-1.23,0a8,8,0,0,1-5.28-.88,4.2,4.2,0,0,1-2.07-2.42c0-.58-.42-1-.58-1.53a6.67,6.67,0,0,1,0-3.6,6.35,6.35,0,0,1,3.06-4.29c.9-.32,1.13-.56,2.06-.82a8.9,8.9,0,0,1,3.4,0l2.79,1.47a.71.71,0,0,0,.22.16,9.12,9.12,0,0,0,.94-1.21c-.18-.17-.07-.42-.07-.63-2.8-2.62-7.93-2.45-11.07-.24a9.26,9.26,0,0,0-3,9.94c.51,4,5.18,6.38,9,6.2,2.1.17,5.47-1.82,6.68-3.62A9.06,9.06,0,0,0,47.82,25.47Z"/><path class="cls-2" d="M58.7,46.27A10.79,10.79,0,0,0,58,43.18c-.37-.91-.74-1.74-.93-2.18a29.45,29.45,0,0,1-1.28-5A37.32,37.32,0,0,0,54,31.1c-.46-1.18-.92-2.36-1.46-3.51a22.14,22.14,0,0,0-1.67-3c-.34-.53-.71-1-1.08-1.51a26.86,26.86,0,0,1-2.32-3.29c-.73-1.49-1.32-1.71-2.42-2.92-1.28-1.43-3.41-3.69-4.23-4.06a18.44,18.44,0,0,1-2.2-1.57l-.25-.18.07-.15a13.17,13.17,0,0,1,.88-1.84c.46-.72.71-1.66-.12-1.76-.41,0-1.42-.45-2.51-.76a11.27,11.27,0,0,0-2.75-.46c-.52,0-1.8-.06-3.21.09a16.25,16.25,0,0,0-4,.88c-2.09.83-4.3,1.32-6.24,2.7-.52.4-1.17.53-1.66.94A12.21,12.21,0,0,0,17.5,12c-.53.62-1,1.28-1.31,1.61a45.28,45.28,0,0,0-3.79,5.69A27.45,27.45,0,0,0,10.85,22c-.33.59-.68,1.16-1,1.7S9,24.9,8.61,25.51a32.27,32.27,0,0,0-2.09,3.76A24.34,24.34,0,0,0,4.83,34C4.46,35.5,2.77,40.25,2,43.09l-.05.06a12.86,12.86,0,0,0-.59,5l0,.47.12.5c.09.33.17.65.26,1a6.48,6.48,0,0,0,1.61,2.36l.61.43a3.57,3.57,0,0,0,.78.44,6.5,6.5,0,0,0,4.15.4,8.31,8.31,0,0,0,4.21-2.27,10.86,10.86,0,0,0,1-1.2l.59-.94a6,6,0,0,1,.38-.71,8.2,8.2,0,0,0,.7-3.54,16.22,16.22,0,0,0-.05-3.9c-.12-1.21-.27-2.4-.34-3.76a3.88,3.88,0,0,0-.6-2.34c-.46-.43-1.74-.15-2.72.31-.73.34-.11,2.25,0,2.63a24.64,24.64,0,0,1,.25,4,15,15,0,0,1-.68,4.75c-.07.34-.18.58-.24.89a2.92,2.92,0,0,1-.32.75,4.84,4.84,0,0,1-.54.46,8.75,8.75,0,0,1-2.82,1.28,2.68,2.68,0,0,1-1.55,0c-.25,0-.37-.21-.57-.3s-.31-.3-.38-.58a6.13,6.13,0,0,1,0-3.65,45.87,45.87,0,0,1,1.47-4.43C7.32,39.4,8,36.37,8.25,35.28a23.24,23.24,0,0,1,2.61-5.43c.5-.86.93-1.75,1.39-2.59.22-.44.46-.83.7-1.26l.82-1.35,2.36-3.77c.68-1.09,1.33-2.16,2-3.17.37-.54.74-1.08,1.13-1.58a8.7,8.7,0,0,1,3.13-2.69c1.54-.5,2-1,3.56-1.65A18.27,18.27,0,0,1,29.33,11c1.14-.17,2.14-.22,2.57-.34a7.33,7.33,0,0,1,2.69,0l.09,0A12.76,12.76,0,0,1,34,11.83c-.46.71-.81,1.62-.27,1.64s2.33,1.59,2.94,1.95,2.42,1.94,3.74,3c-.14,0,6.27,4.38,7.27,8.8a22.08,22.08,0,0,1,1.43,2.57,22.61,22.61,0,0,0,1,2.24,51.37,51.37,0,0,1,2,6.34,26.22,26.22,0,0,0,1.41,3.73c.55,1.11,1.7,5,1.07,6.52l0,0s-.05.15-.1.27a1.74,1.74,0,0,0-.2.41,1.68,1.68,0,0,1-.8.69l-.14.08-.18,0c-.13,0-.23.06-.36.07a3.84,3.84,0,0,1-.76,0,3.35,3.35,0,0,1-1-.23,7.68,7.68,0,0,1-1.59-1,4.84,4.84,0,0,1-1.31-1.71,3.81,3.81,0,0,1-.38-1.29,2.84,2.84,0,0,1,0-.47,17.5,17.5,0,0,0-.25-2.31c.08-2-.2-3.66.36-5.7.16-.6.39-1.41.1-1.85a3.94,3.94,0,0,0-2.63-.72c-.84,0-.86,1.84-.78,2.2s-.43,2.32-.49,3.55A31.18,31.18,0,0,0,44,45.41a9.71,9.71,0,0,0,.64,2.23,5.92,5.92,0,0,0,.23,1,5.75,5.75,0,0,0,.4,1,7.18,7.18,0,0,0,.65,1,9.17,9.17,0,0,0,.8.84c.3.24.59.46.88.66a10.23,10.23,0,0,0,4.89,1.52l.64,0c.22,0,.45-.05.68-.08a5.12,5.12,0,0,0,1.37-.38,5.44,5.44,0,0,0,1.31-.76,8.68,8.68,0,0,0,1.05-1.13c.23-.42.49-.86.68-1.3s.26-.88.38-1.32A12.4,12.4,0,0,0,58.7,46.27Z"/><path class="cls-2" d="M34.11,41.26c-.07-.14-.2-.16-.47-.19-.54-.06-1.16,0-1.26.3-.05.14.57,3.24-.92,4.46s-3.87,1.4-5,0c-.68-.72-.87-4.32-.92-4.46-.1-.31-.72-.36-1.26-.3-.27,0-.4,0-.48.19a29.59,29.59,0,0,0,.05,3.59,4,4,0,0,0,.43,1.22,5,5,0,0,0,1.39,1.64,5,5,0,0,0,3.3,1,5.22,5.22,0,0,0,1.31-.1,5.14,5.14,0,0,0,2-.92,5,5,0,0,0,1.39-1.64,4,4,0,0,0,.43-1.22A29.35,29.35,0,0,0,34.11,41.26Z"/></svg>