<svg id="Pieces" xmlns="http://www.w3.org/2000/svg" viewBox="0 0 60 60"><defs><style>.cls-1{fill:#792f6c;}</style></defs><path class="cls-1" d="M13.84,22.6a10.13,10.13,0,0,1-2.33,0c-1-.14-2.06.15-1.79,1.33s-.14,1.64,0,3.26,0,7.94.25,11.63a50.23,50.23,0,0,1,0,5.49l-.08,2.75v1.38l0,2.05c0,1.39-.13,2.77-.21,4.24q.69.06,1.47.06l2.24,0,1.64-.06h.41l.23,0,.48,0c1.29-.08,2.66-.16,3.35-.16,4.4,0,10.35-.25,11.58-.17,1.81.12,3.65,0,5.46,0s3.61,0,5.42.11l2.92.15,5.26.14.15-6.38a74.57,74.57,0,0,0-.22-8.72C49.88,37,50,28.09,50.1,23c0,0,0-.08,0-.13.11-.61.08-4.21,0-7.85,0-1.82,0-3.65-.06-5.12,0-1.25,0-2.35,0-3.21s0-1.67,0-2V3.84l-4-.08-4-.07c-2.37,0-4.92,0-6.53.08a28.64,28.64,0,0,1-3.56,0,7.55,7.55,0,0,1-1.15-.12c-1.78-.36-3.72.13-5.54.07L24,3.72l-2.55,0L19.75,5.59c-.27.33-.54.65-.82,1-.53.64-1.05,1.26-1.59,1.89a41.23,41.23,0,0,1-3.58,3.75c-1,.92-3.4,3.22-3.55,4.24C10,21,11.85,20.32,14,20c1.85-.68,1-2,3.82-4.45.35-.66,3.41-3.52,5.08-5.41l.8-.89.1-.06.09,0,.05,0,.44,0,1.79.09c1.19.06,2.39.1,3.55.1,1.46,0,2.9-.27,4.35-.34l1.77.1a61,61,0,0,0,7.53,0l1.06-.06h.17l.07,0A1.62,1.62,0,0,1,45,9a2.3,2.3,0,0,1,.07.36v1.94c-.08,5.63-.3,11.62-.5,17.35-.11,3.38.47,8.94.62,11a40.09,40.09,0,0,1,0,5.48L45,47.81l0,.68,0,.35c0,.11,0,.25,0,.22a.48.48,0,0,1-.09.13l-.06.07a.41.41,0,0,0-.18,0h-.66l-1.2,0c-1.59,0-3.18.08-4.77.08L30,49.29c-2.33,0-4.66.06-7,.15l-3.73.15c-.83,0-2,.08-3.22.1h-.89a1.35,1.35,0,0,1-.33-.05,1.15,1.15,0,0,1,.13-.37l.14-.2,0,0a1,1,0,0,0,0-.21l0-.49c0-.63,0-1.18,0-1.74,0-1.12-.13-2.25-.13-3.94,0-4,.27-10.3,0-12.06a30.68,30.68,0,0,1,0-6.21C15.21,22.34,13.84,22.6,13.84,22.6Z"/><path class="cls-1" d="M40.46,25.62s.32-1.28-.87-1.2-7.48.3-8.76.26S23,24.57,22,24.63c-1.39.11-1.39.11-1.47.65s0,1.15.59,1.24,7.56,0,8.36,0,4.69.1,6.45,0a15.84,15.84,0,0,1,2.46,0h1.75C40.43,26.42,40.46,25.84,40.46,25.62Z"/><path class="cls-1" d="M20.54,31.38s-.32,1.28.87,1.2,7.48-.3,8.76-.26,7.88.11,8.83,0c1.39-.11,1.39-.11,1.47-.65s0-1.15-.59-1.24-7.56,0-8.36,0-4.69-.1-6.45,0a15.84,15.84,0,0,1-2.46,0H20.86C20.57,30.58,20.54,31.16,20.54,31.38Z"/><path class="cls-1" d="M20.54,37.38s-.32,1.28.87,1.2,7.48-.3,8.76-.26,7.88.11,8.83,0c1.39-.11,1.39-.11,1.47-.65s0-1.15-.59-1.24-7.56,0-8.36,0-4.69-.1-6.45,0a15.84,15.84,0,0,1-2.46,0H20.86C20.57,36.58,20.54,37.16,20.54,37.38Z"/><path class="cls-1" d="M13,18.88s-.32,1.28.87,1.2c.6,0,4.47-.12,6.35-.18l2.67-.07h2.9c0-.92,0-3.17.06-5.32,0-1.82,0-3.56,0-4-.11-1.39-.11-1.39-.65-1.47S24.07,9,24,9.62s0,7.62,0,8.3c0,0,0,0,0,0s0,0-.07,0H22.42c-1,0-2.13,0-2.85,0a15.84,15.84,0,0,1-2.46,0H15.36C15.07,18.08,13,18.66,13,18.88Z"/></svg>