<svg id="Pieces" xmlns="http://www.w3.org/2000/svg" viewBox="0 0 60 60"><defs><style>.cls-1{fill:none;}.cls-2{fill:#fff;}</style></defs><path class="cls-1" d="M39.63,16.68l-.37-.63c-.1-.21-.23-.4-.34-.63s-.19-.52-.33-.86a4.45,4.45,0,0,0-1-1.45,11.37,11.37,0,0,0-1.46-1.24,11.67,11.67,0,0,0-1.38-.76A12.11,12.11,0,0,0,32,10.19a10.19,10.19,0,0,0-3.26-.2,12.67,12.67,0,0,0-4.22,1.58c-.28.17-.58.3-.86.48l.82.81a13.64,13.64,0,0,0,2.12,2.21c1.62,1.44,5,4.93,5.61,5.68.47.55,3.9,3.83,5.9,5.83a7.27,7.27,0,0,0,1.37-1.85,5,5,0,0,0,.65-2.22c0-.38.11-1.2.17-2.15A10.27,10.27,0,0,0,40,17.52C39.85,17.19,39.73,16.92,39.63,16.68Z"/><path class="cls-1" d="M28.84,21.74c-1-1.13-6.44-6.07-7.84-7.25l-.12.21a12.18,12.18,0,0,0-.66,2c-.17.85-.32,1.74-.43,2.42A9.28,9.28,0,0,0,21.09,26a7.23,7.23,0,0,0,1.29,1.43A10,10,0,0,0,24,28.67c.84.52,1.83,1,2.71,1.45a4.13,4.13,0,0,0,.68.3c.6.09,1.22-.05,1.8,0a9.21,9.21,0,0,0,3.91-.26,8.64,8.64,0,0,0,2.7-1.32C34,27.06,29.74,22.72,28.84,21.74Z"/><path class="cls-2" d="M44.72,18.54c-.51-2.12-.91-4.43-2.32-6.22-.41-.48-.5-1.12-.93-1.57-.09-.09-.27-.27-.5-.48s-.48-.39-.75-.62L38.65,8.44a12.35,12.35,0,0,0-3.71-2A11.74,11.74,0,0,0,33.26,6l-1-.22A9.15,9.15,0,0,0,29,5.61a20.78,20.78,0,0,0-4.29.76,13.13,13.13,0,0,0-4,2l-1,.89c-.28.27-.53.52-.79.81s-.59.69-.86,1.05a11.29,11.29,0,0,0-.69,1.15,22.13,22.13,0,0,0-1.79,4.12A15.24,15.24,0,0,0,15,22l0,.09a11.37,11.37,0,0,0,1.33,4.61,13.92,13.92,0,0,0,.83,1.42c.3.44.62.84.89,1.2l1.18,1.32a9.37,9.37,0,0,0,.75.84,11.74,11.74,0,0,0,1.57,1.37,10.72,10.72,0,0,0,3.77,1.85l1.82.44c-.05,1.43.07,4.6.09,6.32a38.46,38.46,0,0,0-4.27,0c-1.12.24-1.12.24-1.19,1.5s0,2.7.48,2.9a40.17,40.17,0,0,0,4.8,0,25.44,25.44,0,0,0,.08,2.91,5.35,5.35,0,0,1-.09,2.4v1.69a7.56,7.56,0,0,0,2.57.31s3.43.31,3.2-.85c-.16-.81-.49-4-.63-6.31a20.7,20.7,0,0,0,2.09-.08,4.35,4.35,0,0,1,2,.08h1.42a7,7,0,0,0,.26-2.25s.26-3-.71-2.8c-.65.14-3.12.4-5,.54a62,62,0,0,0,0-6.23h0a11.56,11.56,0,0,0,3.11-1c1.13-.57,2.21-1.19,3.45-1.93a5.41,5.41,0,0,0,1.11-.84,5.81,5.81,0,0,0,1.53-1.61c.17-.34.84-1.11,1.44-2a9.23,9.23,0,0,0,1.23-2.35c0-.25.19-.66.35-1.17a16.27,16.27,0,0,0,.39-1.84A10.88,10.88,0,0,0,44.72,18.54ZM33.09,30.16a9.21,9.21,0,0,1-3.91.26c-.58-.05-1.2.09-1.8,0a4.13,4.13,0,0,1-.68-.3c-.88-.46-1.87-.93-2.71-1.45a10,10,0,0,1-1.61-1.21A7.23,7.23,0,0,1,21.09,26a9.28,9.28,0,0,1-1.3-6.91c.11-.68.26-1.57.43-2.42a12.18,12.18,0,0,1,.66-2l.12-.21c1.4,1.18,6.81,6.12,7.84,7.25s5.11,5.32,7,7.1A8.64,8.64,0,0,1,33.09,30.16Zm7-7.65a5,5,0,0,1-.65,2.22,7.27,7.27,0,0,1-1.37,1.85c-2-2-5.43-5.28-5.9-5.83-.64-.75-4-4.24-5.61-5.68a13.64,13.64,0,0,1-2.12-2.21l-.82-.81c.28-.18.58-.31.86-.48A12.67,12.67,0,0,1,28.72,10a10.19,10.19,0,0,1,3.26.2,12.11,12.11,0,0,1,2.74.92,11.67,11.67,0,0,1,1.38.76,11.37,11.37,0,0,1,1.46,1.24,4.45,4.45,0,0,1,1,1.45c.14.34.23.62.33.86s.24.42.34.63l.37.63c.1.24.22.51.34.84a10.27,10.27,0,0,1,.31,2.84C40.22,21.31,40.1,22.13,40.11,22.51Z"/></svg>