<svg id="Layer_1" data-name="Layer 1" xmlns="http://www.w3.org/2000/svg" xmlns:xlink="http://www.w3.org/1999/xlink" viewBox="0 0 60 60"><defs><style>.cls-1{fill:none;clip-rule:evenodd;}.cls-2{clip-path:url(#clip-path);}.cls-3{clip-path:url(#clip-path-2);}.cls-4{clip-path:url(#clip-path-3);}.cls-5{clip-path:url(#clip-path-4);}.cls-6{clip-path:url(#clip-path-5);}.cls-7{fill:#fff;}</style><clipPath id="clip-path"><path class="cls-1" d="M526.51,195.2c4.59,4.42,10,10.06,12.61,15.16a5.47,5.47,0,0,1-2.28,3.39,7.85,7.85,0,0,0-2.74,2.66c-.69.77-2.46,2-2.86,1.66-.12-.11-7.76-7.69-9.86-10.48-4.77-6.36-6.87-11.2-11.58-12.33-6.79-1.63,2.48-3,3.67-6s2.14-4.21,3.69-4,4.8,3.17,4.8,3.17A20.61,20.61,0,0,0,526.51,195.2Z"/></clipPath><clipPath id="clip-path-2"><path class="cls-1" d="M545.41,192.71c-1.15-4.65-2.34-10.38-1.85-14.41a4,4,0,0,1,3-.7,6.38,6.38,0,0,0,3-.07c.8-.07,2.54.13,2.64.52,0,.12,1.86,8,2,10.53.42,5.79-.28,9.43,2.39,12.38,3.85,4.23-3,.4-5.1,1.43s-3.27,1.21-4.21.32-1.84-4.09-1.84-4.09A13.3,13.3,0,0,0,545.41,192.71Z"/></clipPath><clipPath id="clip-path-3"><path class="cls-1" d="M507.62,223.54c5.2.91,11.54,2.24,15.65,4.43a4,4,0,0,1-.07,3.17,5.76,5.76,0,0,0-.72,2.9c-.14.79-.82,2.36-1.26,2.29-.13,0-8.89-1.66-11.61-2.58-6.21-2.08-9.85-4.31-13.66-3-5.48,1.84.37-3-.14-5.48s-.4-3.64.79-4.15,4.79,0,4.79,0A17.43,17.43,0,0,0,507.62,223.54Z"/></clipPath><clipPath id="clip-path-4"><path class="cls-1" d="M512.82,254.38c4-3.85,9.06-8.42,13.43-10.68a3.71,3.71,0,0,1,2.56,1.73,5,5,0,0,0,1.92,2.14c.56.54,1.43,1.93,1.1,2.26-.11.1-6.94,6.52-9.39,8.31-5.6,4.06-9.71,5.91-11.05,9.77-1.92,5.54-2.25-1.92-4.58-2.79s-3.24-1.59-2.91-2.85,3-4,3-4A20.31,20.31,0,0,0,512.82,254.38Z"/></clipPath><clipPath id="clip-path-5"><path class="cls-1" d="M575.54,197.9c4-3.85,9.07-8.42,13.44-10.68a3.71,3.71,0,0,1,2.56,1.73c.62,1.41,1.36,1.6,1.92,2.14s1.43,1.93,1.09,2.26c-.1.1-6.93,6.52-9.39,8.31-5.59,4.06-9.7,5.91-11,9.76-1.92,5.55-2.25-1.91-4.58-2.78s-3.24-1.59-2.92-2.85,3-4,3-4A20.33,20.33,0,0,0,575.54,197.9Z"/></clipPath></defs><path class="cls-7" d="M42.62,32.76A2.2,2.2,0,1,0,45.19,31,2.19,2.19,0,0,0,42.62,32.76Z"/><path class="cls-7" d="M57.61,33.63a3.12,3.12,0,0,0-.55-1.15c-.26-.28-.63-2.33-1.24-3.42-.32-.69-.69-1.4-1-2.14a13.18,13.18,0,0,0-1.23-2.09A10.46,10.46,0,0,0,52,23.34l-.54-.71a8.14,8.14,0,0,0-1.34-1.35,7.72,7.72,0,0,0-1.58-1.07l-1-.55-1-.45c-.66-.3-1.3-.65-2-.91s-1.29-.58-2-.79l-2.07-.63c-.69-.2-1.39-.31-2.09-.47s-1.41-.22-2.11-.31a10.67,10.67,0,0,0-3,.23,21.46,21.46,0,0,0-2.38.64c-1.71.53-3.5.65-5.25,1.17a17,17,0,0,0-4.75,2.64l-.43.3-.27.2-.08,0s-.08.05-.11.06a.18.18,0,0,0-.09-.08l-.08,0-.58-.54a17,17,0,0,0-1.54-1.18L16.89,19l-1.16-.69c-.54-.28-1.08-.55-1.57-.83s-.95-.44-1.32-.66A11.85,11.85,0,0,0,10,15.71L8.7,15.4,8,15.22c-.26-.08-.37-.07-.68-.15l-.16,0a64.69,64.69,0,0,1,1.63,7.4c.05.34.09.66.13.95a3.78,3.78,0,0,0,.18.83,6.87,6.87,0,0,1,.2,2.26,16.7,16.7,0,0,1-2,6.62l0,.11-.1.17-.22.38c-.15.25-.28.48-.46.76a18.49,18.49,0,0,1-1.35,1.76c-1,1.21-2.44,2.67-3.6,4l.18,0c.27,0,.58.07.8.08l.73,0c.64,0,1.29,0,1.81.09l1.14.25a10.26,10.26,0,0,0,2.7.3A14.14,14.14,0,0,0,12,40.65l.86-.27.54-.22c.36-.14.7-.29,1-.45.69-.3,1.35-.65,2.07-1,.32-.17.72-.42,1-.57l.2-.12.1,0,0,0a.46.46,0,0,1,.2,0c0,.09,1,1.44,1,1.51s1.55,1.55,1.72,1.37a11.74,11.74,0,0,0,1.41,1.74c1.47,1,2.66,2.4,4.15,3.47a18.88,18.88,0,0,0,4.95,2.14l1.85.56,1.87.44c.58.08,1.17.14,1.76.19l.88.06.9,0a14.8,14.8,0,0,0,1.88-.2l2.07-.4a11.25,11.25,0,0,1,2-.38,6.13,6.13,0,0,0,1.91-.52c.5-.27,1-.61,1.71-1A30.76,30.76,0,0,0,51,45a8.28,8.28,0,0,0,1.9-1.71,21.56,21.56,0,0,1,1.77-2l1.84-2.1a.72.72,0,0,0,.07-1,1.24,1.24,0,0,0-.46-.37,17.9,17.9,0,0,1-1.75-1.05c-.7-.47-1.53-.94-1.58-.43s-1.73,2-2.12,2.56a10.58,10.58,0,0,1-1.43,1.46c-.67.61-1.46,1.22-2,1.74-1.1,1-2.6,1.34-3.88,1.94-.36.22-.8,0-1.16.1-.15,0-.57.27-1.06.39a12.25,12.25,0,0,1-1.26.32,16.93,16.93,0,0,1-4.56-.18c-.71-.26-1.48-.33-2.21-.54a16.82,16.82,0,0,1-5.19-2.84c-.95-.65-1.85-1.34-2.85-2A9.21,9.21,0,0,1,23,37.28l-.55-.79-.6-1L21,33.68l-.09-.21-4.5-.28-.35.38-.3.24-.59.48-.15.12-.08.05-.16.11a7.8,7.8,0,0,1-1.89,1c-.36,0-1.63.47-1.53.08l.07-.22.29-.7A30.5,30.5,0,0,1,13,31.74c1.28-2.51.94-5.95.65-8.67a7.74,7.74,0,0,0-.14-.84,4.3,4.3,0,0,1,1.68.78c.34.27.69.56,1,.87l.25.24a2,2,0,0,1,.3.32,9.71,9.71,0,0,1,.79,1,11.61,11.61,0,0,1,1.86.53,4.18,4.18,0,0,0,.5.05l1.41.11c.3-.29.59-.58.89-.84l.44-.39.35-.28a15.77,15.77,0,0,1,5.35-2.36c1.11-.34,2.21-.62,3.31-1.07a10.71,10.71,0,0,1,2.95-.41,21.1,21.1,0,0,1,3.74.34.1.1,0,0,0,0,.05,6.28,6.28,0,0,0,1.1.26c.55.14,1.25.3,2,.46l1.9.67a7.17,7.17,0,0,1,1,.55,38,38,0,0,1,3.77,2.92,4,4,0,0,1,1,1,2.27,2.27,0,0,1,.19.42c.19.72,1,1.12,1.3,1.76.82,1.65,1.93,2.78,2.14,4.7.05.56.11,1.29.66,1.5a8.67,8.67,0,0,0,3.78-.52C57.67,34.72,57.73,34.15,57.61,33.63Z"/></svg>