<svg id="Pieces" xmlns="http://www.w3.org/2000/svg" viewBox="0 0 40 40"><defs><style>.cls-1{fill:#fff;}</style></defs><path class="cls-1" d="M19.89,23.86A23.27,23.27,0,0,1,16,27.44c-1.56.84-8,7.55-9.54,9.38-.79.91-1.37,1.37-2.12,1.14s-1.66-1.89-2.14-2.38-.09-1.63,1-2.42c1.91-1.39,6.51-6.65,8.29-8.22,2-1.74,3.56-2.84,5.1-4.48l3.12-3.84c2.43-2.79,5-4.81,6.46-6.31,1.77-1.83,5-4.59,5.37-5.23s2.71-3.62,3.82-3c1.45.78,2.83,2.2,2.61,3.2S36.31,7.51,35.24,8.4c-3.3,2.78-8.18,8.33-11.65,11.76Z"/><path class="cls-1" d="M21.09,24.64a77.36,77.36,0,0,0,5.65,5.76c2.39,1.65,6.69,6.87,7.17,7.31.87.79,1.11.37,1.11.37l2.75-2.75c.56-.56-.6-1.44-.6-1.44a58.6,58.6,0,0,0-8.79-9c-1.14-1.22-2.44-2.5-3.74-3.74L19,15.82c-2.17-1.93-4.8-4.45-4.8-4.45-1.86-2.76-6.41-6.47-8-8.21s-1.66-1.3-1.66-1.3S1.24,4.26,2.28,5.45s9,10.64,13.17,13.53a5.68,5.68,0,0,1,.6.51Z"/></svg>