<svg id="Pieces" xmlns="http://www.w3.org/2000/svg" viewBox="0 0 60 60"><defs><style>.cls-1{fill:#fff;}</style></defs><path class="cls-1" d="M34.08,19.58a12.85,12.85,0,0,1,.8-1.21c.38-.47.68-1.1.2-1.2a11.72,11.72,0,0,1-1.37-.65A5.18,5.18,0,0,0,32.15,16a15.78,15.78,0,0,0-1.91-.19,7.24,7.24,0,0,0-2.46.36,10.81,10.81,0,0,0-3.72,1.77c-.3.24-.67.35-1,.6a8.43,8.43,0,0,0-.68.89c-.25.42-.52.86-.64,1.09a8.08,8.08,0,0,0-1,2.4c-.2.8-.23,1.46-.3,1.69a5.66,5.66,0,0,0-.08,1l.09,1a11,11,0,0,0,1.75,5.16,6.45,6.45,0,0,0,2.55,2.11A17.43,17.43,0,0,0,27.34,35a10.42,10.42,0,0,0,3.43.41l.05,0a7.62,7.62,0,0,0,2.87-.59,12.53,12.53,0,0,0,2.66-1.5,7.45,7.45,0,0,0,1.57-1.4,7.14,7.14,0,0,0,1.32-2.32,11.77,11.77,0,0,1,.54-1.76,4.56,4.56,0,0,0,.08-2.14c0-1.69-.68-2.91-1.1-4.54-.13-.49-.39-1.15-.86-1.22s-1.57.63-2.4,1.29c-.62.5.12,1.19.29,1.34a6,6,0,0,1,.52,1.9,4.63,4.63,0,0,1,.09,1.31c0,.41-.08.8-.14,1.17a4.51,4.51,0,0,0,0,.52,1.94,1.94,0,0,1,0,.54c-.07.13-.12.26-.2.38l-.94,1.54a4,4,0,0,1-1.65,1.5,6.65,6.65,0,0,1-4.34.47c-.4-.08-.95-.14-1.46-.24a6.68,6.68,0,0,1-1.25-.35,3.76,3.76,0,0,1-1.81-2.11,9.34,9.34,0,0,1-1-2.55,6.57,6.57,0,0,1,0-2A9.35,9.35,0,0,1,24,23a5.65,5.65,0,0,1,.37-.88,3.37,3.37,0,0,1,1.43-1.55c.85-.28.95-.6,1.74-1a6.25,6.25,0,0,1,1.69-.36,10.92,10.92,0,0,0,1.31-.08,3,3,0,0,1,1.39.18,4.5,4.5,0,0,1,1.29.67C33.65,20.32,34.08,19.58,34.08,19.58Z"/><path class="cls-1" d="M44.13,11.52a13.19,13.19,0,0,1-1.63,1.67c-.75.6-1.39,1.53-.67,1.92a6.41,6.41,0,0,1,1.65,2.1c.58,1,1,2.13,1.26,2.6.12.25.29.69.49,1.24a18.07,18.07,0,0,1,.46,2A23.27,23.27,0,0,1,46,27.52c0,2.55-1.35,4.85-2.55,7A11.27,11.27,0,0,1,42,35.93c-.21.21-.6.83-1.32,1.65s-1.37,1.6-1.76,2c-2.48,2.44-5.62,6-6.36,6.6A19.92,19.92,0,0,0,31,47.66l-.38.39-.18.2,0,0-.14.19a2,2,0,0,1-.25.25,2.63,2.63,0,0,1-.33-.46l0-.06v0l-.09-.1-.41-.47-.82-.94C27.22,45.44,26.13,44.17,25,43a47.71,47.71,0,0,0-5-4.72c-.21-.16-.47-.39-.77-.65s-.65-.6-.92-.91a12.69,12.69,0,0,1-1-1.06c-.29-.41-.63-.82-.92-1.29a16,16,0,0,1-2.18-5.88s0-.06,0-.1a25.43,25.43,0,0,1,0-5.3,16.67,16.67,0,0,1,.35-1.79c.15-.57.36-1.09.5-1.57a11.47,11.47,0,0,1,.89-1.8A21.12,21.12,0,0,1,21.79,12,6.73,6.73,0,0,1,23,11.28a4.14,4.14,0,0,1,.91-.37,3.9,3.9,0,0,1,.76-.16c1.22,0,2.36-.85,3.61-.89a25.48,25.48,0,0,1,4.37,0,8.93,8.93,0,0,1,4.14,1.38c.8.5,1.76,1.27,2.57,1.15S41.53,10.62,42.18,9c.25-.59-.38-1.31-1.21-1.82a8.85,8.85,0,0,0-1.25-.6,4.61,4.61,0,0,0-.89-.23A4.87,4.87,0,0,1,37.9,6c-.44-.19-1-.39-1.62-.63s-1.3-.4-2-.59S33,4.56,32.44,4.48a22.53,22.53,0,0,0-8.67.5,8.72,8.72,0,0,0-1.83.79c-.59.3-1.13.68-1.7,1a13.79,13.79,0,0,0-1.45.7,15.23,15.23,0,0,0-5.12,4.45A26.91,26.91,0,0,0,10,19a22.06,22.06,0,0,0,.28,15.33,15.24,15.24,0,0,0,3,4.56c.64.67,1.34,1.28,1.88,1.76l1.3,1a52.26,52.26,0,0,1,5.85,6.4c.89,1,1.85,2,2.84,2.93l2.06,2L30,55.76l.73-.74,6-5.93c1.31-1.3,2.57-2.65,3.82-4l2-2.19c.55-.62,1.39-1.53,2.26-2.41.46-.51.93-1,1.37-1.47s.78-.91,1.11-1.23a8.11,8.11,0,0,0,1.22-1.52c.16-.24.3-.47.43-.69s.21-.47.32-.7a31.36,31.36,0,0,0,1.15-3.37,24.39,24.39,0,0,0,.92-6.1,18.15,18.15,0,0,0-.22-2.82,6.82,6.82,0,0,0-.46-1.81c-.18-.37-.34-1.06-.68-1.87-.16-.4-.3-.86-.5-1.31s-.42-.92-.64-1.4a27.42,27.42,0,0,0-2.71-4.34C44.94,10.36,44.13,11.52,44.13,11.52Z"/></svg>