<svg id="Layer_1" data-name="Layer 1" xmlns="http://www.w3.org/2000/svg" viewBox="0 0 300 12.79"><defs><style>.cls-1{fill:#97b5ff;}</style></defs><path class="cls-1" d="M284.3,2.91c-3.23.18-15.86,0-23.21.31s-14.64-.24-21.93,0c-2.07.06-3.9-.34-5.88-.34-1.64,0-9.77.42-12.52.42-8.78,0-20.67.3-23.12.2-3.61-.15-7.29,0-10.9,0-9.58.09-19.34-.55-29.1-.68-5.8-.08-11.62-.08-17.4.27-5.29.32-23,.13-33.2,0a2,2,0,0,0-.26-.06c-2.43-.29-28.77.14-31.8,0S57.11,2.74,50.45,3a63.3,63.3,0,0,1-9.39-.12C37.51,2.42,33.62,3,30,3c-9.39-.2-16.48.46-25.79-.08-1.29-.08-2.79,0-4.21,0V9.59c2,0,4,.11,4.72,0,1.44-.23,9.79.19,14.82.13,6.17-.07,12.86.37,19.17.37,2.9,0,5.78-.34,8.67-.43l3.54.12c4.8.2,10.24.17,15,0,6.16-.24,11.6-.4,17.78-.35,11.24.09,23.19.37,34.63.62,6.75.15,17.84-.58,21.89-.78,7.3-.34,14.57.24,21.85.5s14.64-.05,22,0c5.28,0,10.55.07,15.83.07,4.66,0,9.31-.07,14-.18l7.44-.19c4.16-.12,12.53-.27,16.53.08,6.66.59,8.88.12,15.64.12,7.93,0,20.56.34,24.08,0s18.25-.19,22.37,0H300V2.88C296.63,3.07,287.25,2.76,284.3,2.91Z"/></svg>