<svg id="Pieces" xmlns="http://www.w3.org/2000/svg" viewBox="0 0 60 60"><defs><style>.cls-1{fill:none;stroke:#5f205e;stroke-linecap:round;stroke-linejoin:round;stroke-width:0;}.cls-2{fill:#792f6c;}</style></defs><line class="cls-1" x1="29.66" y1="23.43" x2="29.66" y2="23.44"/><line class="cls-1" x1="33.15" y1="55.99" x2="33.15" y2="56.02"/><line class="cls-1" x1="41.35" y1="27.11" x2="41.36" y2="27.11"/><line class="cls-1" x1="34.42" y1="35.71" x2="34.42" y2="35.71"/><path class="cls-2" d="M40,26.42c-.32.19-2.57,3.29-2.9,3.59a23.71,23.71,0,0,0-2.27,2.75,3.1,3.1,0,0,1-.9,1l-.6.75a4.15,4.15,0,0,0,1,1.05l.13.12c.35.31,1.31,1.11,1.57.63a40,40,0,0,1,2.74-4,48.15,48.15,0,0,0,3.12-3.77c.36-.69.36-.69-.24-1.23l-.26-.22C40.81,26.65,40.23,26.25,40,26.42Z"/><line class="cls-1" x1="20.28" y1="26.94" x2="20.28" y2="26.94"/><line class="cls-1" x1="30.77" y1="33.9" x2="30.78" y2="33.91"/><path class="cls-2" d="M53.06,27.88a17.42,17.42,0,0,0-3.38-7.58,15.58,15.58,0,0,0-6.33-4.93c-.12,0-.08,0-.08,0h0l0,0s0,0,0-.07v-.09l-.29-1a14.87,14.87,0,0,0-1.78-3.73,12.56,12.56,0,0,0-4.19-3.86A14.91,14.91,0,0,0,32.58,4.9a18.9,18.9,0,0,0-10.09.17,14.57,14.57,0,0,0-7.65,6.83,16,16,0,0,0-1.44,3.47,16.44,16.44,0,0,0-.48,2.56c0,.05,0,0-.13.11a13.12,13.12,0,0,0-1.29,1.05,15,15,0,0,0-2.16,2.49,15.52,15.52,0,0,0-1.62,3.1,18,18,0,0,0-1,3.76,35,35,0,0,0-.24,3.83,10.51,10.51,0,0,0,.55,3.54,26.73,26.73,0,0,0,1.48,3.27,17,17,0,0,0,3.87,5.06,10.34,10.34,0,0,0,4.42,2.39,17.08,17.08,0,0,0,5.24.49l1.61-.2a13.57,13.57,0,0,0,1.45-.32l1.21-.32.85-.3c1.76-.62,1-1.61,1-1.61a9.56,9.56,0,0,1-.93-1.82c-.27-.79-.89-1.58-1.55-1a4.6,4.6,0,0,1-1,.51l-1.6.4-1.63.18a7.32,7.32,0,0,0-1.14,0,6.87,6.87,0,0,1-3-.73,11.27,11.27,0,0,1-3.4-2.56A9,9,0,0,1,12,36a21.67,21.67,0,0,1-1-3.7,7.53,7.53,0,0,1,.11-2,16.77,16.77,0,0,1,.1-1.92,7.9,7.9,0,0,1,.56-2.16,12.21,12.21,0,0,1,2.71-3.82,8,8,0,0,1,.8-.68c.06-.06.44-.32.69-.48l.76-.5.35-.22c0-.05.14-.06.14-.13v-.19c0-.24,0-.47,0-.68,0-.41.05-.73.07-1a2.82,2.82,0,0,1,.09-.61l.08-.45c0-.31.14-.6.2-.91a9.74,9.74,0,0,1,.56-1.76,9,9,0,0,1,3.08-3.78,11.38,11.38,0,0,1,4.39-1.94A15.22,15.22,0,0,1,31.36,9a9.15,9.15,0,0,1,4.33,2.3,11.21,11.21,0,0,1,2,2.55c.12.24.26.47.37.7l.29.7a5.24,5.24,0,0,1,.24.7l.11.33,0,.17.08.35a1.47,1.47,0,0,0,0,.21c0,.24.13.75.29,1.49-.06.49.53.45.93.65s.91.29,1.49.51a11.39,11.39,0,0,1,2.92,1.64,10.73,10.73,0,0,1,2.3,2.47,7.4,7.4,0,0,1,.9,1.74,11.89,11.89,0,0,1,.67,3.52,13.09,13.09,0,0,1-.6,4.41,8,8,0,0,1-.51,1.3l-.52.81a4.76,4.76,0,0,1-.53.54c-.94.72-1.55,1.89-2.6,2.52a14.53,14.53,0,0,1-3.91,1.68c-.35.06-.64.15-1,.2s-.79.09-1.17.11a6.53,6.53,0,0,1-2.19-.18,6.43,6.43,0,0,0-2.35-.6,1.22,1.22,0,0,0-.24.1c-.2-2.46-1.2-12.7-1.46-14.2-.39-2.25-.39-2.25-1.21-2.3h-.34c-.72,0-1.4.26-1.41,1.17,0,.51.32,3.41.66,6.42-1.08-.61-2.19-1.26-2.52-1.52-.64-.49-4.05-2.88-4.61-3.13C21,26,21,26,20.48,26.67l-.2.27c-.41.58-.74,1.2-.52,1.49s4,2.58,4.39,2.91a30.12,30.12,0,0,0,3.36,2.29,4.13,4.13,0,0,1,1.27.9l.58.38c.18,1.64.33,2.93.35,3.32.07,1.3.67,7.66,1.08,10.5a26,26,0,0,1,.38,4l.31,2.85c.28.44,1.16.4,1.49.37h.18c.48,0,1.73-.06,1.45-1.63-.21-1.22-.86-5.77-1.34-9.47a5.58,5.58,0,0,0,1.57.13c.37,0,1.58.11,2.86.07.66,0,1.27,0,2-.13a10.82,10.82,0,0,0,2-.36,18.18,18.18,0,0,0,4.21-1.69,13,13,0,0,0,3.62-2.86,12.89,12.89,0,0,0,2.05-3.6,14.21,14.21,0,0,0,.74-1.52A12.62,12.62,0,0,0,53.06,27.88Z"/></svg>