<svg id="Pieces" xmlns="http://www.w3.org/2000/svg" viewBox="0 0 60 60"><defs><style>.cls-1{fill:#fff;}</style></defs><path class="cls-1" d="M43.84,31.65a7,7,0,0,0-1.42-3.48,4.24,4.24,0,0,0-1-1,11,11,0,0,0-1-.68,5.46,5.46,0,0,0-1.67-.69c-.17-.05-.52-.14-.86-.2a4,4,0,0,0-.78-.07c-.27,0-.49.15-.76.18a6.62,6.62,0,0,0-2.62,1.14,4.32,4.32,0,0,0-1,.83c-.26-.26-.5-.51-.75-.74a4.18,4.18,0,0,0-1.28-.84c-.4-.15-.79-.48-1.24-.44h-.28l-.83-.1a4.82,4.82,0,0,0-2.82.61,7.74,7.74,0,0,0-1.59,1,4.34,4.34,0,0,0-1.18,1.43s0,0,0,0a6.27,6.27,0,0,0-.67,1.77,5,5,0,0,1,2,.44c0-.12.07-.24.09-.34a4,4,0,0,1,.54-1.25,4.27,4.27,0,0,1,1-1,3,3,0,0,1,1.36-.52l1.17-.13.29,0c.23.05.43.19.65.24a4,4,0,0,1,1.41.55c.32.23.87.65.89.8a1.08,1.08,0,0,0,.12.32,8.13,8.13,0,0,1-.55,1.42c-.19.2.17.41.52.52a6.23,6.23,0,0,1,.82.33s.46.24.58-.2c.06-.23.23-.72.41-1.2L33.6,30l.06-.16s0,0,0-.06a1.1,1.1,0,0,1,.24-.31c.13-.11.34-.4.63-.7a3.77,3.77,0,0,1,1-.75c.56-.27.77-.18,1.33-.47a1.78,1.78,0,0,1,.74-.11,2.87,2.87,0,0,1,.75.14,4.86,4.86,0,0,1,.63.25,5.93,5.93,0,0,1,1.08.67,4.31,4.31,0,0,1,1,1,5.68,5.68,0,0,1,.65,1.84,3.64,3.64,0,0,1,.05,2.12,6.89,6.89,0,0,1-.4.92c-.17.37-.39.75-.51,1.06a10.39,10.39,0,0,1-1.89,3,7.47,7.47,0,0,1-1.43,1.2,10.9,10.9,0,0,0-1.26,1l-.29.25c-.27.15-.59.25-.85.42-.56.38-1.11.88-1.69,1.21-.26.15-.59.39-.87.57a5.43,5.43,0,0,1-.51-.29,3.67,3.67,0,0,1-.82-.64c-.22-.27-1.24-.94-1.85-1.44h0a5.42,5.42,0,0,1,.07,2.59c.48.39,1,.75,1.18.9a5.9,5.9,0,0,0,.94.56c.17.36.36.65.53.71s.64-.14.89-.34c.85-.66,1.66-.87,2.53-1.49.33-.24.8-.33,1.06-.67a1,1,0,0,1,.19-.18,4.49,4.49,0,0,1,.67-.46,10.43,10.43,0,0,0,1.27-.94,9.8,9.8,0,0,0,.91-.89c.12-.13.76-.71,1.33-1.36a7.45,7.45,0,0,0,1.11-1.51v0a12.43,12.43,0,0,0,1-2c.28-.73.45-1.41.56-1.72A5.27,5.27,0,0,0,43.84,31.65Z"/><path class="cls-1" d="M38.65,31.13c.43-.33.94-.69,1.09-.63a2.22,2.22,0,0,1,.43.74c.16.37.25.76.29.83a2.37,2.37,0,0,1,.18.57,2.17,2.17,0,0,1,0,.75,1.24,1.24,0,0,0,0,.25,2.46,2.46,0,0,1-.47.1,5.89,5.89,0,0,1-.84,0h-.11l-.3-.07h-.1a1.17,1.17,0,0,0-.2-.06,2.29,2.29,0,0,0,.08-.28,1.25,1.25,0,0,0,0-.59c0-.08-.13-.33-.24-.56a2.79,2.79,0,0,1-.24-.52C38.21,31.45,38.21,31.45,38.65,31.13Z"/><path class="cls-1" d="M37.72,28.79a.95.95,0,1,1-.92,1A.94.94,0,0,1,37.72,28.79Z"/><path class="cls-1" d="M40.24,22.78c1,0,1.84.61,2.48-.43,0,0,1.1-3.87.75-5.45-.43-2,.36-3.93.19-5.9-.12-1.32,0-3.7-.51-4.91A7.22,7.22,0,0,0,40.25,3c-3.33-2.44-6.6.91-7.9,3.61-.18.35-.32.9,0,1.15,1.38,1,2.69.08,3.58-.71.7-.61.65-1.29,1.79-1.23A1.67,1.67,0,0,1,39.3,8c-.23,1.5.47,2.62.07,4.2-.63,2.54.27,3.2,0,5.8C39.3,18.92,38.48,22.83,40.24,22.78Z"/><path class="cls-1" d="M32.71,23.7c1.86.09,2.6-.26,2.65-2.35,0-2.33.32-4,.28-6.36,0-1.26.11-2.5.15-3.76,0-.89-.56-3.08-.29-3.78,0,0,0,0,0,0a4,4,0,0,0-1.07-2,7,7,0,0,0-1.81-1.37,4.18,4.18,0,0,0-1.45-.59A5.2,5.2,0,0,0,25.54,6.1c-.26.51-.45,1-.73,1.62-.18.34-.31.89.05,1.13s1.33,2.05,2.38,2c.21,0,0,.21,0,0,.08-3.41,1.11-3.26,1.87-3.65a3.12,3.12,0,0,1,2.33.24A1.59,1.59,0,0,1,31.77,9a6,6,0,0,0,.41,2.09,4.1,4.1,0,0,1-.34,2.08,9.83,9.83,0,0,0,0,2.1c-.08,1.74.17,1.44,0,3.15s.42,3-.19,4.89C31.56,23.57,32,23.67,32.71,23.7Z"/><path class="cls-1" d="M25.18,22.34c2.95-.13,2.65,0,2.31-4.55-.3-4,2.24-7.55-1.64-10.32a3.94,3.94,0,0,0-2.77-.76,9.08,9.08,0,0,0-2.32.43,5.89,5.89,0,0,0-2.43,1.61h0a3.62,3.62,0,0,0-1.34,2.62c.15,1.28-.42,1.87-.41,3.14a18.09,18.09,0,0,1,.06,3.6c-.08.29-.15.7.21.88s1.73,2.22,2.78,2.12c.81-.08.39-2,.27-2.12A12.42,12.42,0,0,1,20,17.4c-.05-1.55-.63-5.92,1.8-6.41,1.11-.23,2.63-.71,2.5,1.4l0,.84c-.11,2.72.66,6.1-.1,8.73C24,22.39,25.15,22.35,25.18,22.34Z"/><path class="cls-1" d="M51.42,35.1a19.27,19.27,0,0,1-.07-4.3A51,51,0,0,0,51,19.49c-.43-3.75.77-8.38-3.82-9.94a4.58,4.58,0,0,0-3.09-.09,7.32,7.32,0,0,0-2.7,1.65c-2,2.14-1.8,4.93,1.83,3.68-.27-1.11,1.21-1.49,2.1-1.11a3.17,3.17,0,0,1,1.54,2.4,29.39,29.39,0,0,1,0,3.51c-.06,2,.34,3.93.2,5.94s-.55,4.21-.66,6.15a13.31,13.31,0,0,0,.17,3.45,16.34,16.34,0,0,1,.12,2.93c0,.63,0,1.3,0,1.93s-.1,1.06-.13,1.5l0,0c-.14.19-.25,1.38-.58,2.55a8.9,8.9,0,0,1-1,2.47c-.17.19-.58.81-1.11,1.43s-1.11,1.28-1.47,1.71c-1.3,1.56-4.76,3.34-6.82,3.26-.47,0-1.08-.14-1.36.4a9.06,9.06,0,0,0-.11,3.82c.16,1.12,1.89.66,2.17.39a6.13,6.13,0,0,1,1.37-.21,9.64,9.64,0,0,0,2-.44,19.9,19.9,0,0,0,4.11-1.69A11.45,11.45,0,0,0,45,53.78a11.72,11.72,0,0,0,3-3.07c.72-1.24,1.18-2.39,1.8-3.65.25-.58.5-1.19.73-1.8s.42-1.26.56-1.91a19.16,19.16,0,0,0,.37-2c.08-.67.15-1.36.19-1.89A25.57,25.57,0,0,0,51.42,35.1Z"/><path class="cls-1" d="M32.11,56.63a17,17,0,0,1,0-2c.06-.84-.06-1.81-.54-1.59s-2.67-.42-3.31-.49a3.67,3.67,0,0,1-.78-.19,8.91,8.91,0,0,1-1.17-.42A13.26,13.26,0,0,1,25,51.32c-.43-.19-.83-.38-1.17-.55-1.42-.61-2.34-2-3.44-3-.33-.29-.36-.76-.6-1.1-.09-.14-.49-.48-.84-.9a10.62,10.62,0,0,1-.87-1.13A24,24,0,0,1,16,40.12c-.11-.8-.43-1.47-.62-2.3-.49-2.2-.48-4.55-.82-6.82a18.26,18.26,0,0,0-.95-4c-.05-.15-.11-.34-.17-.57s-.05-.09-.07-.14,0-.1,0-.16.08-.07.13-.1A.49.49,0,0,1,13.6,26s.3-.07.45-.07a1.43,1.43,0,0,1,.81.18v.05c0,.09.21.17.5.44a6.22,6.22,0,0,1,1,1.3,11.06,11.06,0,0,1,1.3,3l0,.25.15.67c.14.63.27,1.5.46,2.51l1.73.31c1.38.25,4.1.69,5.13,1.7a.79.79,0,0,1,.19.34c.14.63.87.93,1.14,1.58.62,1.61,1.54,3,1.37,5-.05.59-.14,1.37.36,1.71a4.06,4.06,0,0,0,1.54.31,9.71,9.71,0,0,0,2.29.19c1.15-.2.63-2.17.4-2.51a36.81,36.81,0,0,0-.66-3.86c-1.16-3.53-4-5.6-6.8-7.88a6.87,6.87,0,0,0-2.11-1l-.28-.09-.08,0-.06,0-.18.05a.15.15,0,0,1-.12,0l-.06,0L22,29.54l-.82-2.12a12.82,12.82,0,0,0-2.58-4.24,6.69,6.69,0,0,0-2.65-1.67,6.39,6.39,0,0,0-3.29-.17,4.14,4.14,0,0,0-1.12.37,7.39,7.39,0,0,0-1.21.64c-.38.26-.76.52-1.13.8l-.55.41-.26.2a1.4,1.4,0,0,0,.05.34c.08.44.16.88.24,1.3s.23.82.33,1.19l.14.51c.05.19.07.2.1.31l.15.41A21.63,21.63,0,0,1,10,33a51.78,51.78,0,0,0,1,5.11l.17.93c.06.32.16.66.24,1A18.08,18.08,0,0,0,12,42a19.54,19.54,0,0,0,1.46,3.28l1,1.63c.33.43.79,1.1,1.25,1.76a17.15,17.15,0,0,1,1.19,1.77,4.9,4.9,0,0,0,1.26,1.63c.46.38.92.74,1.64,1.28a17.32,17.32,0,0,0,1.39,1.06,11.87,11.87,0,0,0,1.59,1l.78.44.73.3a3.91,3.91,0,0,0,1.06.33c.49,0,1.63.42,2.84.67s2.44.45,3,.51C32.25,57.84,32.11,56.63,32.11,56.63Z"/></svg>