<svg id="Pieces" xmlns="http://www.w3.org/2000/svg" viewBox="0 0 60 60"><defs><style>.cls-1{fill:#792f6c;}</style></defs><path class="cls-1" d="M2.86,31.7A21.14,21.14,0,0,1,5,32.6c.86.44,1.92.75,1.88.16s1.3-2.68,1.46-3.4,1.42-3.26,1.81-4.88a12.89,12.89,0,0,1,1.18-2.76A14.39,14.39,0,0,0,12.65,19c0-.11.07-.22.12-.21h.1c.91,0,1.83-.05,2.74-.1a14.81,14.81,0,0,1,2.06-.06,13.25,13.25,0,0,0,2.44,0c2.15-.07,4.34.44,6.53.55a15,15,0,0,0,3.9-.22c3.63-.77,7.35.16,11,.06l2.29-.06h.51s0,0,0,0c.56.86.7,1.93,1.23,2.82a6.15,6.15,0,0,1,.65,1.45,2.13,2.13,0,0,1,.09.52c0,.87.77,1.48,1,2.25.68,2,1.89,3.21,2.31,5.3.12.62.32,1.45,1,1.58s2.63-.69,4.08-1.54c1.12-.65,0-2-.28-2.2A29.89,29.89,0,0,1,53.29,26c-.59-1.25-.86-2.77-1.42-4.07a18.53,18.53,0,0,0-1.07-1.65l-.22-.77a17.53,17.53,0,0,0-1.22-2.94A4.77,4.77,0,0,0,49,16a5.65,5.65,0,0,0-4.73-2.06h-1c-2.52-.08-5.2-.3-7.76-.5a24.3,24.3,0,0,0-4.91.62,16.55,16.55,0,0,1-4.9-.39,40.38,40.38,0,0,0-4.92,0l-3.55-.06c-1.05,0-2.09.06-3.13.15l-2,.18a5.16,5.16,0,0,0-2.88,1.48,5.62,5.62,0,0,0-1,1.45C7.81,17.45,7.27,18,7,18.63s-.51,1.53-.82,2.27c-.7,1.64-2.06,4.13-2.12,5a20.19,20.19,0,0,1-2,4.61C1.55,31.27,2.86,31.7,2.86,31.7Z"/><path class="cls-1" d="M54.27,35.57a21.14,21.14,0,0,1-2.15-.9c-.86-.44-1.92-.75-1.88-.15s-1.3,2.67-1.46,3.39S47.36,41.17,47,42.79A15.2,15.2,0,0,1,45.65,46c-.28.54-1.19,1.76-1.17,2.24s-4.54.44-5,.37a13.37,13.37,0,0,0-2.45,0c-2.14.07-4.33-.44-6.52-.54a14.61,14.61,0,0,0-3.9.21c-3.57.76-7.39-.15-11-.06l-2.3.06c-.93,0-1.38-2.17-1.77-2.83A6.36,6.36,0,0,1,10.86,44a2.06,2.06,0,0,1-.09-.52c0-.87-.77-1.48-1-2.25-.68-2-1.89-3.21-2.31-5.3-.12-.62-.32-1.45-1-1.57s-2.62.68-4.07,1.53c-1.12.65,0,2,.28,2.21s.73,2.07,1.21,3.09c.59,1.25.86,2.77,1.41,4.07A18,18,0,0,0,6.33,47l.22.77a11.29,11.29,0,0,0,.56,1.6,10.41,10.41,0,0,0,1.07,2,5.16,5.16,0,0,0,3,1.94,31.9,31.9,0,0,0,5,.21c1.83.11,3.66.26,5.49.4a24.3,24.3,0,0,0,4.91-.62,16.55,16.55,0,0,1,4.9.39,40.38,40.38,0,0,0,4.92,0l3.55.05c1,0,2.09-.06,3.13-.15l2-.18A5.14,5.14,0,0,0,48,51.87a5.67,5.67,0,0,0,1-1.46c.33-.66.86-1.18,1.19-1.84s.48-1.48.78-2.2c.7-1.63,2.06-4.13,2.12-5a19.93,19.93,0,0,1,2-4.6C55.58,36,54.27,35.57,54.27,35.57Z"/><path class="cls-1" d="M34.93,11.79a4,4,0,0,0,1,0,.89.89,0,0,0,.85-1.16,9.28,9.28,0,0,0-.72-2.08,8.4,8.4,0,0,0-5-4.25A9.36,9.36,0,0,0,29,3.92a7.09,7.09,0,0,0-2.22.13,7.94,7.94,0,0,0-5.31,4,6.35,6.35,0,0,0-.66,1.9,2.86,2.86,0,0,0,.05,1.53c.12.23.35.26.8.3.89.09,1.93,0,2.09-.44A6,6,0,0,1,25,8.55a4.73,4.73,0,0,1,1.63-1.2A3.29,3.29,0,0,1,27.79,7a5.59,5.59,0,0,1,2.14.22,6.51,6.51,0,0,1,1.3.63,7,7,0,0,1,.95.77,2.55,2.55,0,0,1,.88,1.62,4.27,4.27,0,0,1,.24,1.28A4.53,4.53,0,0,0,34.93,11.79Z"/><path class="cls-1" d="M36.2,29.18s2.14.09,2-.26a10.39,10.39,0,0,1-.43-2.53,11.71,11.71,0,0,0,.08-2.56c-.17-.4-.17-.4-1.07-.42a5.13,5.13,0,0,0-2.07.17c-.15.19.07,2.19,0,2.42a5.3,5.3,0,0,0-.05,1.86.84.84,0,0,1-.06.72v.51A10.07,10.07,0,0,0,36.2,29.18Z"/><path class="cls-1" d="M29.26,29.18s2.14.09,2-.26a9.93,9.93,0,0,1-.43-2.53,12.34,12.34,0,0,0,.07-2.56c-.17-.4-.17-.4-1.07-.42a5.16,5.16,0,0,0-2.07.17c-.14.19.07,2.19,0,2.42a5.82,5.82,0,0,0-.05,1.86.84.84,0,0,1-.06.72v.51A10.14,10.14,0,0,0,29.26,29.18Z"/><path class="cls-1" d="M22.32,29.18s2.14.09,2-.26a10.39,10.39,0,0,1-.43-2.53A11.69,11.69,0,0,0,24,23.83c-.17-.4-.17-.4-1.07-.42a5.16,5.16,0,0,0-2.07.17c-.14.19.07,2.19,0,2.42a5.82,5.82,0,0,0-.05,1.86.84.84,0,0,1-.06.72v.51A10.21,10.21,0,0,0,22.32,29.18Z"/><path class="cls-1" d="M36.2,45.18s2.14.09,2-.26a10.39,10.39,0,0,1-.43-2.53,11.71,11.71,0,0,0,.08-2.56c-.17-.4-.17-.4-1.07-.42a5.13,5.13,0,0,0-2.07.17c-.15.19.07,2.19,0,2.42a5.3,5.3,0,0,0-.05,1.86.84.84,0,0,1-.06.72v.51A10.07,10.07,0,0,0,36.2,45.18Z"/><path class="cls-1" d="M29.26,45.18s2.14.09,2-.26a9.93,9.93,0,0,1-.43-2.53,12.34,12.34,0,0,0,.07-2.56c-.17-.4-.17-.4-1.07-.42a5.16,5.16,0,0,0-2.07.17c-.14.19.07,2.19,0,2.42a5.82,5.82,0,0,0-.05,1.86.84.84,0,0,1-.06.72v.51A10.14,10.14,0,0,0,29.26,45.18Z"/><path class="cls-1" d="M22.32,45.18s2.14.09,2-.26a10.39,10.39,0,0,1-.43-2.53A11.69,11.69,0,0,0,24,39.83c-.17-.4-.17-.4-1.07-.42a5.16,5.16,0,0,0-2.07.17c-.14.19.07,2.19,0,2.42a5.82,5.82,0,0,0-.05,1.86.84.84,0,0,1-.06.72v.51A10.21,10.21,0,0,0,22.32,45.18Z"/><path class="cls-1" d="M48.68,33.59s.63-1.91-1.73-1.78-14.81.45-17.34.38S14,32,12.12,32.13c-2.75.15-2.75.15-2.9.95s-.09,1.72,1.17,1.84,15-.06,16.55,0,9.29.16,12.76,0a39.1,39.1,0,0,1,4.88.05h3.47C48.61,34.78,48.68,33.91,48.68,33.59Z"/></svg>