<svg id="Pieces" xmlns="http://www.w3.org/2000/svg" viewBox="0 0 24 24"><defs><style>.cls-1{fill:#fff;}</style></defs><path class="cls-1" d="M11,7.2A14.94,14.94,0,0,0,9.1,8.57c-.38.48-2.91,2.86-3.79,3.93-.41.5-1.27.87-1.94,1.75s-1.6,1-.69,2L4,17.79c.87,1.59,1.66.24,1.66.24a26.84,26.84,0,0,1,2.47-2.67,30.8,30.8,0,0,0,3.35-3c.23-.4,1.52-1.53,1.44-2a4.69,4.69,0,0,0-.28-.95,5.37,5.37,0,0,0-1.39-2C11.14,7.26,11.05,7.2,11,7.2Z"/><path class="cls-1" d="M10,7.94a1,1,0,0,1,.29-.33c.48-.36,1.91-2.28,2.52-1.36.22.33.78,1,1.36,1.71.16.18.28.29.28.29a2,2,0,0,1,.23.29,5.41,5.41,0,0,0,.89.83c.59.35.84.87,1.82,2s3,3,3,3,2,1.22,1.17,2l-2.1,1.87c-1,.9-1.14,0-2-.69s-.86-1-1.36-1.45a20.82,20.82,0,0,1-2.71-2.84c-.82-1-1.72-1.91-2.45-3a6.67,6.67,0,0,1-.7-1.18C10,8.63,9.86,8.28,10,7.94Z"/></svg>