<svg id="Pieces" xmlns="http://www.w3.org/2000/svg" viewBox="0 0 60 60"><defs><style>.cls-1{fill:#fff;}</style></defs><path class="cls-1" d="M2.66,21.61a6.83,6.83,0,0,1,.81-.08A7.77,7.77,0,0,1,5,21.59a4.6,4.6,0,0,0,1.36-.05c.37-.08.58-.16.54-.51a1.55,1.55,0,0,1,.31-.84,1.82,1.82,0,0,1,.37-.4c.07-.05.08-.05.09-.05h.11l.63,0,1.31,0c.82,0,1.52,0,2,0s1.67-.06,3-.07l6.72,0,1-4.77.11-.62.09-.47c0-.15,0-.26,0-.4s0-.17,0-.27a.55.55,0,0,1,.44-.45h1l1.49,0c2,.06,4,.13,6,0,1.12-.05,2.12.27,3.19.27l.49,0,.65,0a.42.42,0,0,1,.3,0,.59.59,0,0,1,.31.25.32.32,0,0,1,0,.09s0,0,0,0l0,.13,0,.27.19.85c.34,1.52.69,3.16,1.06,4.84l5.09,0,2.86-.07c1.74,0,3.11-.06,3.65,0s1,.05,1.47.06h.6a1,1,0,0,1,.25,0,1.28,1.28,0,0,1,.85.59,1.33,1.33,0,0,1,.13.33l0,.17a2.44,2.44,0,0,0,0,.29l0,2-.17,3.94c-.13,2.64-.28,5.3-.34,7.95a87.63,87.63,0,0,0,.22,9.45l0,.61c0,.21,0,1.44,0,1.68a.94.94,0,0,1-.11.55,1.14,1.14,0,0,1-.52.47,1.18,1.18,0,0,1-.37.09H50.32l-10-.11-.14,0c-1.32-.23-15.63.12-17.28,0s-9.7-.27-13.32-.08l-1.24,0-.55,0H7.53a.75.75,0,0,1-.37-.17A.4.4,0,0,1,7,46.88a2.17,2.17,0,0,0,0-.32.5.5,0,0,0,0-.13v-.15l0-1.38c-.07-1-.18-2-.15-3,.16-5.1-.48-9,0-14,.13-1.49.27-2.54-.3-3.46S3.72,23.45,2,24c-1.28.39-.78,3.41-.6,4.19s-.15,5.31-.1,8c0,1.68-.05,3.43-.13,5.18,0,.88-.07,1.76-.11,2.64,0,.43,0,1.87,0,2.3a6.74,6.74,0,0,0,.37,2.27A6.1,6.1,0,0,0,4.1,51.75,6.76,6.76,0,0,0,6,52.49a8.89,8.89,0,0,0,1,.13h.83l1.93.1a71.66,71.66,0,0,0,8.16,0c3.34-.19,6.3-.32,9.65-.28,6.11.08,12.6.3,18.81.5.92,0,2,0,3.1,0l1.7-.08.65,0a6,6,0,0,0,.74-.12,6.26,6.26,0,0,0,4.61-4.58,6.52,6.52,0,0,0,.15-1.12v-.52l0-.31c0-.38,0-1.72-.07-2a96,96,0,0,1,.39-11.87c.1-2,.1-4,.06-6l-.11-6.2a6.37,6.37,0,0,0-4.42-5.48,6.84,6.84,0,0,0-1.84-.28H48.14l-3.79,0-1.9.05c-.44,0-.29,0-.38,0l-.13,0-.13,0-.1-.2a.84.84,0,0,1-.07-.17l-.21-.79,0-.18s0,0,0-.07l0-.17-.07-.42a5.55,5.55,0,0,0-4-4.31,7,7,0,0,0-1.87-.22l-1.19,0c-.77,0-1.46-.08-2-.15-3.61-.47-4.82-.09-8.49-.09h-.52a6.52,6.52,0,0,0-.95.08,5.79,5.79,0,0,0-4.85,5,1.38,1.38,0,0,1-.05.34l-.23,1-.07.19a.68.68,0,0,0-.21,0c-.61,0-1.17.05-1.51.1a57.24,57.24,0,0,1-6,.15H7.7l-.42,0a5.18,5.18,0,0,0-2.91,1.14,8.27,8.27,0,0,0-2.33,3c-.66,1.48-.35,2.37,0,2.68A.68.68,0,0,0,2.66,21.61Z"/><path class="cls-1" d="M22.54,29s-1.13-.78-1.85-1.41S19,26.39,18.89,27A11.09,11.09,0,0,1,18,28.72a6.06,6.06,0,0,0-.79,1.94c-.05.4-.29.34-.36,1.43a8.52,8.52,0,0,0,.35,3.15c.57,1.62.87,3.45,2.06,4.8.33.37.35.92.69,1.27A15,15,0,0,0,22.43,43a10.36,10.36,0,0,0,3,1.33c1,.24,1.86.31,2.14.38a6.63,6.63,0,0,0,2.55,0,25.63,25.63,0,0,0,3.38-.62,10.25,10.25,0,0,0,3.21-1.51,7.33,7.33,0,0,0,2.62-3.31A23.15,23.15,0,0,0,40.6,36,13.08,13.08,0,0,0,41,31.61s0,0,0-.07a8.48,8.48,0,0,0-1-3.65,16.21,16.21,0,0,0-2.21-3.2,9,9,0,0,0-1.91-1.85,8.66,8.66,0,0,0-3-1.41c-.88-.18-1.7-.62-2.59-.75a14.84,14.84,0,0,0-2.31.11,7.42,7.42,0,0,0-3,.77c-.91.41-1.75.88-2.82,1.32-.62.26-1.44.77-1.34,1.47s1.63,2.15,2.9,3.25c1,.82,1.35-.13,1.45-.4s1.24-.56,1.88-.76c2.32-.85,6.56.54,7.87,2.68a6.31,6.31,0,0,1,.62,4.61,11.52,11.52,0,0,0-.16,1.59,7.07,7.07,0,0,1-.23,1.42,3.52,3.52,0,0,1-2.37,1.93A13.1,13.1,0,0,1,30,39.76a6.68,6.68,0,0,1-2.14-.07c-1.27-.23-4.23-.77-4.47-2.44-.11-.8-.71-1.3-1-2-.58-1.56-.56-3.87.79-5C23.66,29.8,22.54,29,22.54,29Z"/><path class="cls-1" d="M44.51,23.3c0,.39,0,.77,0,1.16.09,1.48,1.45.2,2.41.41a8.73,8.73,0,0,0,2.21.07c.34-.17.34-.17.36-1.07a5.73,5.73,0,0,0-.15-2.07,20.81,20.81,0,0,0-2.09,0,5.24,5.24,0,0,0-2.09-.13c-.52,0-.46-.05-.62.42A4.89,4.89,0,0,0,44.51,23.3Z"/><path class="cls-1" d="M25.53,16.3a6.42,6.42,0,0,0,0,1.16c.15,1.48,2.45.2,4.08.41a25,25,0,0,0,3.75.07c.59-.17.59-.17.63-1.07s0-1.93-.25-2.07-3.21.07-3.55,0a15,15,0,0,0-3.55-.13c-.89.05-.79-.05-1.06.42S25.55,15.94,25.53,16.3Z"/></svg>