<svg id="Pieces" xmlns="http://www.w3.org/2000/svg" viewBox="0 0 40 40"><defs><style>.cls-1{fill:#792f6c;}</style></defs><path class="cls-1" d="M37.57,32.35v3.83s.12.46-1,.51-15.85-.31-19.33,0-12.76.12-14.31,0S2,32.61,2,32.61s-.26-.37,2.06-.26,11.22.12,13.15,0,7.22-.66,10.44-.55,8.51,0,8.51,0S37.57,31.57,37.57,32.35Z"/><path class="cls-1" d="M38.08,20.34h0s.57-3-1.59-2.84-13.57.71-15.88.61-14.3-.26-16-.1c-2.52.24-2.52.24-2.67,1.52S1.83,22.27,3,22.47s13.72-.1,15.16,0,8.52.25,11.7.07a21.17,21.17,0,0,1,4.47.08H37.5C38,22.25,38.08,20.86,38.08,20.34Z"/><path class="cls-1" d="M37.46,8c.82-.51.84-2.38.4-3.86C37.51,3,34,3.44,33.3,3.6s-4.66-.13-7.06-.09-2.63-.21-5.14,0a68.48,68.48,0,0,1-9.82,0c-2.24-.14-4.67.3-6.86-.05-1.26-.19-2.29.29-2.29,1s-.49,2.36-.15,3S3,8.11,4.15,8c5.26-.37,11.83.12,17.1.28,4.48.15,7.86-.42,12.3,0C34.86,8.39,36.65,8.51,37.46,8Z"/></svg>