<svg id="Pieces" xmlns="http://www.w3.org/2000/svg" viewBox="0 0 24 24"><defs><style>.cls-1{fill:#fff;}</style></defs><path class="cls-1" d="M7,13.37a17,17,0,0,0,1.37,1.87c.48.37,2.86,2.9,3.93,3.78.5.41.87,1.27,1.76,1.94s1,1.6,2,.69l1.51-1.34c1.6-.87.24-1.66.24-1.66a26,26,0,0,1-2.66-2.47,30.7,30.7,0,0,0-3-3.35c-.39-.23-1.53-1.52-2-1.44a4.51,4.51,0,0,0-.95.28,5,5,0,0,0-1.4.8,5.76,5.76,0,0,0-.62.59C7,13.19,7,13.28,7,13.37Z"/><path class="cls-1" d="M7.7,14.3A1,1,0,0,1,7.37,14C7,13.53,5.09,12.1,6,11.49a21.8,21.8,0,0,0,1.72-1.36L8,9.85a2.22,2.22,0,0,1,.28-.23,5,5,0,0,0,.83-.89c.35-.59.88-.84,2-1.82s3-3,3-3,1.23-2,1.95-1.17L18,4.84c.91,1,0,1.14-.68,2s-1.05.86-1.46,1.36A21.34,21.34,0,0,1,13,10.94c-1,.82-1.92,1.72-3,2.45a7.14,7.14,0,0,1-1.19.7C8.4,14.29,8,14.47,7.7,14.3Z"/></svg>