<svg id="Pieces" xmlns="http://www.w3.org/2000/svg" viewBox="0 0 35 35"><defs><style>.cls-1{fill:#fff;}</style></defs><path class="cls-1" d="M11.8,20.44h0L13.56,10a2.8,2.8,0,0,1,2.77-2.35H25a7,7,0,0,1,3,.67l.7.34c0-.14,0-.29,0-.43a7.09,7.09,0,0,0-7.09-7.09H9.71A1.53,1.53,0,0,0,8.2,2.39l-4.36,26a1.52,1.52,0,0,0,1.5,1.78H9.68a1.43,1.43,0,0,0,.5-.09l1.62-9.59Z"/><path class="cls-1" d="M31.13,15.66a8.44,8.44,0,0,0,.05-1,6.16,6.16,0,0,0-1.91-4.47,12,12,0,0,1-11.78,10H13.18c-.38,0-.6.44-.6.44l-2,11.71a1.34,1.34,0,0,0,1.33,1.56h3.79a1.34,1.34,0,0,0,1.33-1.12l1.07-6.4a2.17,2.17,0,0,1,.28-.76,1.9,1.9,0,0,1,.22-.33,2.29,2.29,0,0,1,1.76-.82h1A9.78,9.78,0,0,0,30,19.32a9.67,9.67,0,0,0,.74-1.75A9.52,9.52,0,0,0,31.13,15.66Z"/></svg>