<svg id="Pieces" xmlns="http://www.w3.org/2000/svg" viewBox="0 0 60 60"><defs><style>.cls-1{fill:#792f6c;}</style></defs><path class="cls-1" d="M51.2,35.59l.61.53c.6.52,1.34,1.83,2.22,1.83.47,0,1.11-.4,1.36-1.42a7.13,7.13,0,0,0,.26-2.63A5.73,5.73,0,0,0,55.13,32a4.74,4.74,0,0,0-.54-.91,3.39,3.39,0,0,0-.33-.42L54,30.39c-1-1.11-2.1-2.27-2.65-2.73-1.11-.92-4.94-5-7.44-7.1S39.43,15.84,37,13.68c-.68-.61-1-1.41-1.65-2S32.07,8.83,31.21,8L29.74,6.51A5.33,5.33,0,0,0,26.29,5l-6.22-.26a12.71,12.71,0,0,0-5.57,1A18,18,0,0,0,8.22,9.85a14.52,14.52,0,0,0-3.8,6.73A14.35,14.35,0,0,0,4,21.23c.11,1.28.27,2.56.49,3.83.06.37.12.81.19,1.46a5.55,5.55,0,0,0,1.61,3.41c2.38,2.32,5.66,5.73,7.85,8a.61.61,0,0,0,.05.12c.59.92,9.09,8.93,10,10,.43.52,1.79,2,3.31,3.53.76.78,1.56,1.59,2.31,2.33l.28.27.14.13.26.24a5.47,5.47,0,0,0,1.16.8,5.4,5.4,0,0,0,2.34.58,5.83,5.83,0,0,0,3.37-1,6.53,6.53,0,0,0,.57-.43l.42-.37.42-.39a7.69,7.69,0,0,1,.8-.63c1.37-.86,2.24-2.42,3.42-3.51,3-2.83,4.82-5.51,8-8.12,1-.77,1.23-.84,1.35-1.79s-1.34-2.44-2.82-3.33c-1.13-.69-2.09,1-2.41,1.56s-3.17,3-4.72,4.57c-1.9,2-4.24,3.82-6.21,5.8A16,16,0,0,0,35,49.75l-.3.38c-.09.12-.23.29-.19.26a.15.15,0,0,1,0,.12.2.2,0,0,1-.16-.07.46.46,0,0,1-.08-.13l-.07-.08-.3-.3-.59-.61c-.81-.79-1.64-1.56-2.44-2.26-2.07-1.8-3.86-3.41-5.77-5.37-3.47-3.58-7.06-7.48-10.5-11.2A33.16,33.16,0,0,0,12,28.1c-.54-.49-1.19-.84-1.73-1.33a2.75,2.75,0,0,1-.86-2c-.13-.8-.2-1.61-.25-2.41a15.69,15.69,0,0,1,0-2.27,10.82,10.82,0,0,1,1.07-3.75,11.78,11.78,0,0,1,5.14-5.57,10.66,10.66,0,0,1,5.47-1c1,.07,2,.12,3,.16s2-.25,2.85.54l1.22,1.11A46,46,0,0,1,33,16.82c1.76,2.42,2.72,2.84,4.84,5,2.49,2.49,6.25,6.64,7.55,7.55A37.57,37.57,0,0,1,49,32.66L50,33.75c.36.38.29.55.48,1S51,35.28,51.2,35.59Z"/><path class="cls-1" d="M39.33,34.88s1.11-.7.27-1.41-5.1-4.68-5.9-5.54S28.63,22.7,28,22.13c-1-.84-1-.84-1.41-.51s-.85.79-.49,1.27,5,4.91,5.45,5.46,3,3.14,4.19,4.23a12.67,12.67,0,0,1,1.59,1.63l1.14,1.15C38.73,35.43,39.17,35,39.33,34.88Z"/><path class="cls-1" d="M21.91,26.27s-1.11.7-.27,1.42,5.1,4.67,5.9,5.53,5.07,5.23,5.74,5.8c1,.84,1,.84,1.41.51s.85-.79.49-1.27-5-4.91-5.46-5.46-3-3.14-4.18-4.23A12.67,12.67,0,0,1,24,26.94L22.8,25.79C22.51,25.72,22.07,26.11,21.91,26.27Z"/><path class="cls-1" d="M14.47,15.52a2.36,2.36,0,1,0,3.24-.84A2.35,2.35,0,0,0,14.47,15.52Z"/></svg>