<svg id="Pieces" xmlns="http://www.w3.org/2000/svg" viewBox="0 0 35 35"><defs><style>.cls-1{fill:#792f6c;}</style></defs><path class="cls-1" d="M30.75,9.92a7.65,7.65,0,0,1-7.5-6.14,8.46,8.46,0,0,1-.15-1.43H18.16V23.23a4.46,4.46,0,0,1-3.07,4.24,4.28,4.28,0,0,1-1.66.22,4.47,4.47,0,0,1,.25-8.93,5.2,5.2,0,0,1,1.41.23V14a11.47,11.47,0,0,0-1.43-.11,9.53,9.53,0,0,0-7.11,3.18,9.35,9.35,0,0,0,.83,13.19,4.54,4.54,0,0,0,.48.39,9.4,9.4,0,0,0,5.8,2,8.6,8.6,0,0,0,1.43-.1,9.42,9.42,0,0,0,5.27-2.64,9.24,9.24,0,0,0,2.77-6.58v-11a12.43,12.43,0,0,0,7.66,2.61v-5Z"/></svg>