<svg id="Pieces" xmlns="http://www.w3.org/2000/svg" viewBox="0 0 35 35"><defs><style>.cls-1{fill:#fff;}</style></defs><g id="LinkedIn"><rect class="cls-1" x="4.73" y="13.12" width="5.24" height="16.61"/><path class="cls-1" d="M24.29,13c-3,0-4.88,1.62-5.23,2.76v-2.6H13.17c.08,1.38,0,16.6,0,16.6h5.89v-9a3.84,3.84,0,0,1,.13-1.36,3,3,0,0,1,2.84-2c2,0,3,1.54,3,3.79v8.59H31V20.49C31,15.35,28,13,24.29,13Z"/><path class="cls-1" d="M7.26,5.28A2.93,2.93,0,0,0,4.05,8.16,2.9,2.9,0,0,0,7.18,11h0a2.89,2.89,0,1,0,0-5.76Z"/></g></svg>