<svg id="Pieces" xmlns="http://www.w3.org/2000/svg" viewBox="0 0 35 35"><defs><style>.cls-1{fill:#fff;}</style></defs><path class="cls-1" d="M17.5,1.52h0A16,16,0,0,0,4.56,26.87l-2,5.93,6.14-2A16,16,0,1,0,17.5,1.52Zm9.3,22.57a4.49,4.49,0,0,1-3.13,2.25c-.84.18-1.93.32-5.6-1.2-4.7-1.95-7.72-6.72-8-7a9.2,9.2,0,0,1-1.89-4.82A5.11,5.11,0,0,1,9.85,9.4a2.34,2.34,0,0,1,1.63-.57l.54,0c.47,0,.7,0,1,.79.39.92,1.33,3.22,1.44,3.45a1,1,0,0,1,.07.87,2.64,2.64,0,0,1-.52.73c-.24.27-.46.48-.69.77s-.46.53-.19,1a14.15,14.15,0,0,0,2.59,3.22A11.71,11.71,0,0,0,19.48,22a1,1,0,0,0,1.12-.18,17.89,17.89,0,0,0,1.25-1.65A.9.9,0,0,1,23,19.81c.43.15,2.71,1.28,3.18,1.51s.78.35.9.55A4,4,0,0,1,26.8,24.09Z"/></svg>