<svg id="Pieces" xmlns="http://www.w3.org/2000/svg" viewBox="0 0 40 40"><defs><style>.cls-1{fill:#fff;}</style></defs><path class="cls-1" d="M30.16,11.56A12.43,12.43,0,0,0,27,5.94a14.09,14.09,0,0,0-3.59-3,12,12,0,0,0-3.86-1.42,6.66,6.66,0,0,0-1.09-.16c-.36,0-.72-.08-1.08-.08h-1.1c-.42,0-.86.05-1.31.07s-.88.08-1.29.11l-1.07.08c-2,.08-2.55.65-4.26,1.59-.52.27-1.06.67-1.64,1A15.05,15.05,0,0,0,5.1,5.58,7.74,7.74,0,0,0,3.28,8.07,17.08,17.08,0,0,0,2.2,10.31c-.25.79-.86,1.34-1,2C.91,13.52,6,14,6.12,13.19a7.4,7.4,0,0,0,.42-1.55,7.46,7.46,0,0,1,.93-1.79,21.71,21.71,0,0,1,1.74-2,4.38,4.38,0,0,1,.87-.73,9.78,9.78,0,0,1,1-.52,14.6,14.6,0,0,1,6-1.1,14.61,14.61,0,0,1,2.83.62c.43.14.81.33,1.12.46a6,6,0,0,1,.62.38c.3.22.58.49.91.69s.6.48.89.73a7.64,7.64,0,0,1,1.67,2.53,15.09,15.09,0,0,1,.75,2.9,33.88,33.88,0,0,1,.26,3.53,6.68,6.68,0,0,1-.77,2.93A10.72,10.72,0,0,1,20.32,25a8.63,8.63,0,0,1-3.15.94A21.34,21.34,0,0,1,15,25.84a23.1,23.1,0,0,1-2.7-.59c-3.05-1.94-5-3.94-5.7-6.71-.07-.28,0-.62-.11-.91S6.07,16,5.8,15.84a7.14,7.14,0,0,0-4.06-.62c-.53.14-.64.77-.55,1.39A19.55,19.55,0,0,0,3,22.69a6.13,6.13,0,0,0,.61,1.09,15.89,15.89,0,0,0,3.76,4.27c.18.12.37.23.56.34s.4.17.6.25c.41.17.81.32,1.22.45s.61.36.93.5a9.31,9.31,0,0,0,4.34.93,20.55,20.55,0,0,0,5.13-.79,15.61,15.61,0,0,0,8.31-5.65,9.42,9.42,0,0,0,1.44-3.27,13.29,13.29,0,0,0,.38-2.9A26.51,26.51,0,0,0,30.16,11.56Z"/><path class="cls-1" d="M26.35,28.85,29,26.28a.44.44,0,0,1,.66,0c.38.31,4.5,5,5.74,5.84a20.14,20.14,0,0,1,3.45,3.52c.38.54-2.53,3-2.53,3s-.17.32-.79-.45A28.26,28.26,0,0,0,32.38,35a22,22,0,0,1-3.48-2.79c-.88-1-2.53-2.56-2.53-2.56S25.82,29.37,26.35,28.85Z"/></svg>