<svg id="Pieces" xmlns="http://www.w3.org/2000/svg" viewBox="0 0 35 35"><defs><style>.cls-1{fill:#fff;}</style></defs><path class="cls-1" d="M28.92,15.48a5.39,5.39,0,0,0-1.07.11,9.16,9.16,0,0,0-9.1-8.25,1,1,0,0,0-1,1V24.63a1,1,0,0,0,1,1H28.92a5.09,5.09,0,0,0,0-10.17Zm0,0"/><path class="cls-1" d="M13.66,10.39V24.63a1,1,0,1,0,2,0V10.39a1,1,0,0,0-2,0Zm0,0"/><path class="cls-1" d="M9.59,14.46V24.63a1,1,0,1,0,2,0V14.46a1,1,0,0,0-2,0Zm0,0"/><path class="cls-1" d="M5.52,24.63a1,1,0,1,0,2,0V14.46a1,1,0,0,0-2,0Zm0,0"/><path class="cls-1" d="M2.47,25.65a1,1,0,0,0,1-1v-6.1a1,1,0,1,0-2,0v6.1a1,1,0,0,0,1,1Zm0,0"/></svg>