<svg id="Pieces" xmlns="http://www.w3.org/2000/svg" viewBox="0 0 60 60"><defs><style>.cls-1{fill:#fff;}</style></defs><path class="cls-1" d="M55.49,15a3.19,3.19,0,0,0-1-2.07,4.05,4.05,0,0,0-2.3-1c-1.07-.06-2.15,0-3.06,0H47.43l-.72,0a61,61,0,0,0-8.2-.09,12.82,12.82,0,0,1-2.38,0,3.13,3.13,0,0,1-.76-.14c-1.19-.4-2.49.15-3.7.08-3.14-.18-5.51.54-8.63.05-.92-.14-2.18-.3-2.75.35s-.59,3-.27,4.9c.24,1.44,2.71.88,3.19.67s3.27.17,5,.12c2.06-.06,4.3.33,6.41.33,1,0,1.93-.31,2.9-.39l1.19.11a24.07,24.07,0,0,0,5,0c1-.1,2-.19,3-.25.49,0,1,0,1.47-.06a1.5,1.5,0,0,1,.3,0c.16,0,.31,0,.39.12a1.72,1.72,0,0,1-.25.45l-.07.07,0,.06,0,.09-.51,1.37c-.33.92-.67,1.82-1,2.72a45.58,45.58,0,0,0-1.46,7.22,13.12,13.12,0,0,1-.37,1.53c-.07.25-.16.5-.24.74l-.06.17,0,0,0,.08a.38.38,0,0,1-.38.19l-.21-.13L44,32.32l0,0s0,0-.11,0c-2.44-.23-4.9,0-7.35,0l-5.29-.06c-1.56,0-3.12.07-4.67.17l-2.49.17-1.26.08a1.34,1.34,0,0,0-.34,0h-.18a.43.43,0,0,1-.16,0c.07,0-1.22-4.56-1.36-5C20,25.15,19,21,18.36,20c-2-3.27-2.57-7.54-3.85-11.15-.34-1-.6-1.76-.69-2.19,0-.18-.11-.44-.26-1L11,5.56,8.38,5.5a16.5,16.5,0,0,0-2.76.07c-1,.31-1,.31-1.11,1.93s0,3.47.45,3.72a14.77,14.77,0,0,0,3.1,0l1.06,0c.24,0,.17,0,.19,0h0c.05,0,.08,0,.07,0a0,0,0,0,0,0,0,.43.43,0,0,1-.11.15l.07.26.2.61a60.63,60.63,0,0,0,2.37,7.37c.48,1,1.56,5.07,2.61,7.32a20.83,20.83,0,0,1,1.14,3.48c.15.6.3,1.19.47,1.78l.27.88.36,1-.07,1.34c-.28.58-.68,1.43-1.14,2.45-.71,1.63-1.6,3.65-2.47,5.63h0l-.92,2.72A1.33,1.33,0,0,0,13.47,48l2.44,0c3.67,0,7.12-.09,7.89,0,1.69.13,10,.31,13.66.09a22.47,22.47,0,0,1,5.22.1h3.71c.61-.47.68-2.23.68-2.89,0,0,.67-3.85-1.86-3.6s-15.85.9-18.54.78c-1-.05-3.68-.11-6.66-.16.15-.33.29-.66.43-1,.55-1.25.95-2.19,1.09-2.62,0-.15.1-.29.14-.43l1-.06.62-.06c.39,0,.74-.05,1-.05,2.93,0,6.91-.28,7.73-.19a26.16,26.16,0,0,0,3.65,0,41.48,41.48,0,0,1,4.84.23l2.44.22.62,0,.3,0,.47,0a11.55,11.55,0,0,0,2.36-.05A3.71,3.71,0,0,0,47.77,38a3.91,3.91,0,0,0,.94-.77A5.39,5.39,0,0,0,49.91,35l.22-.74.16-.58.13-.58a13,13,0,0,0,.31-1.65c.18-1.66,2.11-7.42,3.2-10.73,0,0,.06,0,.08-.07a3.13,3.13,0,0,0,.27-.66c.19-.59.43-1.35.7-2.23.13-.43.29-.91.42-1.39A4,4,0,0,0,55.49,15Z"/><path class="cls-1" d="M19.11,50.11a2.2,2.2,0,1,0,2.15,2.25A2.21,2.21,0,0,0,19.11,50.11Z"/><path class="cls-1" d="M38.11,50.11a2.2,2.2,0,1,0,2.15,2.25A2.21,2.21,0,0,0,38.11,50.11Z"/></svg>