<svg id="Pieces" xmlns="http://www.w3.org/2000/svg" viewBox="0 0 60 60"><defs><style>.cls-1{fill:#792f6c;}</style></defs><path class="cls-1" d="M55.48,15a3.12,3.12,0,0,0-1-2.07A4.05,4.05,0,0,0,52.23,12c-1.07-.06-2.15,0-3.06,0H47.43a5.75,5.75,0,0,1-.72,0,61,61,0,0,0-8.2-.09,12.18,12.18,0,0,1-2.38,0,3.68,3.68,0,0,1-.76-.14c-1.19-.41-2.49.15-3.7.08-3.14-.18-5.52.54-8.63.05-.92-.15-2.18-.3-2.75.34s-.59,3-.27,4.9c.24,1.45,2.71.88,3.19.68s3.27.16,5,.11c2.06-.06,4.3.34,6.41.33,1,0,1.93-.3,2.9-.38l1.19.11a24.77,24.77,0,0,0,5,0c1-.11,2-.2,3-.26l1.47-.06a1.5,1.5,0,0,1,.3,0c.15,0,.31,0,.39.13a1.64,1.64,0,0,1-.25.44l-.07.08,0,.06,0,.08-.51,1.38c-.33.91-.67,1.82-1,2.72a45.27,45.27,0,0,0-1.46,7.21,13.12,13.12,0,0,1-.37,1.53c-.07.25-.16.5-.24.75l-.06.17,0,0,0,.08a.36.36,0,0,1-.38.18l-.21-.13L44,32.32l0,0s0,0-.11,0c-2.44-.23-4.9,0-7.35,0l-5.29-.06c-1.56,0-3.12.07-4.67.16l-2.49.18-1.27.07-.33,0-.18,0h-.16c.07,0-1.22-4.56-1.36-5C20,25.16,19,21,18.36,20c-2-3.28-2.57-7.55-3.85-11.16a22.23,22.23,0,0,1-.69-2.19c-.05-.18-.11-.43-.26-1L11,5.57,8.38,5.5a15.28,15.28,0,0,0-2.77.08c-1,.3-1,.3-1.1,1.92s0,3.47.45,3.73a14.77,14.77,0,0,0,3.1,0l1.06,0c.24,0,.17,0,.19,0h0s.08,0,.07,0a.06.06,0,0,0,0,0,.27.27,0,0,1-.11.15l.08.27.2.6c.72,2.23,1.3,5.17,2.37,7.38.47,1,1.56,5.07,2.61,7.32a20.83,20.83,0,0,1,1.14,3.48c.15.59.3,1.19.47,1.78l.27.88.36,1-.07,1.34c-.28.57-.68,1.43-1.14,2.45-.71,1.63-1.61,3.65-2.47,5.62h0l-.92,2.73A1.33,1.33,0,0,0,13.47,48l2.44,0c3.67,0,7.12-.09,7.89,0,1.69.13,10,.31,13.66.1a22.47,22.47,0,0,1,5.22.1h3.71c.61-.48.68-2.24.68-2.9,0,0,.67-3.85-1.86-3.59s-15.85.9-18.54.77c-1-.05-3.68-.11-6.66-.15.15-.34.29-.66.43-1,.55-1.25.95-2.2,1.09-2.62,0-.15.1-.29.14-.43l1-.06.62-.06a9.63,9.63,0,0,1,1,0c2.93,0,6.91-.28,7.73-.19a26,26,0,0,0,3.64,0,39.47,39.47,0,0,1,4.85.23l2.44.22.62.05.3,0,.47,0a11.56,11.56,0,0,0,2.36,0A3.73,3.73,0,0,0,47.77,38a3.91,3.91,0,0,0,.94-.77A5.41,5.41,0,0,0,49.91,35l.22-.75.15-.58.14-.57c.12-.55.24-1.1.31-1.65.18-1.67,2.11-7.43,3.2-10.74a.27.27,0,0,0,.08-.07,2.94,2.94,0,0,0,.27-.65c.19-.59.43-1.35.7-2.23.13-.44.29-.91.41-1.4A3.56,3.56,0,0,0,55.48,15Z"/><path class="cls-1" d="M19.11,50.12a2.2,2.2,0,1,0,2.15,2.24A2.19,2.19,0,0,0,19.11,50.12Z"/><path class="cls-1" d="M38.11,50.12a2.2,2.2,0,1,0,2.15,2.24A2.19,2.19,0,0,0,38.11,50.12Z"/></svg>