<svg id="Pieces" xmlns="http://www.w3.org/2000/svg" viewBox="0 0 60 60"><defs><style>.cls-1{fill:#792f6c;}</style></defs><path class="cls-1" d="M6.44,25.19s.84,1,1.35,1.81S9,28.57,9.2,28.1s2.05-1.33,2.45-1.78S14,24.62,15,23.6s2.27-1.45,3.25-2.38c.28-.26.73-.22,1-.43s1.26-1.33,1.67-1.62c1.31-.94,2.92-2.44,3.33-2.65a9,9,0,0,0,1.6-1.2,15,15,0,0,1,2.27-1.42l2.11-1.15s0,0,.05,0a.56.56,0,0,1,.13-.17.2.2,0,0,1,.08,0l.07,0,.28.19c.39.26.83.59,1.3.95.92.72,1.92,1.53,2.64,2.13a.13.13,0,0,1,0,.06c.23.45,4.3,3.1,4.68,3.52A21.13,21.13,0,0,0,43,22.16a4.17,4.17,0,0,1,1.06.77,1.62,1.62,0,0,1,.27.34c.31.68,1.17.73,1.66,1.17,1.29,1.17,2.7,1.46,3.82,2.82.33.4.8.93,1.38.67a10.71,10.71,0,0,0,2.65-3.27c.64-1.07-.73-1.5-1-1.52S51.43,22,50.66,21.43c-.94-.64-1.72-1.65-2.64-2.35a14.35,14.35,0,0,0-1.48-.7l-.46-.46a8.56,8.56,0,0,0-2.22-1.65,17.26,17.26,0,0,1-2.77-1.75c-1.61-1.3-3.23-2.79-4.8-4.21a8.39,8.39,0,0,0-1.88-1.16l-1-.46L32.27,8a14.71,14.71,0,0,1-2-1.42c-.62.41-1.25.78-1.93,1.17l-1,.6-.26.15-.15.08-.29.15a27.21,27.21,0,0,0-3.24,2.41L21,12.85c-.69.51-1.34,1.06-2,1.63l-1,.93a8.44,8.44,0,0,1-2.49,1.75c-1.25.36-1.37.9-2.37,1.63-1.17.87-3.2,2-3.56,2.62a14.43,14.43,0,0,1-3.32,2.43C5.58,24.18,6.44,25.19,6.44,25.19Z"/><path class="cls-1" d="M47.4,28.32a11.62,11.62,0,0,1-2,0c-.84-.09-1.8.1-1.56.88s-.13,4.4,0,5.47,0,6.25.21,8.69A25.86,25.86,0,0,1,44,47l0,.92,0,.42v.06a.48.48,0,0,0,0,.25s0,0,0,0a1,1,0,0,1-.31-.24l0,0a2.42,2.42,0,0,1-.41.05l-.63,0c-.85.07-2.75.14-3.21.14h-.58l-.28,0,0-.25,0-.13a.2.2,0,0,1,0-.09V48a16.75,16.75,0,0,1,0-1.74c.1-1.2,0-2.42,0-3.61,0-.8,0-1.59,0-2.4A9.06,9.06,0,0,0,38,37.1a8.47,8.47,0,0,0-4.18-4.91,7.87,7.87,0,0,0-7.67.21A10.69,10.69,0,0,0,24,34a9,9,0,0,0-2.1,3.24,8.7,8.7,0,0,0-.5,2.1c0,.33-.06.78-.06,1v.8l-.06,2.9a.79.79,0,0,1,0,.09,19.31,19.31,0,0,0-.07,2.51v1.71l0,.22-.24,0h-.71l-.5,0c-.33,0-2.09-.07-3-.1-.68,0-.42,0-.51,0l-.06,0a.08.08,0,0,0,0-.07l0,0s0-.11,0-.21l0-.3a17.35,17.35,0,0,1,0-2.35,5,5,0,0,1,.11-.76c.32-1.18-.11-2.47-.06-3.67.14-3.11-.42-6.46,0-9.55.11-.91.24-2.16-.27-2.72s-2.34-.59-3.81-.27c-1.12.23-.68,2.68-.52,3.16s-.13,4.24-.09,5.91c0,2-.26,4.27-.26,6.36,0,1,.24,1.92.3,2.87L11.39,48l0,.36,0,.7,0,1.43c0,1,0,1.94,0,2.9,1.39,0,2.76,0,4-.11l.73,0h.32l.19,0,.74,0c.49,0,2-.06,2.45-.08l.72,0,.9,0H24.1l1.61,0c0-1.57.05-3.15.08-4.75l.1-2.66c.08-1.78.16-3.57.24-5.32a6.14,6.14,0,0,1,.53-2.4,4.5,4.5,0,0,1,1.41-1.68,3.05,3.05,0,0,1,2.41-.41A4.34,4.34,0,0,1,32.53,37a5.64,5.64,0,0,1,1.26,1.89A4.08,4.08,0,0,1,34,40a6.05,6.05,0,0,1,0,.81v.91L34,47l0,2.52.07,3.67,1.35,0,2.32-.06,1.14,0,.64,0c.69,0,2.73-.09,3.76-.1h1.13l1.31,0c.85,0,1.64.07,2.3.13l.35,0a33.74,33.74,0,0,0,.15-4.58v-.37l0-.27,0-.59c0-.41-.05-.86-.05-1.41,0-2.63.24-7.81,0-9a51.06,51.06,0,0,1,0-7.42C48.6,28.15,47.4,28.32,47.4,28.32Z"/></svg>